FiraCode-Medium.ufo
<glyph name="exclam" format="2">
  <advance width="1200.0"/>
  <unicode hex="0021"/>
  <outline>
    <contour>
      <point x="719.125" y="1380.25" type="line"/>
      <point x="475.125" y="1380.25" type="line"/>
      <point x="502.7083333333333" y="475.0208333333333" type="line"/>
      <point x="693.0208333333334" y="475.0208333333333" type="line"/>
    </contour>
    <contour>
      <point x="598.5625" y="276.25" type="curve" smooth="yes"/>
      <point x="514.4166666666666" y="276.25"/>
      <point x="447.75" y="208.14583333333334"/>
      <point x="447.75" y="125.4375" type="curve" smooth="yes"/>
      <point x="447.75" y="41.291666666666664"/>
      <point x="514.4166666666666" y="-27.291666666666668"/>
      <point x="598.5625" y="-27.291666666666668" type="curve" smooth="yes"/>
      <point x="684.7083333333334" y="-27.291666666666668"/>
      <point x="751.2916666666666" y="41.291666666666664"/>
      <point x="751.2916666666666" y="125.4375" type="curve" smooth="yes"/>
      <point x="751.2916666666666" y="208.14583333333334"/>
      <point x="684.7083333333334" y="276.25"/>
    </contour>
  </outline>
</glyph>
<glyph name="quotedbl" format="2">
  <advance width="1200.0"/>
  <unicode hex="0022"/>
  <outline>
    <contour>
      <point x="335.2916666666667" y="945.125" type="line"/>
      <point x="511.8541666666667" y="945.125" type="line"/>
      <point x="545.0208333333334" y="1479.6875" type="line"/>
      <point x="301.125" y="1479.6875" type="line"/>
    </contour>
    <contour>
      <point x="687.5833333333334" y="945.125" type="line"/>
      <point x="864.7083333333334" y="945.125" type="line"/>
      <point x="898.875" y="1479.6875" type="line"/>
      <point x="654.4166666666666" y="1479.6875" type="line"/>
    </contour>
  </outline>
</glyph>
<glyph name="numbersign" format="2">
  <advance width="1200.0"/>
  <unicode hex="0023"/>
  <outline>
    <contour>
      <point x="941.75" y="904.9791666666666" type="line"/>
      <point x="1108.0" y="904.9791666666666" type="line"/>
      <point x="1108.0" y="1065.5833333333333" type="line"/>
      <point x="962.5625" y="1065.5833333333333" type="line"/>
      <point x="1006.3125" y="1380.25" type="line"/>
      <point x="818.1458333333334" y="1380.25" type="line"/>
      <point x="776.3125" y="1065.5833333333333" type="line"/>
      <point x="521.5833333333334" y="1065.5833333333333" type="line"/>
      <point x="565.8541666666666" y="1380.25" type="line"/>
      <point x="377.125" y="1380.25" type="line"/>
      <point x="335.8541666666667" y="1065.5833333333333" type="line"/>
      <point x="166.5625" y="1065.5833333333333" type="line"/>
      <point x="166.5625" y="904.9791666666666" type="line"/>
      <point x="314.5625" y="904.9791666666666" type="line"/>
      <point x="257.2916666666667" y="479.75" type="line"/>
      <point x="92.5625" y="479.75" type="line"/>
      <point x="92.5625" y="320.1458333333333" type="line"/>
      <point x="236.0" y="320.1458333333333" type="line"/>
      <point x="194.25" y="0.0" type="line"/>
      <point x="382.4166666666667" y="0.0" type="line"/>
      <point x="424.25" y="320.1458333333333" type="line"/>
      <point x="677.0208333333334" y="320.1458333333333" type="line"/>
      <point x="634.7083333333334" y="0.0" type="line"/>
      <point x="822.875" y="0.0" type="line"/>
      <point x="863.75" y="320.1458333333333" type="line"/>
      <point x="1034.0" y="320.1458333333333" type="line"/>
      <point x="1034.0" y="479.75" type="line"/>
      <point x="886.0" y="479.75" type="line"/>
    </contour>
    <contour>
      <point x="444.9791666666667" y="479.75" type="line"/>
      <point x="501.2916666666667" y="904.9791666666666" type="line"/>
      <point x="755.0208333333334" y="904.9791666666666" type="line"/>
      <point x="697.75" y="479.75" type="line"/>
    </contour>
  </outline>
</glyph>
<glyph name="dollar" format="2">
  <advance width="1200.0"/>
  <unicode hex="0024"/>
  <outline>
    <contour>
      <point x="693.6875" y="1702.4166666666667" type="line"/>
      <point x="548.9791666666666" y="1702.4166666666667" type="line"/>
      <point x="548.9791666666666" y="1402.9791666666667" type="line"/>
      <point x="302.4166666666667" y="1378.4166666666667"/>
      <point x="168.97916666666666" y="1224.1458333333333"/>
      <point x="168.97916666666666" y="1043.125" type="curve" smooth="yes"/>
      <point x="168.97916666666666" y="856.0"/>
      <point x="294.0" y="736.875"/>
      <point x="548.9791666666666" y="652.4166666666666" type="curve"/>
      <point x="548.9791666666666" y="151.125" type="line"/>
      <point x="422.3125" y="160.5625"/>
      <point x="323.125" y="216.70833333333334"/>
      <point x="237.4375" y="299.0208333333333" type="curve"/>
      <point x="117.02083333333333" y="163.75" type="line"/>
      <point x="209.75" y="73.58333333333333"/>
      <point x="356.25" y="-12.25"/>
      <point x="548.9791666666666" y="-25.291666666666668" type="curve"/>
      <point x="548.9791666666666" y="-312.9791666666667" type="line"/>
      <point x="693.6875" y="-312.9791666666667" type="line"/>
      <point x="693.6875" y="-19.291666666666668" type="line"/>
      <point x="953.5833333333334" y="14.708333333333332"/>
      <point x="1091.125" y="186.875"/>
      <point x="1091.125" y="389.75" type="curve" smooth="yes"/>
      <point x="1091.125" y="632.1458333333334"/>
      <point x="920.0" y="743.0208333333334"/>
      <point x="693.6875" y="817.6875" type="curve"/>
      <point x="693.6875" y="1233.2916666666667" type="line"/>
      <point x="786.7083333333334" y="1222.9791666666667"/>
      <point x="873.5833333333334" y="1184.3125"/>
      <point x="949.0208333333334" y="1117.125" type="curve"/>
      <point x="1070.875" y="1243.5833333333333" type="line"/>
      <point x="982.9791666666666" y="1321.75"/>
      <point x="855.2916666666666" y="1387.5833333333333"/>
      <point x="693.6875" y="1403.0208333333333" type="curve"/>
    </contour>
    <contour>
      <point x="693.6875" y="599.4375" type="line"/>
      <point x="825.75" y="541.2916666666666"/>
      <point x="866.5625" y="472.875"/>
      <point x="866.5625" y="374.3125" type="curve" smooth="yes"/>
      <point x="866.5625" y="253.6875"/>
      <point x="807.75" y="182.3125"/>
      <point x="693.6875" y="158.5625" type="curve"/>
    </contour>
    <contour>
      <point x="548.9791666666666" y="1229.8541666666667" type="curve"/>
      <point x="548.9791666666666" y="868.1458333333334" type="line"/>
      <point x="417.5833333333333" y="923.8541666666666"/>
      <point x="387.2916666666667" y="975.75"/>
      <point x="387.2916666666667" y="1058.5625" type="curve" smooth="yes"/>
      <point x="387.2916666666667" y="1152.7083333333333"/>
      <point x="450.25" y="1212.9791666666667"/>
    </contour>
  </outline>
</glyph>
<glyph name="percent" format="2">
  <advance width="1200.0"/>
  <unicode hex="0025"/>
  <outline>
    <contour>
      <point x="948.7083333333334" y="1420.9791666666667" type="line"/>
      <point x="104.3125" y="23.020833333333332" type="line"/>
      <point x="232.97916666666669" y="-46.97916666666667" type="line"/>
      <point x="1079.8541666666667" y="1350.9791666666667" type="line"/>
    </contour>
    <contour>
      <point x="885.4375" y="491.5833333333333" type="curve" smooth="yes"/>
      <point x="959.5833333333334" y="491.5833333333333"/>
      <point x="1001.8541666666666" y="436.7083333333333"/>
      <point x="1001.8541666666666" y="306.7083333333333" type="curve" smooth="yes"/>
      <point x="1001.8541666666666" y="180.875"/>
      <point x="959.5833333333334" y="120.0"/>
      <point x="885.4375" y="120.0" type="curve" smooth="yes"/>
      <point x="810.9791666666666" y="120.0"/>
      <point x="767.5833333333334" y="190.14583333333334"/>
      <point x="767.5833333333334" y="306.7083333333333" type="curve" smooth="yes"/>
      <point x="767.5833333333334" y="431.5833333333333"/>
      <point x="811.2916666666666" y="491.5833333333333"/>
    </contour>
    <contour>
      <point x="317.4375" y="1274.1458333333333" type="curve" smooth="yes"/>
      <point x="391.5833333333333" y="1274.1458333333333"/>
      <point x="433.85416666666663" y="1219.75"/>
      <point x="433.85416666666663" y="1089.75" type="curve" smooth="yes"/>
      <point x="433.85416666666663" y="963.4375"/>
      <point x="391.5833333333333" y="902.5625"/>
      <point x="317.4375" y="902.5625" type="curve" smooth="yes"/>
      <point x="242.97916666666666" y="902.5625"/>
      <point x="199.58333333333334" y="972.7083333333334"/>
      <point x="199.58333333333334" y="1089.75" type="curve" smooth="yes"/>
      <point x="199.58333333333334" y="1211.75"/>
      <point x="243.29166666666666" y="1274.1458333333333"/>
    </contour>
    <contour>
      <point x="317.4375" y="1407.5833333333333" type="curve" smooth="yes"/>
      <point x="133.125" y="1407.5833333333333"/>
      <point x="25.6875" y="1266.0"/>
      <point x="25.6875" y="1089.75" type="curve" smooth="yes"/>
      <point x="25.6875" y="912.25"/>
      <point x="133.125" y="770.5625"/>
      <point x="317.4375" y="770.5625" type="curve" smooth="yes"/>
      <point x="500.7083333333333" y="770.5625"/>
      <point x="606.7083333333334" y="912.25"/>
      <point x="606.7083333333334" y="1089.75" type="curve" smooth="yes"/>
      <point x="606.7083333333334" y="1268.25"/>
      <point x="500.7083333333333" y="1407.5833333333333"/>
    </contour>
    <contour>
      <point x="885.4375" y="625.0208333333334" type="curve" smooth="yes"/>
      <point x="701.125" y="625.0208333333334"/>
      <point x="593.6875" y="483.4375"/>
      <point x="593.6875" y="306.7083333333333" type="curve" smooth="yes"/>
      <point x="593.6875" y="129.6875"/>
      <point x="701.125" y="-12.0"/>
      <point x="885.4375" y="-12.0" type="curve" smooth="yes"/>
      <point x="1068.7083333333333" y="-12.0"/>
      <point x="1174.7083333333333" y="129.6875"/>
      <point x="1174.7083333333333" y="306.7083333333333" type="curve" smooth="yes"/>
      <point x="1174.7083333333333" y="485.6875"/>
      <point x="1068.7083333333333" y="625.0208333333334"/>
    </contour>
  </outline>
</glyph>
<glyph name="ampersand" format="2">
  <advance width="1200.0"/>
  <unicode hex="0026"/>
  <outline>
    <contour>
      <point x="558.0" y="1405.5833333333333" type="curve" smooth="yes"/>
      <point x="322.3125" y="1405.5833333333333"/>
      <point x="166.0" y="1256.3125"/>
      <point x="166.0" y="1074.9791666666667" type="curve" smooth="yes"/>
      <point x="166.0" y="937.0208333333334"/>
      <point x="233.02083333333334" y="823.6875"/>
      <point x="404.875" y="781.6875" type="curve"/>
      <point x="404.875" y="775.125" type="line"/>
      <point x="208.25" y="732.0"/>
      <point x="95.125" y="603.5833333333334"/>
      <point x="95.125" y="391.6875" type="curve" smooth="yes"/>
      <point x="95.125" y="171.125"/>
      <point x="243.125" y="-27.291666666666668"/>
      <point x="556.25" y="-27.291666666666668" type="curve" smooth="yes"/>
      <point x="790.4166666666666" y="-27.291666666666668"/>
      <point x="920.875" y="73.125"/>
      <point x="989.0208333333334" y="154.41666666666666" type="curve"/>
      <point x="989.0208333333334" y="690.3125" type="line"/>
      <point x="1150.25" y="690.3125" type="line"/>
      <point x="1150.25" y="848.7083333333334" type="line"/>
      <point x="607.125" y="848.7083333333334" type="line" smooth="yes"/>
      <point x="478.875" y="848.7083333333334"/>
      <point x="383.75" y="944.875"/>
      <point x="383.75" y="1060.4166666666667" type="curve" smooth="yes"/>
      <point x="383.75" y="1170.3125"/>
      <point x="447.2916666666667" y="1245.6875"/>
      <point x="570.5625" y="1245.6875" type="curve" smooth="yes"/>
      <point x="662.4166666666666" y="1245.6875"/>
      <point x="720.3125" y="1212.9791666666667"/>
      <point x="785.5833333333334" y="1140.875" type="curve"/>
      <point x="912.9791666666666" y="1253.8541666666667" type="line"/>
      <point x="803.0208333333334" y="1372.25"/>
      <point x="693.6875" y="1405.5833333333333"/>
    </contour>
    <contour>
      <point x="783.75" y="690.3125" type="line"/>
      <point x="783.75" y="230.875" type="line"/>
      <point x="737.8541666666666" y="176.3125"/>
      <point x="660.4166666666666" y="144.25"/>
      <point x="565.5833333333334" y="144.25" type="curve" smooth="yes"/>
      <point x="391.58333333333337" y="144.25"/>
      <point x="314.0" y="264.0"/>
      <point x="314.0" y="404.1458333333333" type="curve" smooth="yes"/>
      <point x="314.0" y="539.6875"/>
      <point x="395.58333333333337" y="690.3125"/>
      <point x="585.2916666666666" y="690.3125" type="curve" smooth="yes"/>
    </contour>
  </outline>
</glyph>
<glyph name="parenleft" format="2">
  <advance width="1200.0"/>
  <unicode hex="0028"/>
  <outline>
    <contour>
      <point x="461.58333333333337" y="700.0" type="curve" smooth="yes"/>
      <point x="461.58333333333337" y="1085.5833333333333"/>
      <point x="590.3125" y="1303.4375"/>
      <point x="871.2916666666666" y="1573.4375" type="curve"/>
      <point x="746.7083333333334" y="1693.4375" type="line"/>
      <point x="425.4375" y="1425.75"/>
      <point x="230.70833333333331" y="1149.0208333333333"/>
      <point x="230.70833333333331" y="700.0" type="curve" smooth="yes"/>
      <point x="230.70833333333331" y="250.97916666666666"/>
      <point x="425.4375" y="-25.75"/>
      <point x="746.7083333333334" y="-293.4375" type="curve"/>
      <point x="871.2916666666666" y="-173.4375" type="line"/>
      <point x="584.25" y="102.14583333333334"/>
      <point x="461.58333333333337" y="315.8541666666667"/>
    </contour>
  </outline>
</glyph>
<glyph name="parenright" format="2">
  <advance width="1200.0"/>
  <unicode hex="0029"/>
  <outline>
    <contour>
      <point x="738.4166666666666" y="700.0" type="curve" smooth="yes"/>
      <point x="738.4166666666666" y="315.8541666666667"/>
      <point x="615.75" y="102.14583333333334"/>
      <point x="328.7083333333333" y="-173.4375" type="curve"/>
      <point x="453.2916666666667" y="-293.4375" type="line"/>
      <point x="774.5625" y="-25.75"/>
      <point x="969.2916666666666" y="250.97916666666666"/>
      <point x="969.2916666666666" y="700.0" type="curve" smooth="yes"/>
      <point x="969.2916666666666" y="1149.0208333333333"/>
      <point x="774.5625" y="1425.75"/>
      <point x="453.2916666666667" y="1693.4375" type="curve"/>
      <point x="328.7083333333333" y="1573.4375" type="line"/>
      <point x="609.6875" y="1303.4375"/>
      <point x="738.4166666666666" y="1085.5833333333333"/>
    </contour>
  </outline>
</glyph>
<glyph name="asterisk" format="2">
  <advance width="1200.0"/>
  <unicode hex="002A"/>
  <outline>
    <contour>
      <point x="490.25" y="1167.75" type="line"/>
      <point x="709.75" y="1167.75" type="line"/>
      <point x="685.4375" y="773.0208333333334" type="line"/>
      <point x="1052.0" y="917.125" type="line"/>
      <point x="1119.125" y="710.7083333333334" type="line"/>
      <point x="737.0208333333334" y="611.75" type="line"/>
      <point x="987.75" y="306.3125" type="line"/>
      <point x="812.875" y="179.75" type="line"/>
      <point x="600.0" y="511.5833333333333" type="line"/>
      <point x="387.125" y="179.75" type="line"/>
      <point x="212.25" y="306.3125" type="line"/>
      <point x="462.9791666666667" y="611.75" type="line"/>
      <point x="80.875" y="710.7083333333334" type="line"/>
      <point x="148.0" y="917.125" type="line"/>
      <point x="514.5625" y="773.0208333333334" type="line"/>
    </contour>
  </outline>
</glyph>
<glyph name="plus" format="2">
  <advance width="1200.0"/>
  <unicode hex="002B"/>
  <outline>
    <contour>
      <point x="696.9791666666666" y="1116.3125" type="line"/>
      <point x="499.5833333333333" y="1116.3125" type="line"/>
      <point x="499.5833333333333" y="712.9791666666666" type="line"/>
      <point x="106.25" y="712.9791666666666" type="line"/>
      <point x="106.25" y="532.7083333333334" type="line"/>
      <point x="499.5833333333333" y="532.7083333333334" type="line"/>
      <point x="499.5833333333333" y="131.29166666666666" type="line"/>
      <point x="696.9791666666666" y="131.29166666666666" type="line"/>
      <point x="696.9791666666666" y="532.7083333333334" type="line"/>
      <point x="1093.75" y="532.7083333333334" type="line"/>
      <point x="1093.75" y="712.9791666666666" type="line"/>
      <point x="696.9791666666666" y="712.9791666666666" type="line"/>
    </contour>
  </outline>
</glyph>
<glyph name="comma" format="2">
  <advance width="1200.0"/>
  <unicode hex="002C"/>
  <outline>
    <contour>
      <point x="600.0" y="360.25" type="curve" smooth="yes"/>
      <point x="497.125" y="360.25"/>
      <point x="418.9791666666667" y="280.1458333333333"/>
      <point x="418.9791666666667" y="179.75" type="curve" smooth="yes"/>
      <point x="418.9791666666667" y="117.6875"/>
      <point x="446.7083333333333" y="61.75"/>
      <point x="495.2916666666667" y="29.020833333333332" type="curve"/>
      <point x="397.125" y="-377.2916666666667" type="line"/>
      <point x="570.7083333333334" y="-377.2916666666667" type="line"/>
      <point x="726.25" y="-22.97916666666667" type="line" smooth="yes"/>
      <point x="766.0" y="65.85416666666666"/>
      <point x="783.0208333333334" y="118.875"/>
      <point x="783.0208333333334" y="178.70833333333334" type="curve" smooth="yes"/>
      <point x="783.0208333333334" y="280.1458333333333"/>
      <point x="704.875" y="360.25"/>
    </contour>
  </outline>
</glyph>
<glyph name="hyphen" format="2">
  <advance width="1200.0"/>
  <unicode hex="002D"/>
  <outline>
    <contour>
      <point x="187.125" y="534.1458333333334" type="line"/>
      <point x="1012.875" y="534.1458333333334" type="line"/>
      <point x="1012.875" y="717.8541666666666" type="line"/>
      <point x="187.125" y="717.8541666666666" type="line"/>
    </contour>
  </outline>
</glyph>
<glyph name="period" format="2">
  <advance width="1200.0"/>
  <unicode hex="002E"/>
  <outline>
    <contour>
      <point x="405.75" y="167.4375" type="curve" smooth="yes"/>
      <point x="405.75" y="59.85416666666667"/>
      <point x="490.4166666666667" y="-27.291666666666668"/>
      <point x="598.5625" y="-27.291666666666668" type="curve" smooth="yes"/>
      <point x="708.1458333333334" y="-27.291666666666668"/>
      <point x="793.2916666666666" y="59.85416666666667"/>
      <point x="793.2916666666666" y="167.4375" type="curve" smooth="yes"/>
      <point x="793.2916666666666" y="273.5833333333333"/>
      <point x="708.1458333333334" y="360.25"/>
      <point x="598.5625" y="360.25" type="curve" smooth="yes"/>
      <point x="490.4166666666667" y="360.25"/>
      <point x="405.75" y="273.5833333333333"/>
    </contour>
  </outline>
</glyph>
<glyph name="slash" format="2">
  <advance width="1200.0"/>
  <unicode hex="002F"/>
  <outline>
    <contour>
      <point x="264.7083333333333" y="-212.97916666666666" type="line"/>
      <point x="1113.2916666666667" y="1541.125" type="line"/>
      <point x="937.2916666666666" y="1624.4166666666667" type="line"/>
      <point x="86.70833333333333" y="-132.5625" type="line"/>
    </contour>
  </outline>
</glyph>
<glyph name="zero" format="2">
  <advance width="1200.0"/>
  <unicode hex="0030"/>
  <outline>
    <contour>
      <point x="600.0" y="1407.5833333333333" type="curve" smooth="yes"/>
      <point x="290.0" y="1407.5833333333333"/>
      <point x="130.14583333333331" y="1147.6875"/>
      <point x="130.14583333333331" y="691.6875" type="curve" smooth="yes"/>
      <point x="130.14583333333331" y="233.6875"/>
      <point x="290.0" y="-27.291666666666668"/>
      <point x="600.0" y="-27.291666666666668" type="curve" smooth="yes"/>
      <point x="909.4375" y="-27.291666666666668"/>
      <point x="1069.8541666666667" y="233.6875"/>
      <point x="1069.8541666666667" y="691.6875" type="curve" smooth="yes"/>
      <point x="1069.8541666666667" y="1147.6875"/>
      <point x="909.4375" y="1407.5833333333333"/>
    </contour>
    <contour>
      <point x="600.0" y="1236.5625" type="curve" smooth="yes"/>
      <point x="778.5625" y="1236.5625"/>
      <point x="846.5625" y="1102.5625"/>
      <point x="846.5625" y="691.6875" type="curve" smooth="yes"/>
      <point x="846.5625" y="297.6875"/>
      <point x="759.6875" y="143.6875"/>
      <point x="600.0" y="143.6875" type="curve" smooth="yes"/>
      <point x="422.3125" y="143.6875"/>
      <point x="352.875" y="277.125"/>
      <point x="352.875" y="691.6875" type="curve" smooth="yes"/>
      <point x="352.875" y="1080.875"/>
      <point x="441.75" y="1236.5625"/>
    </contour>
    <contour>
      <point x="785.75" y="1189.6875" type="line"/>
      <point x="358.3125" y="318.9791666666667" type="line"/>
      <point x="431.5833333333333" y="192.3125" type="line"/>
      <point x="843.75" y="1032.9791666666667" type="line"/>
    </contour>
  </outline>
</glyph>
<glyph name="one" format="2">
  <advance width="1200.0"/>
  <unicode hex="0031"/>
  <outline>
    <contour>
      <point x="783.5833333333334" y="1380.25" type="line"/>
      <point x="586.0" y="1380.25" type="line"/>
      <point x="162.0" y="1119.75" type="line"/>
      <point x="258.1458333333333" y="963.125" type="line"/>
      <point x="562.3125" y="1149.75" type="line"/>
      <point x="562.3125" y="40.0" type="line"/>
      <point x="783.5833333333334" y="40.0" type="line"/>
    </contour>
    <contour>
      <point x="1060.3125" y="175.75" type="line"/>
      <point x="225.4375" y="175.75" type="line"/>
      <point x="225.4375" y="0.0" type="line"/>
      <point x="1060.3125" y="0.0" type="line"/>
    </contour>
  </outline>
</glyph>
<glyph name="two" format="2">
  <advance width="1200.0"/>
  <unicode hex="0032"/>
  <outline>
    <contour>
      <point x="543.8541666666666" y="1407.5833333333333" type="curve" smooth="yes"/>
      <point x="343.8541666666667" y="1407.5833333333333"/>
      <point x="210.3125" y="1332.3125"/>
      <point x="103.4375" y="1195.0208333333333" type="curve"/>
      <point x="248.5625" y="1084.0" type="line"/>
      <point x="330.1458333333333" y="1184.875"/>
      <point x="403.5833333333333" y="1228.3125"/>
      <point x="527.75" y="1228.3125" type="curve" smooth="yes"/>
      <point x="668.3125" y="1228.3125"/>
      <point x="751.125" y="1142.9791666666667"/>
      <point x="751.125" y="1004.1458333333334" type="curve" smooth="yes"/>
      <point x="751.125" y="802.25"/>
      <point x="626.25" y="646.3125"/>
      <point x="131.4375" y="169.85416666666669" type="curve"/>
      <point x="131.4375" y="0.0" type="line"/>
      <point x="988.7083333333334" y="0.0" type="line"/>
      <point x="1014.5625" y="180.14583333333334" type="line"/>
      <point x="387.58333333333337" y="180.14583333333334" type="line"/>
      <point x="828.7083333333334" y="580.1458333333334"/>
      <point x="982.5625" y="776.0"/>
      <point x="982.5625" y="1018.25" type="curve" smooth="yes"/>
      <point x="982.5625" y="1234.5625"/>
      <point x="824.875" y="1407.5833333333333"/>
    </contour>
  </outline>
</glyph>
<glyph name="three" format="2">
  <advance width="1200.0"/>
  <unicode hex="0033"/>
  <outline>
    <contour>
      <point x="539.6875" y="1407.5833333333333" type="curve" smooth="yes"/>
      <point x="380.3125" y="1407.5833333333333"/>
      <point x="237.6875" y="1353.125"/>
      <point x="117.4375" y="1238.3125" type="curve"/>
      <point x="236.3125" y="1110.5625" type="line"/>
      <point x="322.9791666666667" y="1191.75"/>
      <point x="406.1458333333333" y="1234.875"/>
      <point x="522.4166666666666" y="1234.875" type="curve" smooth="yes"/>
      <point x="656.7083333333334" y="1234.875"/>
      <point x="760.3125" y="1159.8541666666667"/>
      <point x="760.3125" y="1026.1458333333333" type="curve" smooth="yes"/>
      <point x="760.3125" y="878.3125"/>
      <point x="647.4375" y="808.25"/>
      <point x="518.25" y="808.25" type="curve" smooth="yes"/>
      <point x="434.0" y="808.25" type="line"/>
      <point x="407.5833333333333" y="643.4375" type="line"/>
      <point x="526.875" y="643.4375" type="line" smooth="yes"/>
      <point x="684.9791666666666" y="643.4375"/>
      <point x="793.0208333333334" y="580.5625"/>
      <point x="793.0208333333334" y="402.4166666666667" type="curve" smooth="yes"/>
      <point x="793.0208333333334" y="245.02083333333334"/>
      <point x="686.0" y="150.97916666666669"/>
      <point x="514.9791666666666" y="150.97916666666669" type="curve" smooth="yes"/>
      <point x="403.5833333333333" y="150.97916666666669"/>
      <point x="294.0" y="193.85416666666669"/>
      <point x="215.4375" y="285.8541666666667" type="curve"/>
      <point x="77.6875" y="165.85416666666666" type="line"/>
      <point x="186.97916666666666" y="36.25"/>
      <point x="351.0208333333333" y="-27.291666666666668"/>
      <point x="525.4375" y="-27.291666666666668" type="curve" smooth="yes"/>
      <point x="828.25" y="-27.291666666666668"/>
      <point x="1025.0208333333333" y="157.4375"/>
      <point x="1025.0208333333333" y="394.3125" type="curve" smooth="yes"/>
      <point x="1025.0208333333333" y="611.125"/>
      <point x="879.4375" y="716.1458333333334"/>
      <point x="707.125" y="734.0" type="curve"/>
      <point x="862.3125" y="769.5833333333334"/>
      <point x="981.0208333333334" y="888.5625"/>
      <point x="981.0208333333334" y="1059.2916666666667" type="curve" smooth="yes"/>
      <point x="981.0208333333334" y="1248.9791666666667"/>
      <point x="814.25" y="1407.5833333333333"/>
    </contour>
  </outline>
</glyph>
<glyph name="four" format="2">
  <advance width="1200.0"/>
  <unicode hex="0034"/>
  <outline>
    <contour>
      <point x="520.0" y="1407.5833333333333" type="line"/>
      <point x="123.02083333333333" y="473.6875" type="line"/>
      <point x="123.02083333333333" y="318.3125" type="line"/>
      <point x="1075.8541666666667" y="318.3125" type="line"/>
      <point x="1075.8541666666667" y="491.5833333333333" type="line"/>
      <point x="357.0208333333333" y="491.5833333333333" type="line"/>
      <point x="708.9791666666666" y="1333.0208333333333" type="line"/>
    </contour>
    <contour>
      <point x="912.4166666666666" y="860.5625" type="line"/>
      <point x="724.4791666666666" y="860.5625" type="line"/>
      <point x="695.0208333333334" y="459.5833333333333" type="line"/>
      <point x="697.1041666666666" y="0.0" type="line"/>
      <point x="912.4166666666666" y="0.0" type="line"/>
    </contour>
  </outline>
</glyph>
<glyph name="five" format="2">
  <advance width="1200.0"/>
  <unicode hex="0035"/>
  <outline>
    <contour>
      <point x="995.0208333333334" y="1380.25" type="line"/>
      <point x="222.41666666666666" y="1380.25" type="line"/>
      <point x="222.41666666666666" y="670.7083333333334" type="line"/>
      <point x="387.0208333333333" y="670.7083333333334" type="line"/>
      <point x="460.0" y="702.3125"/>
      <point x="515.125" y="716.7083333333334"/>
      <point x="585.2916666666666" y="716.7083333333334" type="curve" smooth="yes"/>
      <point x="713.5833333333334" y="716.7083333333334"/>
      <point x="810.1458333333334" y="646.875"/>
      <point x="810.1458333333334" y="444.25" type="curve" smooth="yes"/>
      <point x="810.1458333333334" y="257.125"/>
      <point x="707.4375" y="150.97916666666669"/>
      <point x="538.875" y="150.97916666666669" type="curve" smooth="yes"/>
      <point x="428.9791666666667" y="150.97916666666669"/>
      <point x="335.5833333333333" y="193.58333333333334"/>
      <point x="258.5625" y="279.58333333333337" type="curve"/>
      <point x="125.4375" y="154.3125" type="line"/>
      <point x="230.3125" y="42.25"/>
      <point x="368.1458333333333" y="-27.291666666666668"/>
      <point x="547.5833333333334" y="-27.291666666666668" type="curve" smooth="yes"/>
      <point x="846.7083333333334" y="-27.291666666666668"/>
      <point x="1042.7083333333333" y="165.85416666666666"/>
      <point x="1042.7083333333333" y="443.0208333333333" type="curve" smooth="yes"/>
      <point x="1042.7083333333333" y="720.1458333333334"/>
      <point x="882.5625" y="882.0"/>
      <point x="661.8541666666666" y="882.0" type="curve" smooth="yes"/>
      <point x="587.4375" y="882.0"/>
      <point x="514.3125" y="868.5625"/>
      <point x="436.25" y="828.4166666666666" type="curve"/>
      <point x="436.25" y="1211.75" type="line"/>
      <point x="966.25" y="1211.75" type="line"/>
    </contour>
  </outline>
</glyph>
<glyph name="six" format="2">
  <advance width="1200.0"/>
  <unicode hex="0036"/>
  <outline>
    <contour>
      <point x="682.3125" y="1407.5833333333333" type="curve"/>
      <point x="340.4166666666667" y="1407.5833333333333"/>
      <point x="136.41666666666666" y="1102.1458333333333"/>
      <point x="136.41666666666666" y="641.8541666666666" type="curve" smooth="yes"/>
      <point x="136.41666666666666" y="251.75"/>
      <point x="269.125" y="-27.291666666666668"/>
      <point x="616.0" y="-27.291666666666668" type="curve" smooth="yes"/>
      <point x="878.7083333333334" y="-27.291666666666668"/>
      <point x="1071.5833333333333" y="170.875"/>
      <point x="1071.5833333333333" y="465.6875" type="curve" smooth="yes"/>
      <point x="1071.5833333333333" y="759.6875"/>
      <point x="895.75" y="908.875"/>
      <point x="682.1458333333334" y="908.875" type="curve"/>
      <point x="550.1458333333334" y="908.875"/>
      <point x="433.0208333333333" y="851.2916666666666"/>
      <point x="344.14583333333337" y="716.1458333333334" type="curve"/>
      <point x="347.58333333333337" y="548.25" type="line"/>
      <point x="412.4166666666667" y="663.4375"/>
      <point x="513.75" y="740.7083333333334"/>
      <point x="635.125" y="740.7083333333334" type="curve"/>
      <point x="762.3125" y="740.7083333333334"/>
      <point x="844.7083333333334" y="668.3125"/>
      <point x="844.7083333333334" y="456.3125" type="curve" smooth="yes"/>
      <point x="844.7083333333334" y="268.7083333333333"/>
      <point x="770.1458333333334" y="143.125"/>
      <point x="617.125" y="143.125" type="curve" smooth="yes"/>
      <point x="433.5833333333333" y="143.125"/>
      <point x="366.14583333333337" y="295.6875"/>
      <point x="366.70833333333337" y="624.9791666666666" type="curve"/>
      <point x="364.70833333333337" y="701.8541666666666" type="line"/>
      <point x="364.875" y="1033.2916666666667"/>
      <point x="484.70833333333337" y="1237.6875"/>
      <point x="682.5625" y="1237.6875" type="curve"/>
      <point x="751.5833333333334" y="1237.6875"/>
      <point x="819.8541666666666" y="1218.25"/>
      <point x="879.125" y="1180.25" type="curve"/>
      <point x="965.5833333333334" y="1323.8541666666667" type="line"/>
      <point x="887.5833333333334" y="1376.4166666666667"/>
      <point x="794.25" y="1407.5833333333333"/>
    </contour>
  </outline>
</glyph>
<glyph name="seven" format="2">
  <advance width="1200.0"/>
  <unicode hex="0037"/>
  <outline>
    <contour>
      <point x="486.3125" y="-23.854166666666668" type="line"/>
      <point x="1030.9791666666667" y="1219.4375" type="line"/>
      <point x="1030.9791666666667" y="1380.25" type="line"/>
      <point x="172.41666666666666" y="1380.25" type="line"/>
      <point x="172.41666666666666" y="1203.5833333333333" type="line"/>
      <point x="804.4166666666666" y="1203.5833333333333" type="line"/>
      <point x="275.4375" y="40.875" type="line"/>
    </contour>
  </outline>
</glyph>
<glyph name="nine" format="2">
  <advance width="1200.0"/>
  <unicode hex="0039"/>
  <outline>
    <contour>
      <point x="583.8541666666666" y="1406.1458333333333" type="curve" smooth="yes"/>
      <point x="321.2916666666667" y="1406.1458333333333"/>
      <point x="115.75" y="1233.0208333333333"/>
      <point x="115.75" y="936.4166666666666" type="curve"/>
      <point x="115.75" y="663.5833333333334"/>
      <point x="284.0" y="495.2916666666667"/>
      <point x="508.7083333333333" y="495.2916666666667" type="curve" smooth="yes"/>
      <point x="658.25" y="495.2916666666667"/>
      <point x="764.3125" y="570.1458333333334"/>
      <point x="852.2083333333334" y="681.1666666666666" type="curve"/>
      <point x="854.2916666666666" y="839.5208333333334" type="line"/>
      <point x="770.1458333333334" y="729.0208333333334"/>
      <point x="685.2916666666666" y="662.1458333333334"/>
      <point x="565.0208333333334" y="662.1458333333334" type="curve" smooth="yes"/>
      <point x="431.6875" y="662.1458333333334"/>
      <point x="344.14583333333337" y="740.875"/>
      <point x="344.14583333333337" y="936.3125" type="curve"/>
      <point x="344.14583333333337" y="1136.0"/>
      <point x="428.5625" y="1236.25"/>
      <point x="583.2916666666666" y="1236.25" type="curve" smooth="yes"/>
      <point x="761.625" y="1236.25"/>
      <point x="826.0" y="1104.3125"/>
      <point x="823.9166666666666" y="779.1666666666666" type="curve"/>
      <point x="822.0" y="679.3541666666666" type="line"/>
      <point x="798.5625" y="367.7708333333333"/>
      <point x="608.8541666666666" y="216.54166666666669"/>
      <point x="231.29166666666666" y="114.5625" type="curve"/>
      <point x="280.0" y="-48.97916666666667" type="line"/>
      <point x="820.3125" y="84.95833333333333"/>
      <point x="1056.0" y="299.5833333333333"/>
      <point x="1056.0" y="846.9166666666666" type="curve" smooth="yes"/>
      <point x="1056.0" y="1185.9375"/>
      <point x="898.4166666666666" y="1406.1458333333333"/>
    </contour>
  </outline>
</glyph>
<glyph name="colon" format="2">
  <advance width="1200.0"/>
  <unicode hex="003A"/>
  <outline>
    <contour>
      <point x="418.7083333333333" y="154.0" type="curve" smooth="yes"/>
      <point x="418.7083333333333" y="53.85416666666667"/>
      <point x="497.8541666666667" y="-27.291666666666668"/>
      <point x="598.5625" y="-27.291666666666668" type="curve" smooth="yes"/>
      <point x="700.7083333333334" y="-27.291666666666668"/>
      <point x="779.2916666666666" y="53.85416666666667"/>
      <point x="779.2916666666666" y="154.0" type="curve" smooth="yes"/>
      <point x="779.2916666666666" y="250.70833333333334"/>
      <point x="700.7083333333334" y="332.25"/>
      <point x="598.5625" y="332.25" type="curve" smooth="yes"/>
      <point x="497.8541666666667" y="332.25"/>
      <point x="418.7083333333333" y="250.70833333333334"/>
    </contour>
    <contour>
      <point x="418.7083333333333" y="863.6875" type="curve" smooth="yes"/>
      <point x="418.7083333333333" y="765.0208333333334"/>
      <point x="497.8541666666667" y="683.4375"/>
      <point x="598.5625" y="683.4375" type="curve" smooth="yes"/>
      <point x="700.7083333333334" y="683.4375"/>
      <point x="779.2916666666666" y="765.0208333333334"/>
      <point x="779.2916666666666" y="863.6875" type="curve" smooth="yes"/>
      <point x="779.2916666666666" y="962.3125"/>
      <point x="700.7083333333334" y="1043.0208333333333"/>
      <point x="598.5625" y="1043.0208333333333" type="curve" smooth="yes"/>
      <point x="497.8541666666667" y="1043.0208333333333"/>
      <point x="418.7083333333333" y="962.3125"/>
    </contour>
  </outline>
</glyph>
<glyph name="semicolon" format="2">
  <advance width="1200.0"/>
  <unicode hex="003B"/>
  <outline>
    <contour>
      <point x="598.5625" y="354.7083333333333" type="curve" smooth="yes"/>
      <point x="497.2916666666667" y="354.7083333333333"/>
      <point x="418.7083333333333" y="276.25"/>
      <point x="418.7083333333333" y="176.97916666666666" type="curve" smooth="yes"/>
      <point x="418.7083333333333" y="115.4375"/>
      <point x="447.4375" y="60.14583333333333"/>
      <point x="494.4166666666667" y="28.416666666666664" type="curve"/>
      <point x="397.8541666666667" y="-373.4375" type="line"/>
      <point x="569.75" y="-373.4375" type="line"/>
      <point x="723.125" y="-22.97916666666667" type="line" smooth="yes"/>
      <point x="761.75" y="63.125"/>
      <point x="779.2916666666666" y="117.75"/>
      <point x="779.2916666666666" y="176.41666666666666" type="curve" smooth="yes"/>
      <point x="779.2916666666666" y="276.25"/>
      <point x="701.75" y="354.7083333333333"/>
    </contour>
    <contour>
      <point x="598.5625" y="1043.0208333333333" type="curve" smooth="yes"/>
      <point x="497.8541666666667" y="1043.0208333333333"/>
      <point x="418.7083333333333" y="962.3125"/>
      <point x="418.7083333333333" y="863.6875" type="curve" smooth="yes"/>
      <point x="418.7083333333333" y="765.0208333333334"/>
      <point x="497.8541666666667" y="683.4375"/>
      <point x="598.5625" y="683.4375" type="curve" smooth="yes"/>
      <point x="700.7083333333334" y="683.4375"/>
      <point x="779.2916666666666" y="765.0208333333334"/>
      <point x="779.2916666666666" y="863.6875" type="curve" smooth="yes"/>
      <point x="779.2916666666666" y="962.3125"/>
      <point x="700.7083333333334" y="1043.0208333333333"/>
    </contour>
  </outline>
</glyph>
<glyph name="less" format="2">
  <advance width="1200.0"/>
  <unicode hex="003C"/>
  <outline>
    <contour>
      <point x="936.4166666666666" y="1202.0" type="line"/>
      <point x="162.0" y="722.7083333333334" type="line"/>
      <point x="162.0" y="531.2916666666666" type="line"/>
      <point x="929.0208333333334" y="52.5625" type="line"/>
      <point x="1039.4375" y="214.3125" type="line"/>
      <point x="354.9791666666667" y="626.5625" type="line"/>
      <point x="1039.4375" y="1039.5833333333333" type="line"/>
    </contour>
  </outline>
</glyph>
<glyph name="greater" format="2">
  <advance width="1200.0"/>
  <unicode hex="003E"/>
  <outline>
    <contour>
      <point x="265.5833333333333" y="1202.0" type="line"/>
      <point x="162.0" y="1037.2916666666667" type="line"/>
      <point x="846.9791666666666" y="626.5625" type="line"/>
      <point x="162.0" y="211.02083333333334" type="line"/>
      <point x="272.4166666666667" y="52.5625" type="line"/>
      <point x="1039.4375" y="531.2916666666666" type="line"/>
      <point x="1039.4375" y="723.75" type="line"/>
    </contour>
  </outline>
</glyph>
<glyph name="question" format="2">
  <advance width="1200.0"/>
  <unicode hex="003F"/>
  <outline>
    <contour>
      <point x="596.3125" y="1407.5833333333333" type="curve" smooth="yes"/>
      <point x="417.0208333333333" y="1407.5833333333333"/>
      <point x="269.125" y="1338.5625"/>
      <point x="153.6875" y="1203.125" type="curve"/>
      <point x="303.8541666666667" y="1089.2916666666667" type="line"/>
      <point x="382.5625" y="1183.75"/>
      <point x="481.5833333333333" y="1226.1458333333333"/>
      <point x="574.9791666666666" y="1226.1458333333333" type="curve" smooth="yes"/>
      <point x="693.8541666666666" y="1226.1458333333333"/>
      <point x="782.4166666666666" y="1171.2916666666667"/>
      <point x="782.4166666666666" y="1072.4166666666667" type="curve" smooth="yes"/>
      <point x="782.4166666666666" y="873.8333333333334"/>
      <point x="436.5625" y="875.2916666666666"/>
      <point x="436.5625" y="543.75" type="curve" smooth="yes"/>
      <point x="436.5625" y="475.0208333333333" type="line"/>
      <point x="651.2916666666666" y="475.0208333333333" type="line"/>
      <point x="651.2916666666666" y="533.75" type="line" smooth="yes"/>
      <point x="651.2916666666666" y="794.5833333333334"/>
      <point x="1015.5833333333334" y="767.75"/>
      <point x="1015.5833333333334" y="1088.875" type="curve" smooth="yes"/>
      <point x="1015.5833333333334" y="1254.4166666666667"/>
      <point x="864.4166666666666" y="1407.5833333333333"/>
    </contour>
    <contour>
      <point x="548.1458333333334" y="276.25" type="curve" smooth="yes"/>
      <point x="463.4375" y="276.25"/>
      <point x="397.8541666666667" y="208.14583333333334"/>
      <point x="397.8541666666667" y="125.4375" type="curve" smooth="yes"/>
      <point x="397.8541666666667" y="41.291666666666664"/>
      <point x="463.4375" y="-27.291666666666668"/>
      <point x="548.1458333333334" y="-27.291666666666668" type="curve" smooth="yes"/>
      <point x="634.25" y="-27.291666666666668"/>
      <point x="700.875" y="41.291666666666664"/>
      <point x="700.875" y="125.4375" type="curve" smooth="yes"/>
      <point x="700.875" y="208.14583333333334"/>
      <point x="634.25" y="276.25"/>
    </contour>
  </outline>
</glyph>
<glyph name="at" format="2">
  <advance width="1200.0"/>
  <unicode hex="0040"/>
  <outline>
    <contour>
      <point x="569.6875" y="1407.5833333333333" type="curve" smooth="yes"/>
      <point x="377.125" y="1407.5833333333333"/>
      <point x="190.97916666666666" y="1341.8541666666667"/>
      <point x="10.416666666666666" y="1184.25" type="curve"/>
      <point x="117.6875" y="1059.2916666666667" type="line"/>
      <point x="281.75" y="1202.875"/>
      <point x="429.8541666666667" y="1243.2916666666667"/>
      <point x="564.7083333333334" y="1243.2916666666667" type="curve" smooth="yes"/>
      <point x="914.4166666666666" y="1243.2916666666667"/>
      <point x="982.3125" y="965.6875"/>
      <point x="982.3125" y="569.6875" type="curve" smooth="yes"/>
      <point x="982.3125" y="201.29166666666666"/>
      <point x="980.1458333333334" y="-25.02083333333333"/>
      <point x="873.4375" y="-25.02083333333333" type="curve" smooth="yes"/>
      <point x="803.5833333333334" y="-25.02083333333333"/>
      <point x="755.5833333333334" y="23.583333333333336"/>
      <point x="755.5833333333334" y="213.75" type="curve" smooth="yes"/>
      <point x="755.5833333333334" y="808.0" type="line"/>
      <point x="644.1458333333334" y="868.0"/>
      <point x="550.9791666666666" y="887.8541666666666"/>
      <point x="453.125" y="887.8541666666666" type="curve" smooth="yes"/>
      <point x="189.4375" y="887.8541666666666"/>
      <point x="48.25" y="704.25"/>
      <point x="48.25" y="363.75" type="curve" smooth="yes"/>
      <point x="48.25" y="101.4375"/>
      <point x="133.29166666666666" y="-93.6875"/>
      <point x="358.3125" y="-93.6875" type="curve" smooth="yes"/>
      <point x="511.8541666666667" y="-93.6875"/>
      <point x="594.3125" y="1.8541666666666643"/>
      <point x="634.0" y="97.58333333333333" type="curve"/>
      <point x="642.0" y="97.58333333333333" type="line"/>
      <point x="647.0208333333334" y="-20.3125"/>
      <point x="717.0208333333334" y="-183.6875"/>
      <point x="879.125" y="-183.6875" type="curve" smooth="yes"/>
      <point x="1125.0208333333333" y="-183.6875"/>
      <point x="1180.7083333333333" y="73.58333333333333"/>
      <point x="1180.7083333333333" y="577.5833333333334" type="curve" smooth="yes"/>
      <point x="1180.7083333333333" y="1020.5625"/>
      <point x="1070.5625" y="1407.5833333333333"/>
    </contour>
    <contour>
      <point x="455.75" y="735.8541666666666" type="curve" smooth="yes"/>
      <point x="497.2916666666667" y="735.8541666666666"/>
      <point x="528.3125" y="728.4166666666666"/>
      <point x="563.8541666666666" y="710.1458333333334" type="curve"/>
      <point x="563.8541666666666" y="222.3125" type="line"/>
      <point x="545.75" y="162.70833333333334"/>
      <point x="512.9791666666666" y="59.75"/>
      <point x="392.3125" y="59.75" type="curve" smooth="yes"/>
      <point x="288.5625" y="59.75"/>
      <point x="256.9791666666667" y="173.125"/>
      <point x="256.9791666666667" y="363.75" type="curve" smooth="yes"/>
      <point x="256.9791666666667" y="620.7083333333334"/>
      <point x="302.3125" y="735.8541666666666"/>
    </contour>
  </outline>
</glyph>
<glyph name="A" format="2">
  <advance width="1200.0"/>
  <unicode hex="0041"/>
  <anchor x="596.5625" y="0.0" name="bottom"/>
  <anchor x="1092.7083333333333" y="0.0" name="ogonek"/>
  <anchor x="600.0" y="1380.25" name="top"/>
  <anchor x="382.5625" y="1380.25" name="topleft"/>
  <outline>
    <contour>
      <point x="841.6875" y="331.5833333333333" type="line"/>
      <point x="937.6875" y="0.0" type="line"/>
      <point x="1183.75" y="0.0" type="line"/>
      <point x="744.4166666666666" y="1380.25" type="line"/>
      <point x="456.1458333333333" y="1380.25" type="line"/>
      <point x="17.291666666666664" y="0.0" type="line"/>
      <point x="253.4375" y="0.0" type="line"/>
      <point x="349.4375" y="331.5833333333333" type="line"/>
    </contour>
    <contour>
      <point x="397.125" y="511.125" type="line"/>
      <point x="596.0" y="1200.3125" type="line"/>
      <point x="793.4375" y="511.125" type="line"/>
    </contour>
  </outline>
</glyph>
<glyph name="B" format="2">
  <advance width="1200.0"/>
  <unicode hex="0042"/>
  <anchor x="600.0" y="0.0" name="bottom"/>
  <anchor x="600.0" y="1380.25" name="top"/>
  <outline>
    <contour>
      <point x="861.0208333333334" y="398.875" type="curve" smooth="yes"/>
      <point x="861.0208333333334" y="215.29166666666669"/>
      <point x="713.4375" y="179.58333333333334"/>
      <point x="581.125" y="179.58333333333334" type="curve" smooth="yes"/>
      <point x="394.0" y="179.58333333333334" type="line"/>
      <point x="394.0" y="634.5625" type="line"/>
      <point x="591.2916666666666" y="634.5625" type="line" smooth="yes"/>
      <point x="742.7083333333334" y="634.5625"/>
      <point x="861.0208333333334" y="583.6875"/>
    </contour>
    <contour>
      <point x="807.5833333333334" y="1012.4166666666666" type="curve" smooth="yes"/>
      <point x="807.5833333333334" y="867.5833333333334"/>
      <point x="728.4166666666666" y="807.125"/>
      <point x="574.0" y="807.125" type="curve" smooth="yes"/>
      <point x="394.0" y="807.125" type="line"/>
      <point x="394.0" y="1205.75" type="line"/>
      <point x="559.6875" y="1205.75" type="line" smooth="yes"/>
      <point x="717.5833333333334" y="1205.75"/>
      <point x="807.5833333333334" y="1151.125"/>
    </contour>
    <contour>
      <point x="1102.7083333333333" y="397.8541666666667" type="curve" smooth="yes"/>
      <point x="1102.7083333333333" y="626.5625"/>
      <point x="938.1458333333334" y="705.6875"/>
      <point x="787.75" y="731.125" type="curve"/>
      <point x="920.875" y="762.25"/>
      <point x="1042.7083333333333" y="857.8541666666666"/>
      <point x="1042.7083333333333" y="1030.5625" type="curve" smooth="yes"/>
      <point x="1042.7083333333333" y="1300.5625"/>
      <point x="796.7083333333334" y="1380.25"/>
      <point x="539.0208333333334" y="1380.25" type="curve" smooth="yes"/>
      <point x="162.3125" y="1380.25" type="line"/>
      <point x="162.3125" y="0.0" type="line"/>
      <point x="566.25" y="0.0" type="line" smooth="yes"/>
      <point x="837.0208333333334" y="0.0"/>
      <point x="1102.7083333333333" y="90.3125"/>
    </contour>
  </outline>
</glyph>
<glyph name="D" format="2">
  <advance width="1200.0"/>
  <unicode hex="0044"/>
  <anchor x="600.0" y="0.0" name="bottom"/>
  <anchor x="600.0" y="691.125" name="center"/>
  <anchor x="569.6875" y="1380.25" name="top"/>
  <outline>
    <contour>
      <point x="878.0" y="697.125" type="curve" smooth="yes"/>
      <point x="878.0" y="275.58333333333337"/>
      <point x="695.0208333333334" y="176.14583333333334"/>
      <point x="503.4375" y="176.14583333333334" type="curve" smooth="yes"/>
      <point x="374.9791666666667" y="176.14583333333334" type="line"/>
      <point x="374.9791666666667" y="1202.1458333333333" type="line"/>
      <point x="502.0" y="1202.1458333333333" type="line" smooth="yes"/>
      <point x="685.5833333333334" y="1202.1458333333333"/>
      <point x="878.0" y="1136.25"/>
    </contour>
    <contour>
      <point x="1121.6875" y="697.125" type="curve" smooth="yes"/>
      <point x="1121.6875" y="1269.125"/>
      <point x="792.7083333333334" y="1380.25"/>
      <point x="458.3125" y="1380.25" type="curve" smooth="yes"/>
      <point x="143.29166666666666" y="1380.25" type="line"/>
      <point x="143.29166666666666" y="0.0" type="line"/>
      <point x="480.875" y="0.0" type="line" smooth="yes"/>
      <point x="788.9791666666666" y="0.0"/>
      <point x="1121.6875" y="124.97916666666667"/>
    </contour>
  </outline>
</glyph>
<glyph name="E" format="2">
  <advance width="1200.0"/>
  <unicode hex="0045"/>
  <anchor x="646.7083333333334" y="0.0" name="bottom"/>
  <anchor x="955.4375" y="0.0" name="ogonek"/>
  <anchor x="641.4375" y="1380.25" name="top"/>
  <anchor x="206.25" y="1380.25" name="topleft"/>
  <outline>
    <contour>
      <point x="458.4166666666667" y="1203.75" type="line"/>
      <point x="1030.25" y="1203.75" type="line"/>
      <point x="1055.5833333333333" y="1380.25" type="line"/>
      <point x="226.25" y="1380.25" type="line"/>
      <point x="226.25" y="0.0" type="line"/>
      <point x="1067.125" y="0.0" type="line"/>
      <point x="1067.125" y="175.58333333333334" type="line"/>
      <point x="458.4166666666667" y="175.58333333333334" type="line"/>
      <point x="458.4166666666667" y="613.4375" type="line"/>
      <point x="957.5833333333334" y="613.4375" type="line"/>
      <point x="957.5833333333334" y="789.2916666666666" type="line"/>
      <point x="458.4166666666667" y="789.2916666666666" type="line"/>
    </contour>
  </outline>
</glyph>
<glyph name="F" format="2">
  <advance width="1200.0"/>
  <unicode hex="0046"/>
  <anchor x="600.0" y="0.0" name="bottom"/>
  <anchor x="600.0" y="1380.25" name="top"/>
  <outline>
    <contour>
      <point x="485.58333333333337" y="1203.75" type="line"/>
      <point x="1076.7083333333333" y="1203.75" type="line"/>
      <point x="1102.5625" y="1380.25" type="line"/>
      <point x="253.85416666666666" y="1380.25" type="line"/>
      <point x="253.85416666666666" y="0.0" type="line"/>
      <point x="485.58333333333337" y="0.0" type="line"/>
      <point x="485.58333333333337" y="589.2916666666666" type="line"/>
      <point x="1005.125" y="589.2916666666666" type="line"/>
      <point x="1005.125" y="764.875" type="line"/>
      <point x="485.58333333333337" y="764.875" type="line"/>
    </contour>
  </outline>
</glyph>
<glyph name="G" format="2">
  <advance width="1200.0"/>
  <unicode hex="0047"/>
  <anchor x="658.3125" y="0.0" name="bottom"/>
  <anchor x="660.0" y="1380.25" name="top"/>
  <outline>
    <contour>
      <point x="636.1458333333334" y="-27.291666666666668" type="curve" smooth="yes"/>
      <point x="828.9791666666666" y="-27.291666666666668"/>
      <point x="969.6875" y="25.75"/>
      <point x="1099.5833333333333" y="100.25" type="curve"/>
      <point x="1099.5833333333333" y="769.125" type="line"/>
      <point x="615.6875" y="769.125" type="line"/>
      <point x="640.9791666666666" y="592.3125" type="line"/>
      <point x="874.875" y="592.3125" type="line"/>
      <point x="874.875" y="211.58333333333334" type="line"/>
      <point x="806.7083333333334" y="174.5625"/>
      <point x="730.9791666666666" y="154.25"/>
      <point x="647.2916666666666" y="154.25" type="curve" smooth="yes"/>
      <point x="428.3125" y="154.25"/>
      <point x="316.875" y="305.125"/>
      <point x="316.875" y="691.125" type="curve" smooth="yes"/>
      <point x="316.875" y="1086.5625"/>
      <point x="487.8541666666667" y="1226.5625"/>
      <point x="682.0" y="1226.5625" type="curve" smooth="yes"/>
      <point x="789.5833333333334" y="1226.5625"/>
      <point x="872.5625" y="1190.5625"/>
      <point x="956.5625" y="1113.6875" type="curve"/>
      <point x="1086.875" y="1248.5625" type="line"/>
      <point x="978.875" y="1349.125"/>
      <point x="863.6875" y="1407.5833333333333"/>
      <point x="675.5833333333334" y="1407.5833333333333" type="curve" smooth="yes"/>
      <point x="354.875" y="1407.5833333333333"/>
      <point x="73.75" y="1165.125"/>
      <point x="73.75" y="691.6875" type="curve" smooth="yes"/>
      <point x="73.75" y="215.6875"/>
      <point x="284.3125" y="-27.291666666666668"/>
    </contour>
  </outline>
</glyph>
<glyph name="H" format="2">
  <advance width="1200.0"/>
  <unicode hex="0048"/>
  <anchor x="600.0" y="0.0" name="bottom"/>
  <anchor x="1076.7083333333333" y="0.0" name="bottomright"/>
  <anchor x="600.0" y="691.125" name="center"/>
  <anchor x="600.0" y="1380.25" name="top"/>
  <anchor x="123.29166666666666" y="1380.25" name="topleft"/>
  <outline>
    <contour>
      <point x="825.0208333333334" y="0.0" type="line"/>
      <point x="1056.7083333333333" y="0.0" type="line"/>
      <point x="1056.7083333333333" y="1380.25" type="line"/>
      <point x="825.0208333333334" y="1380.25" type="line"/>
      <point x="825.0208333333334" y="817.5833333333334" type="line"/>
      <point x="374.9791666666667" y="817.5833333333334" type="line"/>
      <point x="374.9791666666667" y="1380.25" type="line"/>
      <point x="143.29166666666666" y="1380.25" type="line"/>
      <point x="143.29166666666666" y="0.0" type="line"/>
      <point x="374.9791666666667" y="0.0" type="line"/>
      <point x="374.9791666666667" y="627.125" type="line"/>
      <point x="825.0208333333334" y="627.125" type="line"/>
    </contour>
  </outline>
</glyph>
<glyph name="I" format="2">
  <advance width="1200.0"/>
  <unicode hex="0049"/>
  <anchor x="600.0" y="0.0" name="bottom"/>
  <anchor x="736.5625" y="0.0" name="ogonek"/>
  <anchor x="600.0" y="1380.25" name="top"/>
  <anchor x="164.97916666666666" y="1380.25" name="topleft"/>
  <outline>
    <contour>
      <point x="1015.0208333333334" y="1380.25" type="line"/>
      <point x="184.97916666666666" y="1380.25" type="line"/>
      <point x="184.97916666666666" y="1203.0208333333333" type="line"/>
      <point x="483.4375" y="1203.0208333333333" type="line"/>
      <point x="483.4375" y="177.75" type="line"/>
      <point x="184.97916666666666" y="177.75" type="line"/>
      <point x="184.97916666666666" y="0.0" type="line"/>
      <point x="1015.0208333333334" y="0.0" type="line"/>
      <point x="1015.0208333333334" y="177.75" type="line"/>
      <point x="716.5625" y="177.75" type="line"/>
      <point x="716.5625" y="1203.0208333333333" type="line"/>
      <point x="1015.0208333333334" y="1203.0208333333333" type="line"/>
    </contour>
  </outline>
</glyph>
<glyph name="J" format="2">
  <advance width="1200.0"/>
  <unicode hex="004A"/>
  <anchor x="600.0" y="0.0" name="bottom"/>
  <anchor x="701.125" y="1380.25" name="top"/>
  <outline>
    <contour>
      <point x="1016.1458333333334" y="1380.25" type="line"/>
      <point x="370.0" y="1380.25" type="line"/>
      <point x="370.0" y="1201.5833333333333" type="line"/>
      <point x="784.9791666666666" y="1201.5833333333333" type="line"/>
      <point x="784.9791666666666" y="477.75" type="line" smooth="yes"/>
      <point x="784.9791666666666" y="271.8541666666667"/>
      <point x="676.9791666666666" y="156.97916666666669"/>
      <point x="504.3125" y="156.97916666666669" type="curve" smooth="yes"/>
      <point x="413.6875" y="156.97916666666669"/>
      <point x="324.3125" y="177.58333333333334"/>
      <point x="214.97916666666666" y="249.29166666666669" type="curve"/>
      <point x="119.6875" y="101.4375" type="line"/>
      <point x="232.97916666666666" y="19.4375"/>
      <point x="361.125" y="-25.6875"/>
      <point x="513.2916666666666" y="-25.6875" type="curve" smooth="yes"/>
      <point x="872.5625" y="-25.6875"/>
      <point x="1016.1458333333334" y="207.58333333333331"/>
      <point x="1016.1458333333334" y="473.125" type="curve" smooth="yes"/>
    </contour>
  </outline>
</glyph>
<glyph name="K" format="2">
  <advance width="1200.0"/>
  <unicode hex="004B"/>
  <anchor x="628.3125" y="0.0" name="bottom"/>
  <anchor x="633.5833333333334" y="1380.25" name="top"/>
  <outline>
    <contour>
      <point x="406.7083333333333" y="0.0" type="line"/>
      <point x="406.7083333333333" y="1380.25" type="line"/>
      <point x="175.02083333333331" y="1380.25" type="line"/>
      <point x="175.02083333333331" y="0.0" type="line"/>
    </contour>
    <contour>
      <point x="416.7083333333333" y="737.125" type="line"/>
      <point x="911.75" y="0.0" type="line"/>
      <point x="1189.6875" y="0.0" type="line"/>
      <point x="669.125" y="752.9791666666666" type="line"/>
      <point x="1151.6875" y="1380.25" type="line"/>
      <point x="897.2916666666666" y="1380.25" type="line"/>
    </contour>
  </outline>
</glyph>
<glyph name="L" format="2">
  <advance width="1200.0"/>
  <unicode hex="004C"/>
  <anchor x="652.25" y="0.0" name="bottom"/>
  <anchor x="938.7083333333334" y="763.2916666666666" name="center"/>
  <anchor x="355.75" y="1380.25" name="top"/>
  <anchor x="570.875" y="1380.25" name="topright"/>
  <outline>
    <contour>
      <point x="238.70833333333331" y="0.0" type="line"/>
      <point x="1063.75" y="0.0" type="line"/>
      <point x="1089.125" y="194.3125" type="line"/>
      <point x="470.875" y="194.3125" type="line"/>
      <point x="470.875" y="1380.25" type="line"/>
      <point x="238.70833333333331" y="1380.25" type="line"/>
    </contour>
  </outline>
</glyph>
<glyph name="M" format="2">
  <advance width="1200.0"/>
  <unicode hex="004D"/>
  <anchor x="600.0" y="0.0" name="bottom"/>
  <anchor x="1163.4375" y="0.0" name="bottomright"/>
  <anchor x="600.0" y="1380.25" name="top"/>
  <outline>
    <contour>
      <point x="1070.7083333333333" y="1380.25" type="line"/>
      <point x="791.6875" y="1380.25" type="line"/>
      <point x="604.0" y="455.0208333333333" type="line"/>
      <point x="406.875" y="1380.25" type="line"/>
      <point x="129.29166666666666" y="1380.25" type="line"/>
      <point x="51.291666666666664" y="0.0" type="line"/>
      <point x="258.9791666666667" y="0.0" type="line"/>
      <point x="285.75" y="670.4166666666666" type="line" smooth="yes"/>
      <point x="292.1458333333333" y="861.75"/>
      <point x="287.5416666666667" y="1061.8541666666667"/>
      <point x="279.6875" y="1176.0" type="curve"/>
      <point x="498.0" y="242.70833333333334" type="line"/>
      <point x="700.0" y="242.70833333333334" type="line"/>
      <point x="903.4375" y="1176.0" type="line"/>
      <point x="897.1041666666666" y="1056.6458333333333"/>
      <point x="894.8125" y="873.8541666666666"/>
      <point x="903.6875" y="671.5833333333334" type="curve" smooth="yes"/>
      <point x="936.9791666666666" y="0.0" type="line"/>
      <point x="1148.7083333333333" y="0.0" type="line"/>
    </contour>
  </outline>
</glyph>
<glyph name="N" format="2">
  <advance width="1200.0"/>
  <unicode hex="004E"/>
  <anchor x="600.0" y="0.0" name="bottom"/>
  <anchor x="605.5833333333334" y="1380.25" name="top"/>
  <outline>
    <contour>
      <point x="755.0208333333334" y="0.0" type="line"/>
      <point x="1056.7083333333333" y="0.0" type="line"/>
      <point x="1056.7083333333333" y="1380.25" type="line"/>
      <point x="851.0208333333334" y="1380.25" type="line"/>
      <point x="851.0208333333334" y="751.0208333333334" type="line" smooth="yes"/>
      <point x="851.0208333333334" y="502.9791666666667"/>
      <point x="874.7083333333334" y="288.0"/>
      <point x="884.25" y="205.125" type="curve"/>
      <point x="444.0" y="1380.25" type="line"/>
      <point x="143.29166666666666" y="1380.25" type="line"/>
      <point x="143.29166666666666" y="0.0" type="line"/>
      <point x="348.9791666666667" y="0.0" type="line"/>
      <point x="348.9791666666667" y="626.9791666666666" type="line" smooth="yes"/>
      <point x="348.9791666666667" y="851.2916666666666"/>
      <point x="323.6875" y="1092.3125"/>
      <point x="315.75" y="1174.4166666666667" type="curve"/>
    </contour>
  </outline>
</glyph>
<glyph name="O" format="2">
  <advance width="1200.0"/>
  <unicode hex="004F"/>
  <anchor x="600.0" y="0.0" name="bottom"/>
  <anchor x="600.0" y="1380.25" name="top"/>
  <anchor x="202.41666666666666" y="1380.25" name="topleft"/>
  <outline>
    <contour>
      <point x="1125.2916666666667" y="689.6875" type="curve" smooth="yes"/>
      <point x="1125.2916666666667" y="1124.3125"/>
      <point x="945.75" y="1407.5833333333333"/>
      <point x="600.0" y="1407.5833333333333" type="curve" smooth="yes"/>
      <point x="254.25" y="1407.5833333333333"/>
      <point x="74.70833333333333" y="1114.3125"/>
      <point x="74.70833333333333" y="688.25" type="curve" smooth="yes"/>
      <point x="74.70833333333333" y="253.58333333333334"/>
      <point x="254.25" y="-27.291666666666668"/>
      <point x="600.0" y="-27.291666666666668" type="curve" smooth="yes"/>
      <point x="945.75" y="-27.291666666666668"/>
      <point x="1125.2916666666667" y="263.5833333333333"/>
    </contour>
    <contour>
      <point x="885.125" y="689.6875" type="curve" smooth="yes"/>
      <point x="885.125" y="334.0"/>
      <point x="804.5625" y="154.25"/>
      <point x="600.0" y="154.25" type="curve" smooth="yes"/>
      <point x="401.4375" y="154.25"/>
      <point x="314.875" y="331.4375"/>
      <point x="314.875" y="688.25" type="curve" smooth="yes"/>
      <point x="314.875" y="1045.0208333333333"/>
      <point x="396.5625" y="1226.5625"/>
      <point x="600.0" y="1226.5625" type="curve" smooth="yes"/>
      <point x="803.4375" y="1226.5625"/>
      <point x="885.125" y="1046.9791666666667"/>
    </contour>
  </outline>
</glyph>
<glyph name="P" format="2">
  <advance width="1200.0"/>
  <unicode hex="0050"/>
  <anchor x="600.0" y="0.0" name="bottom"/>
  <anchor x="600.0" y="1380.25" name="top"/>
  <anchor x="171.125" y="1380.25" name="topleft"/>
  <outline>
    <contour>
      <point x="885.4375" y="945.0208333333334" type="curve" smooth="yes"/>
      <point x="885.4375" y="736.9791666666666"/>
      <point x="765.8541666666666" y="669.2916666666666"/>
      <point x="591.5833333333334" y="669.2916666666666" type="curve" smooth="yes"/>
      <point x="423.2916666666667" y="669.2916666666666" type="line"/>
      <point x="423.2916666666667" y="1206.1458333333333" type="line"/>
      <point x="589.4375" y="1206.1458333333333" type="line" smooth="yes"/>
      <point x="768.4166666666666" y="1206.1458333333333"/>
      <point x="885.4375" y="1133.75"/>
    </contour>
    <contour>
      <point x="1128.5625" y="946.9791666666666" type="curve" smooth="yes"/>
      <point x="1128.5625" y="1240.875"/>
      <point x="920.7083333333334" y="1380.25"/>
      <point x="574.4166666666666" y="1380.25" type="curve" smooth="yes"/>
      <point x="191.125" y="1380.25" type="line"/>
      <point x="191.125" y="0.0" type="line"/>
      <point x="423.2916666666667" y="0.0" type="line"/>
      <point x="423.2916666666667" y="492.1458333333333" type="line"/>
      <point x="589.5833333333334" y="492.1458333333333" type="line" smooth="yes"/>
      <point x="906.5625" y="492.1458333333333"/>
      <point x="1128.5625" y="624.9791666666666"/>
    </contour>
  </outline>
</glyph>
<glyph name="Q" format="2">
  <advance width="1200.0"/>
  <unicode hex="0051"/>
  <anchor x="600.0" y="0.0" name="bottom"/>
  <anchor x="600.0" y="1380.25" name="top"/>
  <outline>
    <contour>
      <point x="1123.125" y="689.6875" type="curve" smooth="yes"/>
      <point x="1123.125" y="1124.3125"/>
      <point x="947.4375" y="1407.5833333333333"/>
      <point x="601.6875" y="1407.5833333333333" type="curve" smooth="yes"/>
      <point x="256.4166666666667" y="1407.5833333333333"/>
      <point x="81.29166666666666" y="1114.3125"/>
      <point x="81.29166666666666" y="688.25" type="curve" smooth="yes"/>
      <point x="81.29166666666666" y="253.58333333333334"/>
      <point x="251.6875" y="-22.25"/>
      <point x="580.0" y="-22.25" type="curve" smooth="yes"/>
      <point x="819.125" y="-22.25"/>
      <point x="916.3125" y="-135.125"/>
      <point x="1001.4375" y="-346.0" type="curve"/>
      <point x="1216.25" y="-266.9791666666667" type="line"/>
      <point x="1146.0" y="-56.875"/>
      <point x="1037.5833333333333" y="25.75"/>
      <point x="835.4375" y="62.708333333333336" type="curve"/>
      <point x="1049.6875" y="177.58333333333334"/>
      <point x="1123.125" y="404.7083333333333"/>
    </contour>
    <contour>
      <point x="881.75" y="689.6875" type="curve" smooth="yes"/>
      <point x="881.75" y="334.0"/>
      <point x="806.25" y="154.25"/>
      <point x="601.6875" y="154.25" type="curve" smooth="yes"/>
      <point x="403.125" y="154.25"/>
      <point x="321.58333333333337" y="332.0"/>
      <point x="321.58333333333337" y="688.25" type="curve" smooth="yes"/>
      <point x="321.58333333333337" y="1044.4166666666667"/>
      <point x="398.25" y="1226.0"/>
      <point x="601.6875" y="1226.0" type="curve" smooth="yes"/>
      <point x="805.6875" y="1226.0"/>
      <point x="881.75" y="1046.4166666666667"/>
    </contour>
  </outline>
</glyph>
<glyph name="R" format="2">
  <advance width="1200.0"/>
  <unicode hex="0052"/>
  <anchor x="605.5833333333334" y="0.0" name="bottom"/>
  <anchor x="600.0" y="1380.25" name="top"/>
  <outline>
    <contour>
      <point x="1093.2916666666667" y="981.2916666666666" type="curve" smooth="yes"/>
      <point x="1093.2916666666667" y="1247.6875"/>
      <point x="908.875" y="1380.25"/>
      <point x="554.875" y="1380.25" type="curve" smooth="yes"/>
      <point x="170.14583333333331" y="1380.25" type="line"/>
      <point x="170.14583333333331" y="0.0" type="line"/>
      <point x="402.3125" y="0.0" type="line"/>
      <point x="402.3125" y="567.8541666666666" type="line"/>
      <point x="553.2916666666666" y="567.8541666666666" type="line"/>
      <point x="900.25" y="0.0" type="line"/>
      <point x="1170.1458333333333" y="0.0" type="line"/>
      <point x="778.875" y="601.2916666666666" type="line"/>
      <point x="955.4375" y="652.7083333333334"/>
      <point x="1093.2916666666667" y="777.0208333333334"/>
    </contour>
    <contour>
      <point x="849.6875" y="981.2916666666666" type="curve" smooth="yes"/>
      <point x="849.6875" y="806.9791666666666"/>
      <point x="749.6875" y="737.75"/>
      <point x="572.7083333333334" y="737.75" type="curve" smooth="yes"/>
      <point x="402.3125" y="737.75" type="line"/>
      <point x="402.3125" y="1207.75" type="line"/>
      <point x="567.8541666666666" y="1207.75" type="line" smooth="yes"/>
      <point x="757.75" y="1207.75"/>
      <point x="849.6875" y="1141.125"/>
    </contour>
  </outline>
</glyph>
<glyph name="S" format="2">
  <advance width="1200.0"/>
  <unicode hex="0053"/>
  <anchor x="595.6875" y="0.0" name="bottom"/>
  <anchor x="614.25" y="1380.25" name="top"/>
  <outline>
    <contour>
      <point x="1096.7083333333333" y="390.1458333333333" type="curve" smooth="yes"/>
      <point x="1096.7083333333333" y="650.4166666666666"/>
      <point x="921.5833333333334" y="748.0"/>
      <point x="689.2916666666666" y="817.0208333333334" type="curve" smooth="yes"/>
      <point x="442.4166666666667" y="891.2916666666666"/>
      <point x="366.0" y="940.1458333333334"/>
      <point x="366.0" y="1048.3125" type="curve" smooth="yes"/>
      <point x="366.0" y="1167.0208333333333"/>
      <point x="474.875" y="1226.0"/>
      <point x="615.6875" y="1226.0" type="curve" smooth="yes"/>
      <point x="730.5625" y="1226.0"/>
      <point x="844.875" y="1188.0"/>
      <point x="941.75" y="1104.25" type="curve"/>
      <point x="1063.6875" y="1242.0" type="line"/>
      <point x="946.5625" y="1347.8541666666667"/>
      <point x="801.2916666666666" y="1407.5833333333333"/>
      <point x="602.1458333333334" y="1407.5833333333333" type="curve" smooth="yes"/>
      <point x="330.0" y="1407.5833333333333"/>
      <point x="127.58333333333333" y="1259.5833333333333"/>
      <point x="127.58333333333333" y="1035.2916666666667" type="curve" smooth="yes"/>
      <point x="127.58333333333333" y="819.0208333333334"/>
      <point x="281.29166666666663" y="710.875"/>
      <point x="572.7083333333334" y="623.8541666666666" type="curve" smooth="yes"/>
      <point x="793.0208333333334" y="558.1458333333334"/>
      <point x="855.8541666666666" y="499.6875"/>
      <point x="855.8541666666666" y="378.5625" type="curve" smooth="yes"/>
      <point x="855.8541666666666" y="230.3125"/>
      <point x="725.4375" y="155.85416666666669"/>
      <point x="569.75" y="155.85416666666669" type="curve" smooth="yes"/>
      <point x="409.2916666666667" y="155.85416666666669"/>
      <point x="287.6875" y="209.6875"/>
      <point x="190.0" y="299.6875" type="curve"/>
      <point x="63.291666666666664" y="157.85416666666666" type="line"/>
      <point x="179.29166666666666" y="45.291666666666664"/>
      <point x="346.4166666666667" y="-27.291666666666668"/>
      <point x="570.5625" y="-27.291666666666668" type="curve" smooth="yes"/>
      <point x="903.4375" y="-27.291666666666668"/>
      <point x="1096.7083333333333" y="144.5625"/>
    </contour>
  </outline>
</glyph>
<glyph name="T" format="2">
  <advance width="1200.0"/>
  <unicode hex="0054"/>
  <anchor x="598.0" y="0.0" name="bottom"/>
  <anchor x="733.125" y="0.0" name="bottomright"/>
  <anchor x="600.0" y="691.125" name="center"/>
  <anchor x="598.0" y="1380.25" name="top"/>
  <outline>
    <contour>
      <point x="713.125" y="1192.9791666666667" type="line"/>
      <point x="1112.875" y="1192.9791666666667" type="line"/>
      <point x="1137.2916666666667" y="1380.25" type="line"/>
      <point x="66.5625" y="1380.25" type="line"/>
      <point x="66.5625" y="1192.9791666666667" type="line"/>
      <point x="481.4375" y="1192.9791666666667" type="line"/>
      <point x="481.4375" y="0.0" type="line"/>
      <point x="713.125" y="0.0" type="line"/>
    </contour>
  </outline>
</glyph>
<glyph name="U" format="2">
  <advance width="1200.0"/>
  <unicode hex="0055"/>
  <anchor x="600.0" y="0.0" name="bottom"/>
  <anchor x="793.5833333333334" y="0.0" name="ogonek"/>
  <anchor x="600.0" y="1380.25" name="top"/>
  <outline>
    <contour>
      <point x="1078.1458333333333" y="1380.25" type="line"/>
      <point x="844.9791666666666" y="1380.25" type="line"/>
      <point x="844.9791666666666" y="495.4375" type="line" smooth="yes"/>
      <point x="844.9791666666666" y="270.875"/>
      <point x="770.9791666666666" y="158.25"/>
      <point x="598.5625" y="158.25" type="curve" smooth="yes"/>
      <point x="427.5833333333333" y="158.25"/>
      <point x="353.58333333333337" y="270.875"/>
      <point x="353.58333333333337" y="495.4375" type="curve" smooth="yes"/>
      <point x="353.58333333333337" y="1380.25" type="line"/>
      <point x="121.85416666666666" y="1380.25" type="line"/>
      <point x="121.85416666666666" y="452.9791666666667" type="line" smooth="yes"/>
      <point x="121.85416666666666" y="168.0"/>
      <point x="291.8541666666667" y="-27.291666666666668"/>
      <point x="598.5625" y="-27.291666666666668" type="curve" smooth="yes"/>
      <point x="902.3125" y="-27.291666666666668"/>
      <point x="1078.1458333333333" y="171.85416666666666"/>
      <point x="1078.1458333333333" y="452.9791666666667" type="curve" smooth="yes"/>
    </contour>
  </outline>
</glyph>
<glyph name="V" format="2">
  <advance width="1200.0"/>
  <unicode hex="0056"/>
  <anchor x="600.0" y="0.0" name="bottom"/>
  <anchor x="600.0" y="1380.25" name="top"/>
  <outline>
    <contour>
      <point x="604.5625" y="219.58333333333334" type="line"/>
      <point x="278.0" y="1380.25" type="line"/>
      <point x="30.14583333333333" y="1380.25" type="line"/>
      <point x="467.4375" y="0.0" type="line"/>
      <point x="732.5625" y="0.0" type="line"/>
      <point x="1170.4166666666667" y="1380.25" type="line"/>
      <point x="934.5625" y="1380.25" type="line"/>
    </contour>
  </outline>
</glyph>
<glyph name="W" format="2">
  <advance width="1200.0"/>
  <unicode hex="0057"/>
  <anchor x="600.0" y="0.0" name="bottom"/>
  <anchor x="600.0" y="1380.25" name="top"/>
  <outline>
    <contour>
      <point x="1196.4166666666667" y="1380.25" type="line"/>
      <point x="988.5625" y="1380.25" type="line"/>
      <point x="860.1458333333334" y="224.41666666666669" type="line"/>
      <point x="722.0" y="1220.25" type="line"/>
      <point x="483.125" y="1220.25" type="line"/>
      <point x="336.9791666666667" y="224.41666666666669" type="line"/>
      <point x="227.6875" y="1380.25" type="line"/>
      <point x="3.583333333333332" y="1380.25" type="line"/>
      <point x="180.41666666666666" y="0.0" type="line"/>
      <point x="456.9791666666667" y="0.0" type="line"/>
      <point x="597.6875" y="1020.7083333333334" type="line"/>
      <point x="734.1458333333334" y="0.0" type="line"/>
      <point x="1004.7083333333334" y="0.0" type="line"/>
    </contour>
  </outline>
</glyph>
<glyph name="X" format="2">
  <advance width="1200.0"/>
  <unicode hex="0058"/>
  <anchor x="600.0" y="0.0" name="bottom"/>
  <anchor x="1073.4375" y="0.0" name="bottomright"/>
  <anchor x="600.0" y="1380.25" name="top"/>
  <outline>
    <contour>
      <point x="75.85416666666666" y="1380.25" type="line"/>
      <point x="458.9791666666667" y="734.5625" type="line"/>
      <point x="41.02083333333333" y="0.0" type="line"/>
      <point x="288.875" y="0.0" type="line"/>
      <point x="596.0" y="586.9791666666666" type="line"/>
      <point x="901.8541666666666" y="0.0" type="line"/>
      <point x="1159.0208333333333" y="0.0" type="line"/>
      <point x="734.9791666666666" y="745.6875" type="line"/>
      <point x="1116.875" y="1380.25" type="line"/>
      <point x="869.5833333333334" y="1380.25" type="line"/>
      <point x="600.0" y="883.0208333333334" type="line"/>
      <point x="333.0208333333333" y="1380.25" type="line"/>
    </contour>
  </outline>
</glyph>
<glyph name="Y" format="2">
  <advance width="1200.0"/>
  <unicode hex="0059"/>
  <anchor x="600.0" y="0.0" name="bottom"/>
  <anchor x="604.3125" y="1380.25" name="top"/>
  <anchor x="23.291666666666664" y="1380.25" name="topleft"/>
  <outline>
    <contour>
      <point x="716.5625" y="526.7083333333334" type="line"/>
      <point x="1176.7083333333333" y="1380.25" type="line"/>
      <point x="934.25" y="1380.25" type="line"/>
      <point x="604.5625" y="725.75" type="line"/>
      <point x="278.3125" y="1380.25" type="line"/>
      <point x="23.291666666666664" y="1380.25" type="line"/>
      <point x="483.4375" y="524.7083333333334" type="line"/>
      <point x="483.4375" y="0.0" type="line"/>
      <point x="716.5625" y="0.0" type="line"/>
    </contour>
  </outline>
</glyph>
<glyph name="Z" format="2">
  <advance width="1200.0"/>
  <unicode hex="005A"/>
  <anchor x="600.0" y="0.0" name="bottom"/>
  <anchor x="632.7083333333334" y="1380.25" name="top"/>
  <outline>
    <contour>
      <point x="383.02083333333337" y="192.0" type="line"/>
      <point x="1076.4166666666667" y="1198.4166666666667" type="line"/>
      <point x="1076.4166666666667" y="1380.25" type="line"/>
      <point x="190.25" y="1380.25" type="line"/>
      <point x="190.25" y="1192.4166666666667" type="line"/>
      <point x="819.8541666666666" y="1192.4166666666667" type="line"/>
      <point x="118.25" y="180.3125" type="line"/>
      <point x="118.25" y="0.0" type="line"/>
      <point x="1055.0208333333333" y="0.0" type="line"/>
      <point x="1080.875" y="192.0" type="line"/>
    </contour>
  </outline>
</glyph>
<glyph name="bracketleft" format="2">
  <advance width="1200.0"/>
  <unicode hex="005B"/>
  <outline>
    <contour>
      <point x="346.9791666666667" y="-236.41666666666666" type="line"/>
      <point x="891.5833333333334" y="-236.41666666666666" type="line"/>
      <point x="891.5833333333334" y="-59.43749999999999" type="line"/>
      <point x="558.25" y="-59.43749999999999" type="line"/>
      <point x="558.25" y="1457.4375" type="line"/>
      <point x="891.5833333333334" y="1457.4375" type="line"/>
      <point x="891.5833333333334" y="1636.4166666666667" type="line"/>
      <point x="346.9791666666667" y="1636.4166666666667" type="line"/>
    </contour>
  </outline>
</glyph>
<glyph name="backslash" format="2">
  <advance width="1200.0"/>
  <unicode hex="005C"/>
  <outline>
    <contour>
      <point x="86.70833333333333" y="1541.125" type="line"/>
      <point x="935.2916666666666" y="-212.97916666666666" type="line"/>
      <point x="1113.2916666666667" y="-132.5625" type="line"/>
      <point x="263.75" y="1624.4166666666667" type="line"/>
    </contour>
  </outline>
</glyph>
<glyph name="asciicircum" format="2">
  <advance width="1200.0"/>
  <unicode hex="005E"/>
  <outline>
    <contour>
      <point x="700.875" y="1682.25" type="line"/>
      <point x="499.125" y="1682.25" type="line"/>
      <point x="121.125" y="1054.0" type="line"/>
      <point x="350.7083333333333" y="1054.0" type="line"/>
      <point x="598.0" y="1499.4375" type="line"/>
      <point x="848.9791666666666" y="1054.0" type="line"/>
      <point x="1078.875" y="1054.0" type="line"/>
    </contour>
  </outline>
</glyph>
<glyph name="grave" format="2">
  <advance width="1200.0"/>
  <unicode hex="0060"/>
  <anchor x="600.0" y="1056.25" name="_top"/>
  <outline>
    <contour>
      <point x="782.1458333333334" y="1244.0" type="line"/>
      <point x="849.0208333333334" y="1362.3125" type="line"/>
      <point x="454.7083333333333" y="1609.5833333333333" type="line"/>
      <point x="352.3125" y="1430.5625" type="line"/>
    </contour>
  </outline>
</glyph>
<glyph name="a" format="2">
  <advance width="1200.0"/>
  <unicode hex="0061"/>
  <anchor x="600.0" y="0.0" name="bottom"/>
  <anchor x="1034.5625" y="-25.6875" name="ogonek"/>
  <anchor x="584.5625" y="1056.25" name="top"/>
  <outline>
    <contour>
      <point x="985.125" y="258.5625" type="curve" smooth="yes"/>
      <point x="985.125" y="730.1458333333334" type="line" smooth="yes"/>
      <point x="985.125" y="951.5833333333334"/>
      <point x="846.7083333333334" y="1083.5833333333333"/>
      <point x="564.25" y="1083.5833333333333" type="curve" smooth="yes"/>
      <point x="456.3125" y="1083.5833333333333"/>
      <point x="325.5833333333333" y="1061.8541666666667"/>
      <point x="193.85416666666666" y="1012.25" type="curve"/>
      <point x="249.125" y="854.0" type="line"/>
      <point x="356.5625" y="891.4375"/>
      <point x="460.1458333333333" y="908.5625"/>
      <point x="529.5833333333334" y="908.5625" type="curve" smooth="yes"/>
      <point x="678.5625" y="908.5625"/>
      <point x="764.9791666666666" y="853.6875"/>
      <point x="764.9791666666666" y="717.2916666666666" type="curve" smooth="yes"/>
      <point x="764.9791666666666" y="647.5833333333334" type="line"/>
      <point x="614.3125" y="647.5833333333334" type="line" smooth="yes"/>
      <point x="291.5833333333333" y="647.5833333333334"/>
      <point x="111.6875" y="523.2916666666666"/>
      <point x="111.6875" y="301.4375" type="curve" smooth="yes"/>
      <point x="111.6875" y="105.4375"/>
      <point x="244.97916666666666" y="-27.291666666666668"/>
      <point x="458.7083333333333" y="-27.291666666666668" type="curve" smooth="yes"/>
      <point x="593.5833333333334" y="-27.291666666666668"/>
      <point x="718.5625" y="21.583333333333332"/>
      <point x="796.25" y="119.58333333333333" type="curve"/>
      <point x="833.75" y="27.75"/>
      <point x="911.125" y="-13.6875"/>
      <point x="1014.5625" y="-25.6875" type="curve"/>
      <point x="1064.7083333333333" y="126.25" type="line"/>
      <point x="1009.4375" y="144.25"/>
      <point x="985.125" y="175.6875"/>
    </contour>
    <contour>
      <point x="526.9791666666666" y="137.85416666666669" type="curve" smooth="yes"/>
      <point x="407.75" y="137.85416666666669"/>
      <point x="347.125" y="198.3125"/>
      <point x="347.125" y="310.9791666666667" type="curve" smooth="yes"/>
      <point x="347.125" y="434.1458333333333"/>
      <point x="430.0" y="508.3125"/>
      <point x="640.9791666666666" y="508.3125" type="curve" smooth="yes"/>
      <point x="764.9791666666666" y="508.3125" type="line"/>
      <point x="764.9791666666666" y="274.9791666666667" type="line"/>
      <point x="711.125" y="188.0"/>
      <point x="617.0208333333334" y="137.85416666666669"/>
    </contour>
  </outline>
</glyph>
<glyph name="b" format="2">
  <advance width="1200.0"/>
  <unicode hex="0062"/>
  <anchor x="600.0" y="0.0" name="bottom"/>
  <anchor x="600.0" y="1479.6875" name="top"/>
  <outline>
    <contour>
      <point x="401.8541666666667" y="930.0" type="curve"/>
      <point x="401.8541666666667" y="1505.0208333333333" type="line"/>
      <point x="177.85416666666666" y="1479.6875" type="line"/>
      <point x="177.85416666666666" y="0.0" type="line"/>
      <point x="375.4375" y="0.0" type="line"/>
      <point x="387.4375" y="104.14583333333333" type="line"/>
      <point x="454.7083333333333" y="16.3125"/>
      <point x="548.7083333333334" y="-27.291666666666668"/>
      <point x="665.2916666666666" y="-27.291666666666668" type="curve" smooth="yes"/>
      <point x="938.4166666666666" y="-27.291666666666668"/>
      <point x="1085.0208333333333" y="207.4375"/>
      <point x="1085.0208333333333" y="529.6875" type="curve" smooth="yes"/>
      <point x="1085.0208333333333" y="865.5833333333334"/>
      <point x="969.8541666666666" y="1083.5833333333333"/>
      <point x="691.5833333333334" y="1083.5833333333333" type="curve" smooth="yes"/>
      <point x="575.4375" y="1083.5833333333333"/>
      <point x="474.5625" y="1026.1458333333333"/>
    </contour>
    <contour>
      <point x="609.125" y="144.25" type="curve" smooth="yes"/>
      <point x="522.875" y="144.25"/>
      <point x="451.4375" y="189.75"/>
      <point x="401.8541666666667" y="265.6875" type="curve"/>
      <point x="401.8541666666667" y="759.6875" type="line"/>
      <point x="454.5625" y="841.4375"/>
      <point x="531.125" y="911.4375"/>
      <point x="630.875" y="911.4375" type="curve" smooth="yes"/>
      <point x="769.6875" y="911.4375"/>
      <point x="848.1458333333334" y="799.75"/>
      <point x="848.1458333333334" y="528.5625" type="curve" smooth="yes"/>
      <point x="848.1458333333334" y="263.6875"/>
      <point x="760.4166666666666" y="144.25"/>
    </contour>
  </outline>
</glyph>
<glyph name="d" format="2">
  <advance width="1200.0"/>
  <unicode hex="0064"/>
  <anchor x="600.0" y="0.0" name="bottom"/>
  <anchor x="600.0" y="529.125" name="center"/>
  <anchor x="600.0" y="1479.6875" name="top"/>
  <anchor x="1076.5625" y="1479.6875" name="topright"/>
  <outline>
    <contour>
      <point x="798.1458333333334" y="1505.0208333333333" type="line"/>
      <point x="798.1458333333334" y="969.2916666666666" type="line"/>
      <point x="730.3125" y="1044.3125"/>
      <point x="642.5625" y="1083.5833333333333"/>
      <point x="531.75" y="1083.5833333333333" type="curve" smooth="yes"/>
      <point x="270.7083333333333" y="1083.5833333333333"/>
      <point x="114.97916666666666" y="849.0208333333334"/>
      <point x="114.97916666666666" y="528.25" type="curve" smooth="yes"/>
      <point x="114.97916666666666" y="196.3125"/>
      <point x="240.97916666666666" y="-27.291666666666668"/>
      <point x="511.6875" y="-27.291666666666668" type="curve" smooth="yes"/>
      <point x="636.3125" y="-27.291666666666668"/>
      <point x="737.5833333333334" y="29.6875"/>
      <point x="808.5625" y="130.41666666666666" type="curve"/>
      <point x="824.5625" y="0.0" type="line"/>
      <point x="1022.1458333333334" y="0.0" type="line"/>
      <point x="1022.1458333333334" y="1479.6875" type="line"/>
    </contour>
    <contour>
      <point x="590.875" y="912.0" type="curve" smooth="yes"/>
      <point x="676.0" y="912.0"/>
      <point x="746.0" y="868.9791666666666"/>
      <point x="798.1458333333334" y="795.2916666666666" type="curve"/>
      <point x="798.1458333333334" y="295.125" type="line"/>
      <point x="745.4375" y="212.41666666666669"/>
      <point x="672.1458333333334" y="145.29166666666669"/>
      <point x="571.4375" y="145.29166666666669" type="curve" smooth="yes"/>
      <point x="432.3125" y="145.29166666666669"/>
      <point x="351.8541666666667" y="258.9791666666667"/>
      <point x="351.8541666666667" y="527.6875" type="curve" smooth="yes"/>
      <point x="351.8541666666667" y="791.125"/>
      <point x="440.1458333333333" y="912.0"/>
    </contour>
  </outline>
</glyph>
<glyph name="e" format="2">
  <advance width="1200.0"/>
  <unicode hex="0065"/>
  <anchor x="600.0" y="0.0" name="bottom"/>
  <anchor x="845.4375" y="0.0" name="ogonek"/>
  <anchor x="618.3125" y="1056.25" name="top"/>
  <outline>
    <contour>
      <point x="363.6875" y="456.25" type="curve"/>
      <point x="1064.1458333333333" y="456.25" type="line"/>
      <point x="1066.7083333333333" y="482.9791666666667"/>
      <point x="1068.7083333333333" y="520.3125"/>
      <point x="1068.7083333333333" y="556.3125" type="curve" smooth="yes"/>
      <point x="1068.7083333333333" y="884.4166666666666"/>
      <point x="894.3125" y="1083.5833333333333"/>
      <point x="614.3125" y="1083.5833333333333" type="curve" smooth="yes"/>
      <point x="313.8541666666667" y="1083.5833333333333"/>
      <point x="132.25" y="844.0"/>
      <point x="132.25" y="527.125" type="curve" smooth="yes"/>
      <point x="132.25" y="198.5625"/>
      <point x="311.5833333333333" y="-27.291666666666668"/>
      <point x="641.125" y="-27.291666666666668" type="curve" smooth="yes"/>
      <point x="790.9791666666666" y="-27.291666666666668"/>
      <point x="927.75" y="24.5625"/>
      <point x="1026.3125" y="105.29166666666667" type="curve"/>
      <point x="929.0208333333334" y="239.4375" type="line"/>
      <point x="839.75" y="179.6875"/>
      <point x="754.9791666666666" y="147.125"/>
      <point x="651.75" y="147.125" type="curve" smooth="yes"/>
      <point x="499.0208333333333" y="147.125"/>
      <point x="377.0208333333333" y="239.125"/>
    </contour>
    <contour>
      <point x="615.75" y="917.5833333333334" type="curve" smooth="yes"/>
      <point x="765.125" y="917.5833333333334"/>
      <point x="848.3125" y="807.4375"/>
      <point x="851.75" y="608.875" type="curve"/>
      <point x="362.5625" y="608.875" type="line"/>
      <point x="376.5625" y="820.4166666666666"/>
      <point x="475.4375" y="917.5833333333334"/>
    </contour>
  </outline>
</glyph>
<glyph name="f" format="2">
  <advance width="1200.0"/>
  <unicode hex="0066"/>
  <anchor x="527.2916666666666" y="0.0" name="bottom"/>
  <anchor x="740.0" y="1479.6875" name="top"/>
  <outline>
    <contour>
      <point x="820.3125" y="1505.0208333333333" type="curve" smooth="yes"/>
      <point x="575.4375" y="1505.0208333333333"/>
      <point x="415.2916666666667" y="1369.0208333333333"/>
      <point x="415.2916666666667" y="1169.125" type="curve" smooth="yes"/>
      <point x="415.2916666666667" y="980.1458333333334" type="line"/>
      <point x="174.5625" y="980.1458333333334" type="line"/>
      <point x="174.5625" y="815.2916666666666" type="line"/>
      <point x="415.2916666666667" y="815.2916666666666" type="line"/>
      <point x="415.2916666666667" y="0.0" type="line"/>
      <point x="638.25" y="0.0" type="line"/>
      <point x="638.25" y="815.2916666666666" type="line"/>
      <point x="966.9791666666666" y="815.2916666666666" type="line"/>
      <point x="991.4375" y="980.1458333333334" type="line"/>
      <point x="638.25" y="980.1458333333334" type="line"/>
      <point x="638.25" y="1166.7083333333333" type="line" smooth="yes"/>
      <point x="638.25" y="1279.8541666666667"/>
      <point x="703.5833333333334" y="1331.4375"/>
      <point x="842.0" y="1331.4375" type="curve" smooth="yes"/>
      <point x="920.875" y="1331.4375"/>
      <point x="998.875" y="1318.0"/>
      <point x="1068.5625" y="1288.5625" type="curve"/>
      <point x="1135.4375" y="1444.25" type="line"/>
      <point x="1048.1458333333333" y="1481.8541666666667"/>
      <point x="949.4375" y="1505.0208333333333"/>
    </contour>
  </outline>
</glyph>
<glyph name="g" format="2">
  <advance width="1200.0"/>
  <unicode hex="0067"/>
  <anchor x="600.0" y="-415.6875" name="bottom "/>
  <anchor x="592.4166666666666" y="1056.25" name="top"/>
  <outline>
    <contour>
      <point x="1066.7083333333333" y="1190.3125" type="line"/>
      <point x="941.5833333333334" y="1128.25"/>
      <point x="834.4166666666666" y="1081.8541666666667"/>
      <point x="579.6875" y="1083.0208333333333" type="curve" smooth="yes"/>
      <point x="320.4166666666667" y="1083.0208333333333"/>
      <point x="138.70833333333331" y="932.1458333333334"/>
      <point x="138.70833333333331" y="709.4375" type="curve" smooth="yes"/>
      <point x="138.70833333333331" y="572.875"/>
      <point x="194.14583333333331" y="480.3125"/>
      <point x="320.5625" y="413.5833333333333" type="curve"/>
      <point x="244.5625" y="364.1458333333333"/>
      <point x="203.4375" y="294.4166666666667"/>
      <point x="203.4375" y="223.125" type="curve" smooth="yes"/>
      <point x="203.4375" y="114.875"/>
      <point x="291.8541666666667" y="19.749999999999996"/>
      <point x="492.1458333333333" y="19.749999999999996" type="curve" smooth="yes"/>
      <point x="673.125" y="19.749999999999996" type="line" smooth="yes"/>
      <point x="797.8541666666666" y="19.749999999999996"/>
      <point x="878.875" y="-28.0"/>
      <point x="878.875" y="-114.0" type="curve" smooth="yes"/>
      <point x="878.875" y="-211.75"/>
      <point x="798.4166666666666" y="-267.5833333333333"/>
      <point x="578.25" y="-267.5833333333333" type="curve" smooth="yes"/>
      <point x="355.6875" y="-267.5833333333333"/>
      <point x="305.5833333333333" y="-216.5625"/>
      <point x="305.5833333333333" y="-104.875" type="curve"/>
      <point x="105.125" y="-104.875" type="line"/>
      <point x="105.125" y="-317.75"/>
      <point x="212.5625" y="-431.0208333333333"/>
      <point x="576.0" y="-431.0208333333333" type="curve" smooth="yes"/>
      <point x="917.0208333333334" y="-431.0208333333333"/>
      <point x="1103.75" y="-310.0"/>
      <point x="1103.75" y="-98.70833333333333" type="curve" smooth="yes"/>
      <point x="1103.75" y="68.70833333333334"/>
      <point x="944.3125" y="194.875"/>
      <point x="718.875" y="194.875" type="curve" smooth="yes"/>
      <point x="535.2916666666666" y="194.875" type="line" smooth="yes"/>
      <point x="428.9791666666667" y="194.875"/>
      <point x="403.4375" y="230.70833333333334"/>
      <point x="403.4375" y="274.25" type="curve" smooth="yes"/>
      <point x="403.4375" y="308.3125"/>
      <point x="422.1458333333333" y="342.4166666666667"/>
      <point x="450.4166666666667" y="361.125" type="curve"/>
      <point x="492.25" y="349.2916666666667"/>
      <point x="533.6875" y="343.8541666666667"/>
      <point x="594.9791666666666" y="343.8541666666667" type="curve" smooth="yes"/>
      <point x="853.6875" y="343.8541666666667"/>
      <point x="1011.4375" y="493.8541666666667"/>
      <point x="1011.4375" y="701.2916666666666" type="curve" smooth="yes"/>
      <point x="1011.4375" y="827.75"/>
      <point x="946.1458333333334" y="912.9791666666666"/>
      <point x="819.8541666666666" y="969.0208333333334" type="curve"/>
      <point x="943.75" y="969.0208333333334"/>
      <point x="1042.7083333333333" y="975.75"/>
      <point x="1127.2916666666667" y="1004.3125" type="curve"/>
    </contour>
    <contour>
      <point x="582.4166666666666" y="929.2916666666666" type="curve" smooth="yes"/>
      <point x="719.125" y="929.2916666666666"/>
      <point x="788.9791666666666" y="856.5625"/>
      <point x="788.9791666666666" y="713.125" type="curve" smooth="yes"/>
      <point x="788.9791666666666" y="570.0"/>
      <point x="717.125" y="489.75"/>
      <point x="585.2916666666666" y="489.75" type="curve" smooth="yes"/>
      <point x="441.2916666666667" y="489.75"/>
      <point x="366.70833333333337" y="577.75"/>
      <point x="366.70833333333337" y="710.5625" type="curve" smooth="yes"/>
      <point x="366.70833333333337" y="840.25"/>
      <point x="439.2916666666667" y="929.2916666666666"/>
    </contour>
  </outline>
</glyph>
<glyph name="h" format="2">
  <advance width="1200.0"/>
  <unicode hex="0068"/>
  <anchor x="600.0" y="0.0" name="bottom"/>
  <anchor x="600.0" y="529.125" name="center"/>
  <anchor x="600.0" y="1479.6875" name="top"/>
  <outline>
    <contour>
      <point x="401.8541666666667" y="1501.5833333333333" type="line"/>
      <point x="177.85416666666666" y="1478.25" type="line"/>
      <point x="177.85416666666666" y="0.0" type="line"/>
      <point x="401.8541666666667" y="0.0" type="line"/>
      <point x="401.8541666666667" y="755.125" type="line"/>
      <point x="458.9791666666667" y="836.5625"/>
      <point x="547.6875" y="912.875"/>
      <point x="647.75" y="912.875" type="curve" smooth="yes"/>
      <point x="754.9791666666666" y="912.875"/>
      <point x="799.5833333333334" y="861.6875"/>
      <point x="799.5833333333334" y="735.125" type="curve" smooth="yes"/>
      <point x="799.5833333333334" y="0.0" type="line"/>
      <point x="1023.5833333333334" y="0.0" type="line"/>
      <point x="1023.5833333333334" y="770.4166666666666" type="line" smooth="yes"/>
      <point x="1023.5833333333334" y="967.5833333333334"/>
      <point x="928.25" y="1083.5833333333333"/>
      <point x="728.7083333333334" y="1083.5833333333333" type="curve" smooth="yes"/>
      <point x="606.875" y="1083.5833333333333"/>
      <point x="487.0208333333333" y="1030.875"/>
      <point x="401.8541666666667" y="927.2916666666666" type="curve"/>
    </contour>
  </outline>
</glyph>
<glyph name="i" format="2">
  <advance width="1200.0"/>
  <unicode hex="0069"/>
  <anchor x="600.0" y="0.0" name="bottom"/>
  <outline>
    <contour>
      <point x="754.9791666666666" y="1056.25" type="line"/>
      <point x="225.125" y="1056.25" type="line"/>
      <point x="225.125" y="892.0" type="line"/>
      <point x="530.9791666666666" y="892.0" type="line"/>
      <point x="530.9791666666666" y="164.25" type="line"/>
      <point x="215.125" y="164.25" type="line"/>
      <point x="215.125" y="0.0" type="line"/>
      <point x="1041.75" y="0.0" type="line"/>
      <point x="1041.75" y="164.25" type="line"/>
      <point x="754.9791666666666" y="164.25" type="line"/>
    </contour>
    <contour>
      <point x="599.4375" y="1573.4375" type="curve" smooth="yes"/>
      <point x="512.875" y="1573.4375"/>
      <point x="453.125" y="1512.25"/>
      <point x="453.125" y="1433.2916666666667" type="curve" smooth="yes"/>
      <point x="453.125" y="1352.4166666666667"/>
      <point x="512.875" y="1290.7083333333333"/>
      <point x="599.4375" y="1290.7083333333333" type="curve" smooth="yes"/>
      <point x="686.875" y="1290.7083333333333"/>
      <point x="746.1458333333334" y="1352.4166666666667"/>
      <point x="746.1458333333334" y="1433.2916666666667" type="curve" smooth="yes"/>
      <point x="746.1458333333334" y="1512.25"/>
      <point x="686.875" y="1573.4375"/>
    </contour>
  </outline>
</glyph>
<glyph name="j" format="2">
  <advance width="1200.0"/>
  <unicode hex="006A"/>
  <anchor x="600.0" y="-415.6875" name="bottom "/>
  <anchor x="737.125" y="1056.25" name="top"/>
  <outline>
    <contour>
      <point x="910.9791666666666" y="1056.25" type="line"/>
      <point x="270.0" y="1056.25" type="line"/>
      <point x="270.0" y="892.0" type="line"/>
      <point x="686.9791666666666" y="892.0" type="line"/>
      <point x="686.9791666666666" y="207.02083333333334" type="line" smooth="yes"/>
      <point x="686.9791666666666" y="-85.6875"/>
      <point x="486.875" y="-199.4375"/>
      <point x="171.58333333333331" y="-259.0208333333333" type="curve"/>
      <point x="207.6875" y="-431.0208333333333" type="line"/>
      <point x="659.125" y="-350.3125"/>
      <point x="910.9791666666666" y="-171.6875"/>
      <point x="910.9791666666666" y="221.75" type="curve" smooth="yes"/>
    </contour>
    <contour>
      <point x="735.6875" y="1573.4375" type="curve" smooth="yes"/>
      <point x="649.125" y="1573.4375"/>
      <point x="589.8541666666666" y="1512.25"/>
      <point x="589.8541666666666" y="1433.2916666666667" type="curve" smooth="yes"/>
      <point x="589.8541666666666" y="1352.4166666666667"/>
      <point x="649.125" y="1290.7083333333333"/>
      <point x="735.6875" y="1290.7083333333333" type="curve" smooth="yes"/>
      <point x="823.125" y="1290.7083333333333"/>
      <point x="882.875" y="1352.4166666666667"/>
      <point x="882.875" y="1433.2916666666667" type="curve" smooth="yes"/>
      <point x="882.875" y="1512.25"/>
      <point x="823.125" y="1573.4375"/>
    </contour>
  </outline>
</glyph>
<glyph name="k" format="2">
  <advance width="1200.0"/>
  <unicode hex="006B"/>
  <anchor x="606.7083333333334" y="0.0" name="bottom"/>
  <anchor x="600.0" y="1479.6875" name="top"/>
  <outline>
    <contour>
      <point x="1107.75" y="1056.25" type="line"/>
      <point x="846.7083333333334" y="1056.25" type="line"/>
      <point x="424.875" y="577.6875" type="line"/>
      <point x="879.2916666666666" y="0.0" type="line"/>
      <point x="1152.5625" y="0.0" type="line"/>
      <point x="681.125" y="583.8541666666666" type="line"/>
    </contour>
    <contour>
      <point x="408.5625" y="1505.0208333333333" type="line"/>
      <point x="184.5625" y="1479.6875" type="line"/>
      <point x="184.5625" y="0.0" type="line"/>
      <point x="408.5625" y="0.0" type="line"/>
    </contour>
  </outline>
</glyph>
<glyph name="l" format="2">
  <advance width="1200.0"/>
  <unicode hex="006C"/>
  <anchor x="716.7083333333334" y="0.0" name="bottom"/>
  <anchor x="1126.4166666666667" y="766.0" name="center"/>
  <anchor x="523.0208333333334" y="1479.6875" name="top"/>
  <anchor x="716.1458333333334" y="1479.6875" name="topright"/>
  <outline>
    <contour>
      <point x="642.25" y="1479.6875" type="line"/>
      <point x="99.02083333333333" y="1479.6875" type="line"/>
      <point x="99.02083333333333" y="1315.4375" type="line"/>
      <point x="418.25" y="1315.4375" type="line"/>
      <point x="418.25" y="308.3125" type="line" smooth="yes"/>
      <point x="418.25" y="100.5625"/>
      <point x="541.4375" y="-27.291666666666668"/>
      <point x="754.3125" y="-27.291666666666668" type="curve" smooth="yes"/>
      <point x="871.5833333333334" y="-27.291666666666668"/>
      <point x="963.4375" y="0.875"/>
      <point x="1025.8541666666667" y="33.125" type="curve"/>
      <point x="969.0208333333334" y="189.02083333333334" type="line"/>
      <point x="916.875" y="168.14583333333334"/>
      <point x="862.0" y="154.14583333333334"/>
      <point x="802.25" y="154.14583333333334" type="curve" smooth="yes"/>
      <point x="706.7083333333334" y="154.14583333333334"/>
      <point x="642.25" y="190.97916666666669"/>
      <point x="642.25" y="288.0" type="curve" smooth="yes"/>
    </contour>
  </outline>
</glyph>
<glyph name="m" format="2">
  <advance width="1200.0"/>
  <unicode hex="006D"/>
  <anchor x="600.0" y="0.0" name="bottom"/>
  <anchor x="600.0" y="1056.25" name="top"/>
  <outline>
    <contour>
      <point x="906.3125" y="1083.5833333333333" type="curve" smooth="yes"/>
      <point x="803.6875" y="1083.5833333333333"/>
      <point x="733.4375" y="1028.7083333333333"/>
      <point x="673.75" y="949.4375" type="curve"/>
      <point x="644.0" y="1049.8541666666667"/>
      <point x="573.0208333333334" y="1083.5833333333333"/>
      <point x="493.0208333333333" y="1083.5833333333333" type="curve" smooth="yes"/>
      <point x="392.3125" y="1083.5833333333333"/>
      <point x="327.4375" y="1026.0"/>
      <point x="266.7083333333333" y="941.75" type="curve"/>
      <point x="252.41666666666669" y="1056.25" type="line"/>
      <point x="82.70833333333333" y="1056.25" type="line"/>
      <point x="82.70833333333333" y="0.0" type="line"/>
      <point x="283.4375" y="0.0" type="line"/>
      <point x="283.4375" y="804.5625" type="line"/>
      <point x="335.0208333333333" y="880.5625"/>
      <point x="386.3125" y="909.0208333333334"/>
      <point x="439.4375" y="909.0208333333334" type="curve" smooth="yes"/>
      <point x="502.5625" y="909.0208333333334"/>
      <point x="509.6875" y="864.25"/>
      <point x="509.6875" y="754.3125" type="curve" smooth="yes"/>
      <point x="509.6875" y="0.0" type="line"/>
      <point x="691.4375" y="0.0" type="line"/>
      <point x="691.4375" y="804.5625" type="line"/>
      <point x="743.0208333333334" y="880.5625"/>
      <point x="795.75" y="909.0208333333334"/>
      <point x="847.4375" y="909.0208333333334" type="curve" smooth="yes"/>
      <point x="910.5625" y="909.0208333333334"/>
      <point x="917.6875" y="864.25"/>
      <point x="917.6875" y="754.3125" type="curve" smooth="yes"/>
      <point x="917.6875" y="0.0" type="line"/>
      <point x="1117.2916666666667" y="0.0" type="line"/>
      <point x="1117.2916666666667" y="784.5625" type="line" smooth="yes"/>
      <point x="1117.2916666666667" y="1018.4166666666666"/>
      <point x="1025.6875" y="1083.5833333333333"/>
    </contour>
  </outline>
</glyph>
<glyph name="n" format="2">
  <advance width="1200.0"/>
  <unicode hex="006E"/>
  <anchor x="602.0" y="0.0" name="bottom"/>
  <anchor x="600.5625" y="1056.25" name="top"/>
  <outline>
    <contour>
      <point x="177.85416666666666" y="0.0" type="line"/>
      <point x="401.8541666666667" y="0.0" type="line"/>
      <point x="401.8541666666667" y="757.8541666666666" type="line"/>
      <point x="458.9791666666667" y="837.6875"/>
      <point x="546.25" y="912.875"/>
      <point x="648.7083333333334" y="912.875" type="curve" smooth="yes"/>
      <point x="777.0208333333334" y="912.875"/>
      <point x="799.5833333333334" y="842.0"/>
      <point x="799.5833333333334" y="659.2916666666666" type="curve" smooth="yes"/>
      <point x="799.5833333333334" y="0.0" type="line"/>
      <point x="1023.5833333333334" y="0.0" type="line"/>
      <point x="1023.5833333333334" y="770.4166666666666" type="line" smooth="yes"/>
      <point x="1023.5833333333334" y="967.5833333333334"/>
      <point x="926.0" y="1083.5833333333333"/>
      <point x="728.7083333333334" y="1083.5833333333333" type="curve" smooth="yes"/>
      <point x="601.8541666666666" y="1083.5833333333333"/>
      <point x="476.4166666666667" y="1026.3125"/>
      <point x="387.6875" y="918.875" type="curve"/>
      <point x="371.4375" y="1056.25" type="line"/>
      <point x="177.85416666666666" y="1056.25" type="line"/>
    </contour>
  </outline>
</glyph>
<glyph name="o" format="2">
  <advance width="1200.0"/>
  <unicode hex="006F"/>
  <anchor x="600.0" y="0.0" name="bottom"/>
  <anchor x="600.0" y="1056.25" name="top"/>
  <outline>
    <contour>
      <point x="601.4375" y="1083.5833333333333" type="curve" smooth="yes"/>
      <point x="293.6875" y="1083.5833333333333"/>
      <point x="123.29166666666666" y="857.0208333333334"/>
      <point x="123.29166666666666" y="527.6875" type="curve" smooth="yes"/>
      <point x="123.29166666666666" y="186.97916666666666"/>
      <point x="292.25" y="-27.291666666666668"/>
      <point x="600.0" y="-27.291666666666668" type="curve" smooth="yes"/>
      <point x="906.3125" y="-27.291666666666668"/>
      <point x="1076.7083333333333" y="195.29166666666666"/>
      <point x="1076.7083333333333" y="529.6875" type="curve" smooth="yes"/>
      <point x="1076.7083333333333" y="865.8541666666666"/>
      <point x="909.75" y="1083.5833333333333"/>
    </contour>
    <contour>
      <point x="601.4375" y="910.0" type="curve" smooth="yes"/>
      <point x="761.5833333333334" y="910.0"/>
      <point x="841.75" y="790.3125"/>
      <point x="841.75" y="529.6875" type="curve" smooth="yes"/>
      <point x="841.75" y="265.8541666666667"/>
      <point x="761.5833333333334" y="146.25"/>
      <point x="600.0" y="146.25" type="curve" smooth="yes"/>
      <point x="438.4166666666667" y="146.25"/>
      <point x="358.25" y="265.8541666666667"/>
      <point x="358.25" y="527.6875" type="curve" smooth="yes"/>
      <point x="358.25" y="790.3125"/>
      <point x="439.8541666666667" y="910.0"/>
    </contour>
  </outline>
</glyph>
<glyph name="p" format="2">
  <advance width="1200.0"/>
  <unicode hex="0070"/>
  <anchor x="600.0" y="0.0" name="bottom"/>
  <anchor x="600.0" y="-415.6875" name="bottom "/>
  <anchor x="600.0" y="1056.25" name="top"/>
  <outline>
    <contour>
      <point x="693.0208333333334" y="1083.5833333333333" type="curve" smooth="yes"/>
      <point x="576.25" y="1083.5833333333333"/>
      <point x="467.2916666666667" y="1028.5625"/>
      <point x="386.5625" y="920.0" type="curve"/>
      <point x="372.5625" y="1056.25" type="line"/>
      <point x="177.85416666666666" y="1056.25" type="line"/>
      <point x="177.85416666666666" y="-431.0208333333333" type="line"/>
      <point x="401.8541666666667" y="-405.6875" type="line"/>
      <point x="401.8541666666667" y="90.41666666666667" type="line"/>
      <point x="469.6875" y="12.145833333333332"/>
      <point x="559.4375" y="-27.291666666666668"/>
      <point x="670.1458333333334" y="-27.291666666666668" type="curve" smooth="yes"/>
      <point x="938.25" y="-27.291666666666668"/>
      <point x="1076.7083333333333" y="207.4375"/>
      <point x="1076.7083333333333" y="529.6875" type="curve" smooth="yes"/>
      <point x="1076.7083333333333" y="865.5833333333334"/>
      <point x="972.4166666666666" y="1083.5833333333333"/>
    </contour>
    <contour>
      <point x="631.4375" y="911.4375" type="curve" smooth="yes"/>
      <point x="771.6875" y="911.4375"/>
      <point x="841.75" y="799.75"/>
      <point x="841.75" y="528.5625" type="curve" smooth="yes"/>
      <point x="841.75" y="263.6875"/>
      <point x="761.8541666666666" y="147.6875"/>
      <point x="610.5625" y="147.6875" type="curve" smooth="yes"/>
      <point x="523.4375" y="147.6875"/>
      <point x="452.5625" y="190.14583333333334"/>
      <point x="401.8541666666667" y="265.6875" type="curve"/>
      <point x="401.8541666666667" y="759.6875" type="line"/>
      <point x="454.5625" y="841.4375"/>
      <point x="531.125" y="911.4375"/>
    </contour>
  </outline>
</glyph>
<glyph name="q" format="2">
  <advance width="1200.0"/>
  <unicode hex="0071"/>
  <anchor x="600.0" y="0.0" name="bottom"/>
  <anchor x="600.0" y="-415.6875" name="bottom "/>
  <anchor x="600.0" y="1056.25" name="top"/>
  <outline>
    <contour>
      <point x="533.4375" y="1083.5833333333333" type="curve" smooth="yes"/>
      <point x="268.1458333333333" y="1083.5833333333333"/>
      <point x="123.29166666666666" y="849.0208333333334"/>
      <point x="123.29166666666666" y="528.25" type="curve" smooth="yes"/>
      <point x="123.29166666666666" y="192.875"/>
      <point x="231.58333333333331" y="-27.291666666666668"/>
      <point x="511.2916666666667" y="-27.291666666666668" type="curve" smooth="yes"/>
      <point x="629.5833333333334" y="-27.291666666666668"/>
      <point x="726.5625" y="21.75"/>
      <point x="798.1458333333334" y="116.3125" type="curve"/>
      <point x="798.1458333333334" y="-405.6875" type="line"/>
      <point x="1022.1458333333334" y="-431.0208333333333" type="line"/>
      <point x="1022.1458333333334" y="1056.25" type="line"/>
      <point x="828.5625" y="1056.25" type="line"/>
      <point x="814.5625" y="952.5625" type="line"/>
      <point x="746.25" y="1037.75"/>
      <point x="651.8541666666666" y="1083.5833333333333"/>
    </contour>
    <contour>
      <point x="590.5625" y="912.0" type="curve" smooth="yes"/>
      <point x="677.125" y="912.0"/>
      <point x="748.0" y="868.9791666666666"/>
      <point x="798.1458333333334" y="795.2916666666666" type="curve"/>
      <point x="798.1458333333334" y="295.125" type="line"/>
      <point x="746.0" y="212.41666666666669"/>
      <point x="670.875" y="148.25"/>
      <point x="570.5625" y="148.25" type="curve" smooth="yes"/>
      <point x="432.3125" y="148.25"/>
      <point x="358.25" y="258.9791666666667"/>
      <point x="358.25" y="527.6875" type="curve" smooth="yes"/>
      <point x="358.25" y="791.125"/>
      <point x="438.1458333333333" y="912.0"/>
    </contour>
  </outline>
</glyph>
<glyph name="s" format="2">
  <advance width="1200.0"/>
  <unicode hex="0073"/>
  <anchor x="596.25" y="0.0" name="bottom"/>
  <anchor x="619.2916666666666" y="1056.25" name="top"/>
  <outline>
    <contour>
      <point x="561.6875" y="144.5625" type="curve" smooth="yes"/>
      <point x="437.6875" y="144.5625"/>
      <point x="329.2916666666667" y="191.125"/>
      <point x="247.29166666666666" y="258.0" type="curve"/>
      <point x="127.58333333333333" y="121.6875" type="line"/>
      <point x="225.125" y="36.708333333333336"/>
      <point x="366.3125" y="-27.291666666666668"/>
      <point x="562.25" y="-27.291666666666668" type="curve" smooth="yes"/>
      <point x="804.9791666666666" y="-27.291666666666668"/>
      <point x="1028.3125" y="72.97916666666667"/>
      <point x="1028.3125" y="300.7083333333333" type="curve" smooth="yes"/>
      <point x="1028.3125" y="502.0"/>
      <point x="892.875" y="573.4375"/>
      <point x="686.875" y="630.0" type="curve" smooth="yes"/>
      <point x="476.0" y="688.5625"/>
      <point x="418.14583333333337" y="717.75"/>
      <point x="418.14583333333337" y="796.7083333333334" type="curve" smooth="yes"/>
      <point x="418.14583333333337" y="868.0"/>
      <point x="475.2916666666667" y="913.6875"/>
      <point x="617.5833333333334" y="913.6875" type="curve" smooth="yes"/>
      <point x="740.7083333333334" y="913.6875"/>
      <point x="836.5625" y="875.2916666666666"/>
      <point x="919.2916666666666" y="821.2916666666666" type="curve"/>
      <point x="1012.7083333333334" y="962.25" type="line"/>
      <point x="919.2916666666666" y="1031.0208333333333"/>
      <point x="789.4375" y="1083.5833333333333"/>
      <point x="612.4166666666666" y="1083.5833333333333" type="curve" smooth="yes"/>
      <point x="351.75" y="1083.5833333333333"/>
      <point x="189.75" y="962.3125"/>
      <point x="189.75" y="780.9791666666666" type="curve" smooth="yes"/>
      <point x="189.75" y="595.8541666666666"/>
      <point x="327.5833333333333" y="522.3125"/>
      <point x="537.4375" y="468.875" type="curve" smooth="yes"/>
      <point x="756.1458333333334" y="412.3125"/>
      <point x="790.875" y="371.0208333333333"/>
      <point x="790.875" y="286.25" type="curve" smooth="yes"/>
      <point x="790.875" y="197.6875"/>
      <point x="702.1458333333334" y="144.5625"/>
    </contour>
  </outline>
</glyph>
<glyph name="t" format="2">
  <advance width="1200.0"/>
  <unicode hex="0074"/>
  <anchor x="734.4166666666666" y="0.0" name="bottom"/>
  <anchor x="600.0" y="529.125" name="center"/>
  <anchor x="489.2916666666667" y="1304.0" name="top"/>
  <anchor x="676.4166666666666" y="1549.125" name="topright"/>
  <outline>
    <contour>
      <point x="1059.5833333333333" y="56.25" type="curve"/>
      <point x="979.0208333333334" y="203.58333333333334" type="line"/>
      <point x="924.7083333333334" y="174.14583333333334"/>
      <point x="860.3125" y="154.14583333333334"/>
      <point x="783.4375" y="154.14583333333334" type="curve" smooth="yes"/>
      <point x="654.0" y="154.14583333333334"/>
      <point x="601.2916666666666" y="208.5625"/>
      <point x="601.2916666666666" y="321.75" type="curve" smooth="yes"/>
      <point x="601.2916666666666" y="892.875" type="line"/>
      <point x="932.4166666666666" y="892.875" type="line"/>
      <point x="956.7083333333334" y="1056.25" type="line"/>
      <point x="601.2916666666666" y="1056.25" type="line"/>
      <point x="601.2916666666666" y="1318.9791666666667" type="line"/>
      <point x="377.2916666666667" y="1292.0" type="line"/>
      <point x="377.2916666666667" y="1056.25" type="line"/>
      <point x="142.3125" y="1056.25" type="line"/>
      <point x="142.3125" y="892.875" type="line"/>
      <point x="377.2916666666667" y="892.875" type="line"/>
      <point x="377.2916666666667" y="320.3125" type="line" smooth="yes"/>
      <point x="377.2916666666667" y="112.25"/>
      <point x="506.4166666666667" y="-27.291666666666668"/>
      <point x="752.3125" y="-27.291666666666668" type="curve" smooth="yes"/>
      <point x="869.125" y="-27.291666666666668"/>
      <point x="983.2916666666666" y="6.5625"/>
    </contour>
  </outline>
</glyph>
<glyph name="u" format="2">
  <advance width="1200.0"/>
  <unicode hex="0075"/>
  <anchor x="1042.1458333333333" y="0.0" name="ogonek"/>
  <anchor x="600.0" y="1056.25" name="top"/>
  <outline>
    <contour>
      <point x="401.8541666666667" y="1056.25" type="line"/>
      <point x="177.85416666666666" y="1056.25" type="line"/>
      <point x="177.85416666666666" y="290.25" type="line" smooth="yes"/>
      <point x="177.85416666666666" y="92.5625"/>
      <point x="277.2916666666667" y="-27.291666666666668"/>
      <point x="481.8541666666667" y="-27.291666666666668" type="curve" smooth="yes"/>
      <point x="606.9791666666666" y="-27.291666666666668"/>
      <point x="735.8541666666666" y="29.583333333333332"/>
      <point x="814.5625" y="135.02083333333334" type="curve"/>
      <point x="828.5625" y="0.0" type="line"/>
      <point x="1022.1458333333334" y="0.0" type="line"/>
      <point x="1022.1458333333334" y="1056.25" type="line"/>
      <point x="798.1458333333334" y="1056.25" type="line"/>
      <point x="798.1458333333334" y="292.0" type="line"/>
      <point x="746.0" y="209.02083333333334"/>
      <point x="649.125" y="144.41666666666669"/>
      <point x="552.9791666666666" y="144.41666666666669" type="curve" smooth="yes"/>
      <point x="451.4375" y="144.41666666666669"/>
      <point x="401.8541666666667" y="192.70833333333334"/>
      <point x="401.8541666666667" y="317.75" type="curve" smooth="yes"/>
    </contour>
  </outline>
</glyph>
<glyph name="v" format="2">
  <advance width="1200.0"/>
  <unicode hex="0076"/>
  <anchor x="600.0" y="0.0" name="bottom"/>
  <anchor x="600.0" y="1056.25" name="top"/>
  <outline>
    <contour>
      <point x="1102.7083333333333" y="1056.25" type="line"/>
      <point x="873.75" y="1056.25" type="line"/>
      <point x="604.5625" y="186.41666666666669" type="line"/>
      <point x="336.70833333333337" y="1056.25" type="line"/>
      <point x="97.29166666666666" y="1056.25" type="line"/>
      <point x="468.7083333333333" y="0.0" type="line"/>
      <point x="730.9791666666666" y="0.0" type="line"/>
    </contour>
  </outline>
</glyph>
<glyph name="w" format="2">
  <advance width="1200.0"/>
  <unicode hex="0077"/>
  <anchor x="600.0" y="0.0" name="bottom"/>
  <anchor x="600.0" y="1056.25" name="top"/>
  <outline>
    <contour>
      <point x="1004.1458333333334" y="0.0" type="line"/>
      <point x="1175.75" y="1056.25" type="line"/>
      <point x="968.1458333333334" y="1056.25" type="line"/>
      <point x="857.8541666666666" y="139.02083333333334" type="line"/>
      <point x="721.4375" y="922.25" type="line"/>
      <point x="497.125" y="922.25" type="line"/>
      <point x="350.1458333333333" y="139.02083333333334" type="line"/>
      <point x="240.41666666666669" y="1056.25" type="line"/>
      <point x="24.25" y="1056.25" type="line"/>
      <point x="203.29166666666666" y="0.0" type="line"/>
      <point x="477.2916666666667" y="0.0" type="line"/>
      <point x="604.875" y="750.4166666666666" type="line"/>
      <point x="724.1458333333334" y="0.0" type="line"/>
    </contour>
  </outline>
</glyph>
<glyph name="x" format="2">
  <advance width="1200.0"/>
  <unicode hex="0078"/>
  <anchor x="600.0" y="0.0" name="bottom"/>
  <anchor x="1001.0208333333334" y="0.0" name="bottomright"/>
  <anchor x="600.0" y="1056.25" name="top"/>
  <outline>
    <contour>
      <point x="334.25" y="0.0" type="line"/>
      <point x="592.3125" y="431.0208333333333" type="line"/>
      <point x="850.7083333333334" y="0.0" type="line"/>
      <point x="1114.3125" y="0.0" type="line"/>
      <point x="734.4166666666666" y="565.6875" type="line"/>
      <point x="1064.1458333333333" y="1056.25" type="line"/>
      <point x="817.75" y="1056.25" type="line"/>
      <point x="602.0" y="684.1458333333334" type="line"/>
      <point x="386.0" y="1056.25" type="line"/>
      <point x="128.3125" y="1056.25" type="line"/>
      <point x="465.0208333333333" y="556.5625" type="line"/>
      <point x="85.6875" y="0.0" type="line"/>
    </contour>
  </outline>
</glyph>
<glyph name="y" format="2">
  <advance width="1200.0"/>
  <unicode hex="0079"/>
  <anchor x="600.0" y="-415.6875" name="bottom "/>
  <anchor x="600.0" y="1056.25" name="top"/>
  <outline>
    <contour>
      <point x="1102.3125" y="1056.25" type="line"/>
      <point x="871.75" y="1056.25" type="line"/>
      <point x="601.75" y="156.0" type="line"/>
      <point x="335.8541666666667" y="1056.25" type="line"/>
      <point x="97.6875" y="1056.25" type="line"/>
      <point x="453.85416666666663" y="0.0" type="line"/>
      <point x="529.75" y="0.0" type="line"/>
      <point x="472.7083333333333" y="-153.29166666666666"/>
      <point x="405.8541666666667" y="-230.97916666666666"/>
      <point x="191.58333333333331" y="-263.6875" type="curve"/>
      <point x="220.875" y="-431.5833333333333" type="line"/>
      <point x="516.5625" y="-406.875"/>
      <point x="656.7083333333334" y="-244.14583333333334"/>
      <point x="738.25" y="-4.3125" type="curve" smooth="yes"/>
    </contour>
  </outline>
</glyph>
<glyph name="z" format="2">
  <advance width="1200.0"/>
  <unicode hex="007A"/>
  <anchor x="600.0" y="0.0" name="bottom"/>
  <anchor x="618.3125" y="1056.25" name="top"/>
  <outline>
    <contour>
      <point x="450.875" y="179.58333333333334" type="line"/>
      <point x="1009.2916666666666" y="891.75" type="line"/>
      <point x="1009.2916666666666" y="1056.25" type="line"/>
      <point x="227.29166666666666" y="1056.25" type="line"/>
      <point x="227.29166666666666" y="875.75" type="line"/>
      <point x="744.3125" y="875.75" type="line"/>
      <point x="181.85416666666666" y="163.58333333333334" type="line"/>
      <point x="181.85416666666666" y="0.0" type="line"/>
      <point x="991.6875" y="0.0" type="line"/>
      <point x="1016.4166666666666" y="179.58333333333334" type="line"/>
    </contour>
  </outline>
</glyph>
<glyph name="braceleft" format="2">
  <advance width="1200.0"/>
  <unicode hex="007B"/>
  <outline>
    <contour>
      <point x="914.3125" y="1674.25" type="line"/>
      <point x="635.4375" y="1674.25"/>
      <point x="453.2708333333333" y="1596.4166666666667"/>
      <point x="480.875" y="1340.1458333333333" type="curve" smooth="yes"/>
      <point x="517.5833333333334" y="995.2916666666666" type="line" smooth="yes"/>
      <point x="532.625" y="852.875"/>
      <point x="456.1458333333333" y="790.1458333333334"/>
      <point x="225.85416666666666" y="790.1458333333334" type="curve"/>
      <point x="225.85416666666666" y="609.8541666666666" type="line"/>
      <point x="456.7083333333333" y="609.8541666666666"/>
      <point x="532.625" y="545.6875"/>
      <point x="517.5833333333334" y="403.75" type="curve" smooth="yes"/>
      <point x="480.875" y="59.29166666666667" type="line" smooth="yes"/>
      <point x="453.8333333333333" y="-195.85416666666666"/>
      <point x="635.4375" y="-274.25"/>
      <point x="914.3125" y="-274.25" type="curve"/>
      <point x="914.3125" y="-108.875" type="line"/>
      <point x="777.0208333333334" y="-108.875"/>
      <point x="676.1458333333334" y="-77.125"/>
      <point x="687.5833333333334" y="38.25" type="curve" smooth="yes"/>
      <point x="725.2916666666666" y="405.125" type="line" smooth="yes"/>
      <point x="745.4583333333334" y="600.9791666666666"/>
      <point x="659.4375" y="672.3125"/>
      <point x="491.4375" y="700.0" type="curve"/>
      <point x="652.7083333333334" y="727.125"/>
      <point x="744.9791666666666" y="805.8541666666666"/>
      <point x="725.2916666666666" y="994.875" type="curve" smooth="yes"/>
      <point x="687.5833333333334" y="1361.75" type="line" smooth="yes"/>
      <point x="676.1458333333334" y="1475.6875"/>
      <point x="776.9791666666666" y="1508.875"/>
      <point x="914.3125" y="1508.875" type="curve"/>
    </contour>
  </outline>
</glyph>
<glyph name="braceright" format="2">
  <advance width="1200.0"/>
  <unicode hex="007D"/>
  <outline>
    <contour>
      <point x="285.6875" y="1674.25" type="curve"/>
      <point x="285.6875" y="1508.875" type="line"/>
      <point x="422.9791666666667" y="1508.875"/>
      <point x="523.8541666666666" y="1475.6875"/>
      <point x="512.4166666666666" y="1361.75" type="curve" smooth="yes"/>
      <point x="474.7083333333333" y="994.875" type="line" smooth="yes"/>
      <point x="455.0208333333333" y="805.2916666666666"/>
      <point x="543.4375" y="727.6875"/>
      <point x="722.9791666666666" y="698.5625" type="curve"/>
      <point x="544.4166666666666" y="672.875"/>
      <point x="454.5416666666667" y="600.4166666666666"/>
      <point x="474.7083333333333" y="405.125" type="curve" smooth="yes"/>
      <point x="512.4166666666666" y="38.25" type="line" smooth="yes"/>
      <point x="523.8541666666666" y="-77.125"/>
      <point x="423.0208333333333" y="-108.875"/>
      <point x="285.6875" y="-108.875" type="curve"/>
      <point x="285.6875" y="-274.25" type="line"/>
      <point x="564.5625" y="-274.25"/>
      <point x="746.7291666666666" y="-196.41666666666666"/>
      <point x="719.125" y="59.85416666666667" type="curve" smooth="yes"/>
      <point x="682.4166666666666" y="403.75" type="line" smooth="yes"/>
      <point x="667.375" y="545.6875"/>
      <point x="757.75" y="609.8541666666666"/>
      <point x="974.1458333333334" y="609.8541666666666" type="curve"/>
      <point x="974.1458333333334" y="790.1458333333334" type="line"/>
      <point x="756.7083333333334" y="790.1458333333334"/>
      <point x="667.375" y="852.875"/>
      <point x="682.4166666666666" y="995.2916666666666" type="curve" smooth="yes"/>
      <point x="719.125" y="1340.7083333333333" type="line" smooth="yes"/>
      <point x="746.1666666666666" y="1595.8541666666667"/>
      <point x="564.5625" y="1674.25"/>
    </contour>
  </outline>
</glyph>
<glyph name="asciitilde" format="2">
  <advance width="1200.0"/>
  <unicode hex="007E"/>
  <outline>
    <contour>
      <point x="408.875" y="823.5833333333334" type="curve" smooth="yes"/>
      <point x="230.3125" y="823.5833333333334"/>
      <point x="138.41666666666666" y="681.2916666666666"/>
      <point x="70.3125" y="545.4375" type="curve"/>
      <point x="211.85416666666666" y="478.4166666666667" type="line"/>
      <point x="263.8541666666667" y="574.4166666666666"/>
      <point x="318.5625" y="642.5625"/>
      <point x="402.3125" y="642.5625" type="curve" smooth="yes"/>
      <point x="526.1458333333334" y="642.5625"/>
      <point x="602.0" y="442.5625"/>
      <point x="791.125" y="442.5625" type="curve" smooth="yes"/>
      <point x="967.6875" y="442.5625"/>
      <point x="1060.9791666666667" y="578.3125"/>
      <point x="1129.6875" y="719.75" type="curve"/>
      <point x="988.1458333333334" y="788.25" type="line"/>
      <point x="935.5833333333334" y="690.5625"/>
      <point x="878.0" y="623.5833333333334"/>
      <point x="797.6875" y="623.5833333333334" type="curve" smooth="yes"/>
      <point x="676.25" y="623.5833333333334"/>
      <point x="607.75" y="823.5833333333334"/>
    </contour>
  </outline>
</glyph>
<glyph name="exclamdown" format="2">
  <advance width="1200.0"/>
  <unicode hex="00A1"/>
  <outline>
    <contour>
      <point x="691.0208333333334" y="504.875" type="line"/>
      <point x="505.5833333333333" y="504.875" type="line"/>
      <point x="475.125" y="-400.4166666666667" type="line"/>
      <point x="724.0" y="-400.4166666666667" type="line"/>
    </contour>
    <contour>
      <point x="598.5625" y="1006.7083333333334" type="curve" smooth="yes"/>
      <point x="514.4166666666666" y="1006.7083333333334"/>
      <point x="447.75" y="938.5625"/>
      <point x="447.75" y="854.4166666666666" type="curve" smooth="yes"/>
      <point x="447.75" y="771.75"/>
      <point x="514.4166666666666" y="703.6875"/>
      <point x="598.5625" y="703.6875" type="curve" smooth="yes"/>
      <point x="683.75" y="703.6875"/>
      <point x="751.2916666666666" y="771.75"/>
      <point x="751.2916666666666" y="854.4166666666666" type="curve" smooth="yes"/>
      <point x="751.2916666666666" y="938.5625"/>
      <point x="683.75" y="1006.7083333333334"/>
    </contour>
  </outline>
</glyph>
<glyph name="cent" format="2">
  <advance width="1200.0"/>
  <unicode hex="00A2"/>
  <anchor x="663.6875" y="0.0" name="bottomAttach"/>
  <outline>
    <contour>
      <point x="760.5625" y="1372.9791666666667" type="line"/>
      <point x="583.4375" y="1372.9791666666667" type="line"/>
      <point x="583.4375" y="1070.9791666666667" type="line"/>
      <point x="328.0" y="1028.5625"/>
      <point x="191.02083333333331" y="810.5625"/>
      <point x="191.02083333333331" y="522.5625" type="curve" smooth="yes"/>
      <point x="191.02083333333331" y="226.97916666666666"/>
      <point x="326.875" y="25.291666666666668"/>
      <point x="581.4375" y="-13.6875" type="curve"/>
      <point x="581.4375" y="-312.4166666666667" type="line"/>
      <point x="760.5625" y="-312.4166666666667" type="line"/>
      <point x="760.5625" y="-17.291666666666668" type="line"/>
      <point x="849.8541666666666" y="-3.6875"/>
      <point x="932.4166666666666" y="28.5625"/>
      <point x="1008.9791666666666" y="92.0" type="curve"/>
      <point x="904.3125" y="242.25" type="line"/>
      <point x="821.125" y="179.02083333333334"/>
      <point x="759.0208333333334" y="157.02083333333334"/>
      <point x="683.75" y="157.02083333333334" type="curve" smooth="yes"/>
      <point x="527.4375" y="157.02083333333334"/>
      <point x="429.0208333333333" y="258.25"/>
      <point x="429.0208333333333" y="522.5625" type="curve" smooth="yes"/>
      <point x="429.0208333333333" y="786.0"/>
      <point x="524.3125" y="904.3125"/>
      <point x="684.3125" y="904.3125" type="curve" smooth="yes"/>
      <point x="757.5833333333334" y="904.3125"/>
      <point x="822.9791666666666" y="885.75"/>
      <point x="904.5625" y="823.4375" type="curve"/>
      <point x="1008.9791666666666" y="964.5625" type="line"/>
      <point x="932.9791666666666" y="1027.125"/>
      <point x="849.8541666666666" y="1061.8541666666667"/>
      <point x="760.5625" y="1073.0208333333333" type="curve"/>
    </contour>
  </outline>
</glyph>
<glyph name="sterling" format="2">
  <advance width="1200.0"/>
  <unicode hex="00A3"/>
  <outline>
    <contour>
      <point x="697.8541666666666" y="1407.5833333333333" type="curve" smooth="yes"/>
      <point x="437.75" y="1407.5833333333333"/>
      <point x="289.2916666666667" y="1242.5625"/>
      <point x="289.2916666666667" y="1021.2916666666666" type="curve"/>
      <point x="289.2916666666667" y="785.75" type="line"/>
      <point x="131.75" y="785.75" type="line"/>
      <point x="131.75" y="650.9791666666666" type="line"/>
      <point x="289.2916666666667" y="650.9791666666666" type="line"/>
      <point x="289.2916666666667" y="437.0208333333333" type="line" smooth="yes"/>
      <point x="289.2916666666667" y="304.3125"/>
      <point x="280.5625" y="220.41666666666669"/>
      <point x="124.25" y="170.97916666666669" type="curve"/>
      <point x="124.25" y="0.0" type="line"/>
      <point x="1026.875" y="0.0" type="line"/>
      <point x="1053.8541666666667" y="179.58333333333334" type="line"/>
      <point x="386.5625" y="179.58333333333334" type="line"/>
      <point x="490.5625" y="237.58333333333334"/>
      <point x="511.6875" y="332.25"/>
      <point x="511.6875" y="438.5625" type="curve" smooth="yes"/>
      <point x="511.6875" y="650.9791666666666" type="line"/>
      <point x="906.875" y="650.9791666666666" type="line"/>
      <point x="906.875" y="785.75" type="line"/>
      <point x="511.6875" y="785.75" type="line"/>
      <point x="511.6875" y="1008.9791666666666" type="line" smooth="yes"/>
      <point x="511.6875" y="1156.7083333333333"/>
      <point x="582.3125" y="1230.0"/>
      <point x="710.875" y="1230.0" type="curve" smooth="yes"/>
      <point x="802.4166666666666" y="1230.0"/>
      <point x="869.4375" y="1197.6875"/>
      <point x="931.5833333333334" y="1117.2916666666667" type="curve"/>
      <point x="1075.75" y="1223.75" type="line"/>
      <point x="983.0208333333334" y="1351.6875"/>
      <point x="855.8541666666666" y="1407.5833333333333"/>
    </contour>
  </outline>
</glyph>
<glyph name="currency" format="2">
  <advance width="1200.0"/>
  <unicode hex="00A4"/>
  <outline>
    <contour>
      <point x="186.70833333333334" y="1221.125" type="line"/>
      <point x="66.3125" y="1100.25" type="line"/>
      <point x="235.85416666666666" y="927.75" type="line"/>
      <point x="194.41666666666666" y="861.75"/>
      <point x="169.58333333333334" y="778.3125"/>
      <point x="169.58333333333334" y="684.0" type="curve" smooth="yes"/>
      <point x="169.58333333333334" y="587.125"/>
      <point x="194.97916666666666" y="504.25"/>
      <point x="237.85416666666666" y="437.8541666666667" type="curve"/>
      <point x="66.3125" y="265.75" type="line"/>
      <point x="186.70833333333334" y="144.875" type="line"/>
      <point x="358.25" y="316.4166666666667" type="line"/>
      <point x="426.25" y="275.0208333333333"/>
      <point x="509.6875" y="254.14583333333334"/>
      <point x="602.0" y="254.14583333333334" type="curve" smooth="yes"/>
      <point x="692.3125" y="254.14583333333334"/>
      <point x="774.3125" y="275.0208333333333"/>
      <point x="840.3125" y="316.4166666666667" type="curve"/>
      <point x="1013.2916666666666" y="147.4375" type="line"/>
      <point x="1133.6875" y="267.75" type="line"/>
      <point x="964.1458333333334" y="435.8541666666667" type="line"/>
      <point x="1007.0208333333334" y="502.25"/>
      <point x="1036.4166666666667" y="585.6875"/>
      <point x="1036.4166666666667" y="684.0" type="curve" smooth="yes"/>
      <point x="1036.4166666666667" y="778.875"/>
      <point x="1009.0208333333334" y="862.7083333333334"/>
      <point x="966.1458333333334" y="928.7083333333334" type="curve"/>
      <point x="1133.6875" y="1098.25" type="line"/>
      <point x="1013.2916666666666" y="1219.125" type="line"/>
      <point x="841.75" y="1047.5833333333333" type="line"/>
      <point x="774.7083333333334" y="1090.9791666666667"/>
      <point x="692.3125" y="1111.8541666666667"/>
      <point x="602.0" y="1111.8541666666667" type="curve" smooth="yes"/>
      <point x="509.125" y="1111.8541666666667"/>
      <point x="426.25" y="1089.0208333333333"/>
      <point x="359.2916666666667" y="1047.5833333333333" type="curve"/>
    </contour>
    <contour>
      <point x="602.0" y="946.25" type="curve" smooth="yes"/>
      <point x="755.4375" y="946.25"/>
      <point x="833.8541666666666" y="847.4375"/>
      <point x="833.8541666666666" y="684.0" type="curve" smooth="yes"/>
      <point x="833.8541666666666" y="518.5625"/>
      <point x="755.4375" y="420.7083333333333"/>
      <point x="602.0" y="420.7083333333333" type="curve" smooth="yes"/>
      <point x="448.0" y="420.7083333333333"/>
      <point x="367.5833333333333" y="518.5625"/>
      <point x="367.5833333333333" y="684.0" type="curve" smooth="yes"/>
      <point x="367.5833333333333" y="847.4375"/>
      <point x="448.0" y="946.25"/>
    </contour>
  </outline>
</glyph>
<glyph name="yen" format="2">
  <advance width="1200.0"/>
  <unicode hex="00A5"/>
  <outline>
    <contour>
      <point x="1144.7083333333333" y="1380.25" type="line"/>
      <point x="910.7083333333334" y="1380.25" type="line"/>
      <point x="610.5625" y="771.4375" type="line"/>
      <point x="602.5625" y="771.4375" type="line"/>
      <point x="300.25" y="1380.25" type="line"/>
      <point x="55.291666666666664" y="1380.25" type="line"/>
      <point x="429.0208333333333" y="695.8541666666666" type="line"/>
      <point x="211.58333333333331" y="695.8541666666666" type="line"/>
      <point x="211.58333333333331" y="561.125" type="line"/>
      <point x="485.6875" y="561.125" type="line"/>
      <point x="485.6875" y="402.5625" type="line"/>
      <point x="211.58333333333331" y="402.5625" type="line"/>
      <point x="211.58333333333331" y="267.75" type="line"/>
      <point x="485.6875" y="267.75" type="line"/>
      <point x="485.6875" y="0.0" type="line"/>
      <point x="715.4375" y="0.0" type="line"/>
      <point x="715.4375" y="267.75" type="line"/>
      <point x="993.0208333333334" y="267.75" type="line"/>
      <point x="993.0208333333334" y="402.5625" type="line"/>
      <point x="715.4375" y="402.5625" type="line"/>
      <point x="715.4375" y="561.125" type="line"/>
      <point x="993.0208333333334" y="561.125" type="line"/>
      <point x="993.0208333333334" y="695.8541666666666" type="line"/>
      <point x="769.5833333333334" y="695.8541666666666" type="line"/>
    </contour>
  </outline>
</glyph>
<glyph name="section" format="2">
  <advance width="1200.0"/>
  <unicode hex="00A7"/>
  <outline>
    <contour>
      <point x="635.125" y="1407.5833333333333" type="curve" smooth="yes"/>
      <point x="405.5833333333333" y="1407.5833333333333"/>
      <point x="235.58333333333331" y="1286.875"/>
      <point x="235.58333333333331" y="1102.7083333333333" type="curve" smooth="yes"/>
      <point x="235.58333333333331" y="1012.1458333333334"/>
      <point x="278.9791666666667" y="939.0208333333334"/>
      <point x="353.0208333333333" y="882.4166666666666" type="curve"/>
      <point x="264.9791666666667" y="827.8541666666666"/>
      <point x="190.97916666666666" y="740.9791666666666"/>
      <point x="190.97916666666666" y="631.2916666666666" type="curve" smooth="yes"/>
      <point x="190.97916666666666" y="467.4375"/>
      <point x="290.0" y="390.3125"/>
      <point x="497.2916666666667" y="322.25" type="curve" smooth="yes"/>
      <point x="701.5833333333334" y="256.25"/>
      <point x="740.5625" y="222.41666666666666"/>
      <point x="740.5625" y="141.6875" type="curve" smooth="yes"/>
      <point x="740.5625" y="66.5625"/>
      <point x="664.3125" y="18.97916666666667"/>
      <point x="556.25" y="18.97916666666667" type="curve" smooth="yes"/>
      <point x="450.7083333333333" y="18.97916666666667"/>
      <point x="369.5833333333333" y="49.020833333333336"/>
      <point x="288.4166666666667" y="104.97916666666667" type="curve"/>
      <point x="196.70833333333331" y="-38.708333333333336" type="line"/>
      <point x="288.0" y="-105.75"/>
      <point x="405.0208333333333" y="-149.75"/>
      <point x="556.875" y="-149.75" type="curve" smooth="yes"/>
      <point x="799.125" y="-149.75"/>
      <point x="964.9791666666666" y="-31.125"/>
      <point x="964.9791666666666" y="153.125" type="curve" smooth="yes"/>
      <point x="964.9791666666666" y="248.25"/>
      <point x="920.1458333333334" y="319.8541666666667"/>
      <point x="848.1458333333334" y="374.4166666666667" type="curve"/>
      <point x="936.1458333333334" y="428.9791666666667"/>
      <point x="1007.5833333333334" y="516.4166666666666"/>
      <point x="1007.5833333333334" y="627.5833333333334" type="curve" smooth="yes"/>
      <point x="1007.5833333333334" y="790.5625"/>
      <point x="909.4375" y="869.125"/>
      <point x="702.1458333333334" y="935.75" type="curve" smooth="yes"/>
      <point x="500.1458333333333" y="1001.5833333333334"/>
      <point x="460.5625" y="1035.8541666666667"/>
      <point x="460.5625" y="1116.1458333333333" type="curve" smooth="yes"/>
      <point x="460.5625" y="1190.3125"/>
      <point x="527.2916666666666" y="1239.8541666666667"/>
      <point x="633.75" y="1239.8541666666667" type="curve" smooth="yes"/>
      <point x="737.6875" y="1239.8541666666667"/>
      <point x="815.0208333333334" y="1211.0208333333333"/>
      <point x="896.1458333333334" y="1157.5833333333333" type="curve"/>
      <point x="988.9791666666666" y="1298.9791666666667" type="line"/>
      <point x="894.5625" y="1363.5833333333333"/>
      <point x="781.125" y="1407.5833333333333"/>
    </contour>
    <contour>
      <point x="479.6875" y="815.75" type="curve"/>
      <point x="740.0" y="722.4166666666666"/>
      <point x="799.5833333333334" y="698.25"/>
      <point x="799.5833333333334" y="598.5625" type="curve" smooth="yes"/>
      <point x="799.5833333333334" y="547.5833333333334"/>
      <point x="770.5625" y="490.0"/>
      <point x="719.75" y="441.6875" type="curve"/>
      <point x="460.0" y="533.5833333333334"/>
      <point x="400.4166666666667" y="555.75"/>
      <point x="400.4166666666667" y="661.4375" type="curve" smooth="yes"/>
      <point x="400.4166666666667" y="710.9791666666666"/>
      <point x="426.875" y="768.0"/>
    </contour>
  </outline>
</glyph>
<glyph name="dieresis" format="2">
  <advance width="1200.0"/>
  <unicode hex="00A8"/>
  <anchor x="600.0" y="1056.25" name="_top"/>
  <anchor x="600.0" y="1413.4375" name="top"/>
  <outline>
    <contour>
      <point x="383.8541666666667" y="1288.4166666666667" type="curve" smooth="yes"/>
      <point x="456.25" y="1288.4166666666667"/>
      <point x="512.875" y="1342.5625"/>
      <point x="512.875" y="1414.875" type="curve" smooth="yes"/>
      <point x="512.875" y="1487.5833333333333"/>
      <point x="456.25" y="1542.25"/>
      <point x="383.8541666666667" y="1542.25" type="curve" smooth="yes"/>
      <point x="309.5833333333333" y="1542.25"/>
      <point x="252.875" y="1487.5833333333333"/>
      <point x="252.875" y="1414.875" type="curve" smooth="yes"/>
      <point x="252.875" y="1342.5625"/>
      <point x="309.5833333333333" y="1288.4166666666667"/>
    </contour>
    <contour>
      <point x="814.7083333333334" y="1288.4166666666667" type="curve" smooth="yes"/>
      <point x="889.0208333333334" y="1288.4166666666667"/>
      <point x="945.6875" y="1342.5625"/>
      <point x="945.6875" y="1414.875" type="curve" smooth="yes"/>
      <point x="945.6875" y="1487.5833333333333"/>
      <point x="889.0208333333334" y="1542.25"/>
      <point x="814.7083333333334" y="1542.25" type="curve" smooth="yes"/>
      <point x="743.4375" y="1542.25"/>
      <point x="685.6875" y="1487.5833333333333"/>
      <point x="685.6875" y="1414.875" type="curve" smooth="yes"/>
      <point x="685.6875" y="1342.5625"/>
      <point x="743.4375" y="1288.4166666666667"/>
    </contour>
  </outline>
</glyph>
<glyph name="copyright" format="2">
  <advance width="1200.0"/>
  <unicode hex="00A9"/>
  <outline>
    <contour>
      <point x="602.0" y="1502.1458333333333" type="curve" smooth="yes"/>
      <point x="247.85416666666666" y="1502.1458333333333"/>
      <point x="42.875" y="1217.6875"/>
      <point x="42.875" y="862.4166666666666" type="curve" smooth="yes"/>
      <point x="42.875" y="508.1458333333333"/>
      <point x="244.0" y="224.25"/>
      <point x="602.0" y="224.25" type="curve" smooth="yes"/>
      <point x="954.7083333333334" y="224.25"/>
      <point x="1157.125" y="508.1458333333333"/>
      <point x="1157.125" y="862.4166666666666" type="curve" smooth="yes"/>
      <point x="1157.125" y="1217.6875"/>
      <point x="954.7083333333334" y="1502.1458333333333"/>
    </contour>
    <contour>
      <point x="613.2916666666666" y="1248.3125" type="curve" smooth="yes"/>
      <point x="430.1458333333333" y="1248.3125"/>
      <point x="283.4375" y="1111.8541666666667"/>
      <point x="283.4375" y="864.4166666666666" type="curve" smooth="yes"/>
      <point x="283.4375" y="615.6875"/>
      <point x="417.75" y="479.4375"/>
      <point x="615.2916666666666" y="479.4375" type="curve" smooth="yes"/>
      <point x="722.0" y="479.4375"/>
      <point x="798.5625" y="522.875"/>
      <point x="856.25" y="575.125" type="curve"/>
      <point x="781.5833333333334" y="684.5625" type="line"/>
      <point x="739.4375" y="646.4166666666666"/>
      <point x="690.25" y="620.9791666666666"/>
      <point x="624.7083333333334" y="620.9791666666666" type="curve" smooth="yes"/>
      <point x="525.0208333333334" y="620.9791666666666"/>
      <point x="457.6875" y="694.875"/>
      <point x="457.6875" y="864.4166666666666" type="curve" smooth="yes"/>
      <point x="457.6875" y="1042.1458333333333"/>
      <point x="530.9791666666666" y="1112.25"/>
      <point x="624.7083333333334" y="1112.25" type="curve" smooth="yes"/>
      <point x="674.9791666666666" y="1112.25"/>
      <point x="719.4375" y="1095.2916666666667"/>
      <point x="765.0208333333334" y="1058.1458333333333" type="curve"/>
      <point x="846.25" y="1163.8541666666667" type="line"/>
      <point x="778.4166666666666" y="1220.7083333333333"/>
      <point x="713.6875" y="1248.3125"/>
    </contour>
    <contour>
      <point x="602.0" y="1387.5833333333333" type="curve" smooth="yes"/>
      <point x="890.5625" y="1387.5833333333333"/>
      <point x="1026.1458333333333" y="1152.9791666666667"/>
      <point x="1026.1458333333333" y="862.4166666666666" type="curve" smooth="yes"/>
      <point x="1026.1458333333333" y="573.8541666666666"/>
      <point x="890.0" y="340.25"/>
      <point x="602.0" y="340.25" type="curve" smooth="yes"/>
      <point x="312.0" y="340.25"/>
      <point x="175.85416666666666" y="573.8541666666666"/>
      <point x="175.85416666666666" y="862.4166666666666" type="curve" smooth="yes"/>
      <point x="175.85416666666666" y="1152.9791666666667"/>
      <point x="312.0" y="1387.5833333333333"/>
    </contour>
  </outline>
</glyph>
<glyph name="ordfeminine" format="2">
  <advance width="1200.0"/>
  <unicode hex="00AA"/>
  <outline>
    <contour>
      <point x="580.5625" y="1505.0208333333333" type="curve" smooth="yes"/>
      <point x="490.0" y="1505.0208333333333"/>
      <point x="378.4166666666667" y="1488.4166666666667"/>
      <point x="259.2916666666667" y="1444.9791666666667" type="curve"/>
      <point x="312.3125" y="1303.75" type="line"/>
      <point x="407.75" y="1336.7083333333333"/>
      <point x="497.75" y="1350.7083333333333"/>
      <point x="551.5833333333334" y="1350.7083333333333" type="curve" smooth="yes"/>
      <point x="674.4166666666666" y="1350.7083333333333"/>
      <point x="736.7083333333334" y="1315.2916666666667"/>
      <point x="736.7083333333334" y="1209.75" type="curve" smooth="yes"/>
      <point x="736.7083333333334" y="1162.7083333333333" type="line"/>
      <point x="624.0" y="1162.7083333333333" type="line" smooth="yes"/>
      <point x="350.3125" y="1162.7083333333333"/>
      <point x="190.0" y="1061.2916666666667"/>
      <point x="190.0" y="881.6875" type="curve" smooth="yes"/>
      <point x="190.0" y="720.5625"/>
      <point x="312.0" y="612.3125"/>
      <point x="494.5625" y="612.3125" type="curve" smooth="yes"/>
      <point x="597.6875" y="612.3125"/>
      <point x="696.5625" y="654.3125"/>
      <point x="762.5625" y="730.875" type="curve"/>
      <point x="795.8541666666666" y="657.4375"/>
      <point x="854.7083333333334" y="624.0"/>
      <point x="949.5833333333334" y="613.4375" type="curve"/>
      <point x="996.25" y="747.75" type="line"/>
      <point x="953.2916666666666" y="761.75"/>
      <point x="932.4166666666666" y="786.7083333333334"/>
      <point x="932.4166666666666" y="846.1458333333334" type="curve" smooth="yes"/>
      <point x="932.4166666666666" y="1216.3125" type="line" smooth="yes"/>
      <point x="932.4166666666666" y="1398.9791666666667"/>
      <point x="824.9791666666666" y="1505.0208333333333"/>
    </contour>
    <contour>
      <point x="1008.3125" y="175.75" type="line"/>
      <point x="206.70833333333334" y="175.75" type="line"/>
      <point x="206.70833333333334" y="0.0" type="line"/>
      <point x="1008.3125" y="0.0" type="line"/>
    </contour>
    <contour>
      <point x="736.7083333333334" y="1031.2916666666667" type="line"/>
      <point x="736.7083333333334" y="861.6875" type="line"/>
      <point x="690.5625" y="796.9791666666666"/>
      <point x="619.5833333333334" y="756.1458333333334"/>
      <point x="547.6875" y="756.1458333333334" type="curve" smooth="yes"/>
      <point x="455.8541666666667" y="756.1458333333334"/>
      <point x="403.125" y="801.6875"/>
      <point x="403.125" y="890.25" type="curve" smooth="yes"/>
      <point x="403.125" y="981.75"/>
      <point x="472.4166666666667" y="1031.2916666666667"/>
      <point x="641.125" y="1031.2916666666667" type="curve" smooth="yes"/>
    </contour>
  </outline>
</glyph>
<glyph name="guillemetleft" format="2">
  <advance width="1200.0"/>
  <unicode hex="00AB"/>
  <outline>
    <contour>
      <point x="620.25" y="165.29166666666666" type="line"/>
      <point x="365.2916666666667" y="582.1458333333334" type="line"/>
      <point x="620.25" y="999.4375" type="line"/>
      <point x="488.5625" y="1083.2916666666667" type="line"/>
      <point x="141.85416666666666" y="656.7083333333334" type="line"/>
      <point x="141.85416666666666" y="505.5833333333333" type="line"/>
      <point x="488.5625" y="81.4375" type="line"/>
    </contour>
    <contour>
      <point x="1056.7083333333333" y="165.29166666666666" type="line"/>
      <point x="801.75" y="582.1458333333334" type="line"/>
      <point x="1056.7083333333333" y="999.4375" type="line"/>
      <point x="925.0208333333334" y="1083.2916666666667" type="line"/>
      <point x="576.3125" y="656.7083333333334" type="line"/>
      <point x="576.3125" y="505.5833333333333" type="line"/>
      <point x="925.0208333333334" y="81.4375" type="line"/>
    </contour>
  </outline>
</glyph>
<glyph name="softhyphen" format="2">
  <advance width="1200.0"/>
  <unicode hex="00AD"/>
  <outline>
    <contour>
      <point x="281.0208333333333" y="534.1458333333334" type="line"/>
      <point x="918.9791666666666" y="534.1458333333334" type="line"/>
      <point x="918.9791666666666" y="717.8541666666666" type="line"/>
      <point x="281.0208333333333" y="717.8541666666666" type="line"/>
    </contour>
  </outline>
</glyph>
<glyph name="registered" format="2">
  <advance width="1200.0"/>
  <unicode hex="00AE"/>
  <outline>
    <contour>
      <point x="600.5625" y="1502.1458333333333" type="curve" smooth="yes"/>
      <point x="307.125" y="1502.1458333333333"/>
      <point x="76.3125" y="1270.4166666666667"/>
      <point x="76.3125" y="977.5833333333334" type="curve" smooth="yes"/>
      <point x="76.3125" y="686.3125"/>
      <point x="307.125" y="457.0208333333333"/>
      <point x="600.5625" y="457.0208333333333" type="curve" smooth="yes"/>
      <point x="892.875" y="457.0208333333333"/>
      <point x="1121.6875" y="686.3125"/>
      <point x="1121.6875" y="977.5833333333334" type="curve" smooth="yes"/>
      <point x="1121.6875" y="1270.4166666666667"/>
      <point x="892.875" y="1502.1458333333333"/>
    </contour>
    <contour>
      <point x="600.5625" y="1393.5833333333333" type="curve" smooth="yes"/>
      <point x="830.0" y="1393.5833333333333"/>
      <point x="998.3125" y="1209.75"/>
      <point x="998.3125" y="977.5833333333334" type="curve" smooth="yes"/>
      <point x="998.3125" y="746.9791666666666"/>
      <point x="830.0" y="566.1458333333334"/>
      <point x="600.5625" y="566.1458333333334" type="curve" smooth="yes"/>
      <point x="370.5625" y="566.1458333333334"/>
      <point x="199.6875" y="746.9791666666666"/>
      <point x="199.6875" y="977.5833333333334" type="curve" smooth="yes"/>
      <point x="199.6875" y="1209.75"/>
      <point x="370.5625" y="1393.5833333333333"/>
    </contour>
    <contour>
      <point x="566.7083333333334" y="1271.4375" type="curve" smooth="yes"/>
      <point x="395.5833333333333" y="1271.4375" type="line"/>
      <point x="395.5833333333333" y="706.3125" type="line"/>
      <point x="520.4166666666666" y="706.3125" type="line"/>
      <point x="520.4166666666666" y="919.0208333333334" type="line"/>
      <point x="573.125" y="919.0208333333334" type="line"/>
      <point x="714.4166666666666" y="706.3125" type="line"/>
      <point x="859.2916666666666" y="706.3125" type="line"/>
      <point x="693.75" y="942.3125" type="line"/>
      <point x="767.0208333333334" y="965.4375"/>
      <point x="821.2916666666666" y="1018.0"/>
      <point x="821.2916666666666" y="1099.75" type="curve" smooth="yes"/>
      <point x="821.2916666666666" y="1214.0"/>
      <point x="736.5625" y="1271.4375"/>
    </contour>
    <contour>
      <point x="574.0" y="1176.4166666666667" type="line" smooth="yes"/>
      <point x="656.1458333333334" y="1176.4166666666667"/>
      <point x="692.9791666666666" y="1149.5833333333333"/>
      <point x="692.9791666666666" y="1100.875" type="curve" smooth="yes"/>
      <point x="692.9791666666666" y="1040.25"/>
      <point x="650.1458333333334" y="1017.2916666666666"/>
      <point x="577.4375" y="1017.2916666666666" type="curve" smooth="yes"/>
      <point x="520.4166666666666" y="1017.2916666666666" type="line"/>
      <point x="520.4166666666666" y="1176.4166666666667" type="line"/>
    </contour>
  </outline>
</glyph>
<glyph name="macron" format="2">
  <advance width="1200.0"/>
  <unicode hex="00AF"/>
  <anchor x="600.0" y="1056.25" name="_top"/>
  <outline>
    <contour>
      <point x="882.0" y="1338.0" type="line"/>
      <point x="882.0" y="1500.9791666666667" type="line"/>
      <point x="316.5625" y="1500.9791666666667" type="line"/>
      <point x="316.5625" y="1338.0" type="line"/>
    </contour>
  </outline>
</glyph>
<glyph name="degree" format="2">
  <advance width="1200.0"/>
  <unicode hex="00B0"/>
  <outline>
    <contour>
      <point x="471.6875" y="1505.0208333333333" type="curve" smooth="yes"/>
      <point x="302.875" y="1505.0208333333333"/>
      <point x="135.29166666666666" y="1388.25"/>
      <point x="135.29166666666666" y="1184.3125" type="curve" smooth="yes"/>
      <point x="135.29166666666666" y="977.0208333333334"/>
      <point x="302.875" y="859.125"/>
      <point x="471.6875" y="859.125" type="curve" smooth="yes"/>
      <point x="642.4166666666666" y="859.125"/>
      <point x="808.5625" y="977.0208333333334"/>
      <point x="808.5625" y="1182.875" type="curve" smooth="yes"/>
      <point x="808.5625" y="1388.25"/>
      <point x="642.4166666666666" y="1505.0208333333333"/>
    </contour>
    <contour>
      <point x="471.6875" y="1362.3125" type="curve" smooth="yes"/>
      <point x="561.4375" y="1362.3125"/>
      <point x="635.125" y="1300.875"/>
      <point x="635.125" y="1182.875" type="curve" smooth="yes"/>
      <point x="635.125" y="1064.875"/>
      <point x="561.4375" y="1002.875"/>
      <point x="471.6875" y="1002.875" type="curve" smooth="yes"/>
      <point x="383.8541666666667" y="1002.875"/>
      <point x="308.25" y="1064.875"/>
      <point x="308.25" y="1184.3125" type="curve" smooth="yes"/>
      <point x="308.25" y="1302.3125"/>
      <point x="383.8541666666667" y="1362.3125"/>
    </contour>
  </outline>
</glyph>
<glyph name="plusminus" format="2">
  <advance width="1200.0"/>
  <unicode hex="00B1"/>
  <outline>
    <contour>
      <point x="700.4166666666666" y="1091.125" type="line"/>
      <point x="499.5833333333333" y="1091.125" type="line"/>
      <point x="499.5833333333333" y="786.7083333333334" type="line"/>
      <point x="206.25" y="786.7083333333334" type="line"/>
      <point x="206.25" y="608.5625" type="line"/>
      <point x="499.5833333333333" y="608.5625" type="line"/>
      <point x="499.5833333333333" y="334.1458333333333" type="line"/>
      <point x="700.4166666666666" y="334.1458333333333" type="line"/>
      <point x="700.4166666666666" y="608.5625" type="line"/>
      <point x="993.75" y="608.5625" type="line"/>
      <point x="993.75" y="786.7083333333334" type="line"/>
      <point x="700.4166666666666" y="786.7083333333334" type="line"/>
    </contour>
    <contour>
      <point x="993.75" y="181.02083333333334" type="line"/>
      <point x="206.25" y="181.02083333333334" type="line"/>
      <point x="206.25" y="0.0" type="line"/>
      <point x="993.75" y="0.0" type="line"/>
    </contour>
  </outline>
</glyph>
<glyph name="micro" format="2">
  <advance width="1200.0"/>
  <unicode hex="00B5"/>
  <outline>
    <contour>
      <point x="997.6875" y="1056.25" type="line"/>
      <point x="773.6875" y="1056.25" type="line"/>
      <point x="773.6875" y="296.875" type="line"/>
      <point x="719.5833333333334" y="219.29166666666669"/>
      <point x="640.4166666666666" y="155.125"/>
      <point x="535.4375" y="155.125" type="curve" smooth="yes"/>
      <point x="396.9791666666667" y="155.125"/>
      <point x="383.75" y="266.0"/>
      <point x="383.75" y="460.875" type="curve" smooth="yes"/>
      <point x="383.75" y="1056.25" type="line"/>
      <point x="160.3125" y="1056.25" type="line"/>
      <point x="160.3125" y="-430.9791666666667" type="line"/>
      <point x="377.8541666666667" y="-405.6875" type="line"/>
      <point x="377.8541666666667" y="-147.58333333333334" type="line" smooth="yes"/>
      <point x="377.8541666666667" y="-72.25"/>
      <point x="362.875" y="-7.4375"/>
      <point x="338.875" y="72.70833333333333" type="curve"/>
      <point x="392.5625" y="-1.291666666666667"/>
      <point x="438.3125" y="-25.6875"/>
      <point x="533.4375" y="-25.6875" type="curve" smooth="yes"/>
      <point x="634.1458333333334" y="-25.6875"/>
      <point x="734.1458333333334" y="38.708333333333336"/>
      <point x="795.0208333333334" y="138.97916666666666" type="curve"/>
      <point x="801.0208333333334" y="83.6875"/>
      <point x="818.25" y="11.4375"/>
      <point x="835.4375" y="-25.125" type="curve"/>
      <point x="1041.8541666666667" y="0.0" type="line"/>
      <point x="1020.1458333333334" y="93.4375"/>
      <point x="997.6875" y="213.6875"/>
      <point x="997.6875" y="351.125" type="curve" smooth="yes"/>
    </contour>
  </outline>
</glyph>
<glyph name="paragraph" format="2">
  <advance width="1200.0"/>
  <unicode hex="00B6"/>
  <outline>
    <contour>
      <point x="1131.8541666666667" y="1380.25" type="line"/>
      <point x="573.5833333333334" y="1380.25" type="line" smooth="yes"/>
      <point x="239.58333333333331" y="1380.25"/>
      <point x="66.70833333333333" y="1201.6875"/>
      <point x="66.70833333333333" y="967.0208333333334" type="curve" smooth="yes"/>
      <point x="66.70833333333333" y="738.3125"/>
      <point x="225.125" y="569.8541666666666"/>
      <point x="537.4375" y="558.7083333333334" type="curve"/>
      <point x="537.4375" y="-430.9791666666667" type="line"/>
      <point x="733.4375" y="-408.9791666666667" type="line"/>
      <point x="733.4375" y="1212.25" type="line"/>
      <point x="935.8541666666666" y="1212.25" type="line"/>
      <point x="935.8541666666666" y="-430.9791666666667" type="line"/>
      <point x="1131.8541666666667" y="-408.9791666666667" type="line"/>
    </contour>
  </outline>
</glyph>
<glyph name="cedilla" format="2">
  <advance width="1200.0"/>
  <unicode hex="00B8"/>
  <anchor x="600.0" y="0.0" name="_bottom"/>
  <outline>
    <contour>
      <point x="664.875" y="-284.25" type="curve" smooth="yes"/>
      <point x="664.875" y="-338.875"/>
      <point x="619.125" y="-358.7083333333333"/>
      <point x="551.2916666666666" y="-358.7083333333333" type="curve" smooth="yes"/>
      <point x="507.2916666666667" y="-358.7083333333333"/>
      <point x="457.0208333333333" y="-346.1458333333333"/>
      <point x="418.9791666666667" y="-326.1458333333333" type="curve"/>
      <point x="357.4375" y="-441.4375" type="line"/>
      <point x="410.0" y="-472.0"/>
      <point x="490.25" y="-495.2916666666667"/>
      <point x="576.1458333333334" y="-495.2916666666667" type="curve" smooth="yes"/>
      <point x="724.5625" y="-495.2916666666667"/>
      <point x="841.125" y="-418.9791666666667"/>
      <point x="841.125" y="-285.8541666666667" type="curve" smooth="yes"/>
      <point x="841.125" y="-195.58333333333334"/>
      <point x="781.75" y="-120.14583333333333"/>
      <point x="647.0208333333334" y="-107.02083333333333" type="curve"/>
      <point x="647.0208333333334" y="32.0" type="line"/>
      <point x="508.875" y="32.0" type="line"/>
      <point x="487.5833333333333" y="-205.75" type="line"/>
      <point x="600.0" y="-205.75"/>
      <point x="664.875" y="-219.75"/>
    </contour>
  </outline>
</glyph>
<glyph name="ordmasculine" format="2">
  <advance width="1200.0"/>
  <unicode hex="00BA"/>
  <outline>
    <contour>
      <point x="600.0" y="1505.0208333333333" type="curve" smooth="yes"/>
      <point x="342.25" y="1505.0208333333333"/>
      <point x="178.5625" y="1319.125"/>
      <point x="178.5625" y="1059.6875" type="curve" smooth="yes"/>
      <point x="178.5625" y="790.5625"/>
      <point x="340.25" y="612.3125"/>
      <point x="600.0" y="612.3125" type="curve" smooth="yes"/>
      <point x="857.75" y="612.3125"/>
      <point x="1020.0" y="795.4375"/>
      <point x="1020.0" y="1059.6875" type="curve" smooth="yes"/>
      <point x="1020.0" y="1325.4375"/>
      <point x="858.7083333333334" y="1505.0208333333333"/>
    </contour>
    <contour>
      <point x="1001.0208333333334" y="175.75" type="line"/>
      <point x="200.41666666666666" y="175.75" type="line"/>
      <point x="200.41666666666666" y="0.0" type="line"/>
      <point x="1001.0208333333334" y="0.0" type="line"/>
    </contour>
    <contour>
      <point x="600.0" y="1350.7083333333333" type="curve" smooth="yes"/>
      <point x="730.3125" y="1350.7083333333333"/>
      <point x="810.5625" y="1262.4166666666667"/>
      <point x="810.5625" y="1059.6875" type="curve" smooth="yes"/>
      <point x="810.5625" y="855.4375"/>
      <point x="730.3125" y="766.7083333333334"/>
      <point x="600.0" y="766.7083333333334" type="curve" smooth="yes"/>
      <point x="469.6875" y="766.7083333333334"/>
      <point x="388.0" y="855.4375"/>
      <point x="388.0" y="1059.6875" type="curve" smooth="yes"/>
      <point x="388.0" y="1262.4166666666667"/>
      <point x="469.6875" y="1350.7083333333333"/>
    </contour>
  </outline>
</glyph>
<glyph name="guillemetright" format="2">
  <advance width="1200.0"/>
  <unicode hex="00BB"/>
  <outline>
    <contour>
      <point x="831.75" y="582.1458333333334" type="line"/>
      <point x="576.3125" y="165.29166666666666" type="line"/>
      <point x="708.0" y="81.4375" type="line"/>
      <point x="1056.7083333333333" y="505.5833333333333" type="line"/>
      <point x="1056.7083333333333" y="656.7083333333334" type="line"/>
      <point x="708.0" y="1083.2916666666667" type="line"/>
      <point x="576.3125" y="999.4375" type="line"/>
    </contour>
    <contour>
      <point x="397.29166666666663" y="582.1458333333334" type="line"/>
      <point x="141.85416666666666" y="165.29166666666666" type="line"/>
      <point x="273.0208333333333" y="81.4375" type="line"/>
      <point x="620.25" y="505.5833333333333" type="line"/>
      <point x="620.25" y="656.7083333333334" type="line"/>
      <point x="273.0208333333333" y="1083.2916666666667" type="line"/>
      <point x="141.85416666666666" y="999.4375" type="line"/>
    </contour>
  </outline>
</glyph>
<glyph name="questiondown" format="2">
  <advance width="1200.0"/>
  <unicode hex="00BF"/>
  <outline>
    <contour>
      <point x="642.1458333333334" y="1006.7083333333334" type="curve" smooth="yes"/>
      <point x="557.4375" y="1006.7083333333334"/>
      <point x="491.8541666666667" y="938.5625"/>
      <point x="491.8541666666667" y="854.4166666666666" type="curve" smooth="yes"/>
      <point x="491.8541666666667" y="771.75"/>
      <point x="557.4375" y="703.6875"/>
      <point x="642.1458333333334" y="703.6875" type="curve" smooth="yes"/>
      <point x="727.2916666666666" y="703.6875"/>
      <point x="794.875" y="771.75"/>
      <point x="794.875" y="854.4166666666666" type="curve" smooth="yes"/>
      <point x="794.875" y="938.5625"/>
      <point x="727.2916666666666" y="1006.7083333333334"/>
    </contour>
    <contour>
      <point x="755.125" y="504.875" type="line"/>
      <point x="541.4375" y="504.875" type="line"/>
      <point x="541.4375" y="446.1458333333333" type="line" smooth="yes"/>
      <point x="541.4375" y="178.54166666666666"/>
      <point x="176.625" y="206.41666666666666"/>
      <point x="176.625" y="-114.70833333333333" type="curve" smooth="yes"/>
      <point x="176.625" y="-280.25"/>
      <point x="328.3125" y="-433.4166666666667"/>
      <point x="595.375" y="-433.4166666666667" type="curve" smooth="yes"/>
      <point x="775.1875" y="-433.4166666666667"/>
      <point x="923.6041666666666" y="-364.3958333333333"/>
      <point x="1039.0416666666667" y="-228.95833333333334" type="curve"/>
      <point x="887.8333333333334" y="-116.16666666666666" type="line"/>
      <point x="809.125" y="-209.58333333333331"/>
      <point x="710.625" y="-251.97916666666666"/>
      <point x="617.75" y="-251.97916666666666" type="curve" smooth="yes"/>
      <point x="497.8333333333333" y="-251.97916666666666"/>
      <point x="410.3125" y="-197.125"/>
      <point x="410.3125" y="-98.25" type="curve" smooth="yes"/>
      <point x="410.3125" y="100.33333333333333"/>
      <point x="755.125" y="98.875"/>
      <point x="755.125" y="429.375" type="curve" smooth="yes"/>
    </contour>
  </outline>
</glyph>
<glyph name="AE" format="2">
  <advance width="1200.0"/>
  <unicode hex="00C6"/>
  <anchor x="600.0" y="0.0" name="bottom"/>
  <anchor x="714.4166666666666" y="1380.25" name="top"/>
  <outline>
    <contour>
      <point x="647.125" y="333.75" type="line"/>
      <point x="710.9791666666666" y="0.0" type="line"/>
      <point x="1211.75" y="0.0" type="line"/>
      <point x="1211.75" y="171.6875" type="line"/>
      <point x="886.0" y="171.6875" type="line"/>
      <point x="794.875" y="614.0" type="line"/>
      <point x="1113.4375" y="614.0" type="line"/>
      <point x="1113.4375" y="785.6875" type="line"/>
      <point x="763.0208333333334" y="785.6875" type="line"/>
      <point x="674.9791666666666" y="1208.5625" type="line"/>
      <point x="1105.5833333333333" y="1208.5625" type="line"/>
      <point x="1131.4375" y="1380.25" type="line"/>
      <point x="359.0208333333333" y="1380.25" type="line"/>
      <point x="-24.0" y="0.0" type="line"/>
      <point x="204.70833333333334" y="0.0" type="line"/>
      <point x="287.0208333333333" y="333.75" type="line"/>
    </contour>
    <contour>
      <point x="329.2916666666667" y="508.875" type="line"/>
      <point x="484.25" y="1212.0" type="line"/>
      <point x="614.5625" y="508.875" type="line"/>
    </contour>
  </outline>
</glyph>
<glyph name="Eth" format="2">
  <advance width="1200.0"/>
  <unicode hex="00D0"/>
  <anchor x="621.6875" y="0.0" name="bottom"/>
  <anchor x="621.6875" y="691.125" name="center"/>
  <anchor x="591.375" y="1380.25" name="top"/>
  <outline>
    <contour>
      <point x="683.5833333333334" y="784.875" type="line"/>
      <point x="32.416666666666664" y="784.875" type="line"/>
      <point x="32.416666666666664" y="627.125" type="line"/>
      <point x="683.5833333333334" y="627.125" type="line"/>
    </contour>
    <component base="D" xOffset="21.6875"/>
  </outline>
</glyph>
<glyph name="multiply" format="2">
  <advance width="1200.0"/>
  <unicode hex="00D7"/>
  <outline>
    <contour>
      <point x="839.5833333333334" y="986.4166666666666" type="line"/>
      <point x="600.0" y="743.75" type="line"/>
      <point x="360.4166666666667" y="986.4166666666666" type="line"/>
      <point x="229.02083333333331" y="853.5833333333334" type="line"/>
      <point x="470.25" y="614.0" type="line"/>
      <point x="229.02083333333331" y="374.4166666666667" type="line"/>
      <point x="360.4166666666667" y="243.02083333333331" type="line"/>
      <point x="600.0" y="484.25" type="line"/>
      <point x="839.5833333333334" y="243.02083333333331" type="line"/>
      <point x="970.9791666666666" y="374.4166666666667" type="line"/>
      <point x="729.75" y="614.0" type="line"/>
      <point x="970.9791666666666" y="853.5833333333334" type="line"/>
    </contour>
  </outline>
</glyph>
<glyph name="Oslash" format="2">
  <advance width="1200.0"/>
  <unicode hex="00D8"/>
  <anchor x="600.0" y="0.0" name="bottom"/>
  <anchor x="600.0" y="1380.25" name="top"/>
  <outline>
    <contour>
      <point x="600.0" y="1407.5833333333333" type="curve" smooth="yes"/>
      <point x="254.25" y="1407.5833333333333"/>
      <point x="74.70833333333333" y="1114.3125"/>
      <point x="74.70833333333333" y="688.25" type="curve" smooth="yes"/>
      <point x="74.70833333333333" y="253.58333333333334"/>
      <point x="262.7083333333333" y="-27.291666666666668"/>
      <point x="600.0" y="-27.291666666666668" type="curve" smooth="yes"/>
      <point x="945.75" y="-27.291666666666668"/>
      <point x="1125.2916666666667" y="263.5833333333333"/>
      <point x="1125.2916666666667" y="689.6875" type="curve" smooth="yes"/>
      <point x="1125.2916666666667" y="1124.3125"/>
      <point x="937.2916666666666" y="1407.5833333333333"/>
    </contour>
    <contour>
      <point x="781.125" y="1606.0" type="line"/>
      <point x="715.125" y="1380.25" type="line"/>
      <point x="695.8541666666666" y="1255.125" type="line"/>
      <point x="396.7083333333333" y="226.25" type="line"/>
      <point x="324.5625" y="90.97916666666667" type="line"/>
      <point x="242.875" y="-170.25" type="line"/>
      <point x="420.3125" y="-219.4375" type="line"/>
      <point x="488.7083333333333" y="9.4375" type="line"/>
      <point x="510.25" y="140.70833333333334" type="line"/>
      <point x="808.9791666666666" y="1171.8541666666667" type="line"/>
      <point x="881.125" y="1308.1458333333333" type="line"/>
      <point x="958.5625" y="1557.2916666666667" type="line"/>
    </contour>
    <contour>
      <point x="600.0" y="1228.25" type="curve" smooth="yes"/>
      <point x="807.2916666666666" y="1228.25"/>
      <point x="888.9791666666666" y="1076.9791666666667"/>
      <point x="888.9791666666666" y="689.6875" type="curve" smooth="yes"/>
      <point x="888.9791666666666" y="332.3125"/>
      <point x="807.2916666666666" y="152.5625"/>
      <point x="600.0" y="152.5625" type="curve" smooth="yes"/>
      <point x="397.5833333333333" y="152.5625"/>
      <point x="311.0208333333333" y="301.4375"/>
      <point x="311.0208333333333" y="688.25" type="curve" smooth="yes"/>
      <point x="311.0208333333333" y="1046.7083333333333"/>
      <point x="394.3125" y="1228.25"/>
    </contour>
  </outline>
</glyph>
<glyph name="Thorn" format="2">
  <advance width="1200.0"/>
  <unicode hex="00DE"/>
  <anchor x="600.0" y="0.0" name="bottom"/>
  <anchor x="600.0" y="1380.25" name="top"/>
  <outline>
    <contour>
      <point x="410.1458333333333" y="1380.25" type="line"/>
      <point x="178.41666666666666" y="1380.25" type="line"/>
      <point x="178.41666666666666" y="0.0" type="line"/>
      <point x="410.1458333333333" y="0.0" type="line"/>
      <point x="410.1458333333333" y="247.85416666666666" type="line"/>
      <point x="590.9791666666666" y="247.85416666666666" type="line" smooth="yes"/>
      <point x="912.4166666666666" y="247.85416666666666"/>
      <point x="1127.125" y="386.3125"/>
      <point x="1127.125" y="709.4375" type="curve" smooth="yes"/>
      <point x="1127.125" y="1009.6875"/>
      <point x="922.9791666666666" y="1150.9791666666667"/>
      <point x="575.2916666666666" y="1150.9791666666667" type="curve" smooth="yes"/>
      <point x="410.1458333333333" y="1150.9791666666667" type="line"/>
    </contour>
    <contour>
      <point x="591.4375" y="976.875" type="line" smooth="yes"/>
      <point x="770.5625" y="976.875"/>
      <point x="884.3125" y="898.4166666666666"/>
      <point x="884.3125" y="706.0" type="curve" smooth="yes"/>
      <point x="884.3125" y="490.3125"/>
      <point x="768.5625" y="424.0"/>
      <point x="597.2916666666666" y="424.0" type="curve" smooth="yes"/>
      <point x="410.1458333333333" y="424.0" type="line"/>
      <point x="410.1458333333333" y="976.875" type="line"/>
    </contour>
  </outline>
</glyph>
<glyph name="germandbls" format="2">
  <advance width="1200.0"/>
  <unicode hex="00DF"/>
  <outline>
    <contour>
      <point x="588.7083333333334" y="1505.0208333333333" type="curve" smooth="yes"/>
      <point x="318.25" y="1505.0208333333333"/>
      <point x="164.5625" y="1349.4375"/>
      <point x="164.5625" y="1064.875" type="curve" smooth="yes"/>
      <point x="164.5625" y="0.0" type="line"/>
      <point x="388.5625" y="0.0" type="line"/>
      <point x="388.5625" y="1077.4375" type="line" smooth="yes"/>
      <point x="388.5625" y="1261.8541666666667"/>
      <point x="454.875" y="1337.6875"/>
      <point x="585.0208333333334" y="1337.6875" type="curve" smooth="yes"/>
      <point x="700.4166666666666" y="1337.6875"/>
      <point x="743.2916666666666" y="1263.75"/>
      <point x="743.2916666666666" y="1193.4375" type="curve" smooth="yes"/>
      <point x="743.2916666666666" y="1046.5625"/>
      <point x="541.0208333333334" y="1013.4375"/>
      <point x="541.0208333333334" y="826.25" type="curve" smooth="yes"/>
      <point x="541.0208333333334" y="564.25"/>
      <point x="900.875" y="570.25"/>
      <point x="900.875" y="328.25" type="curve" smooth="yes"/>
      <point x="900.875" y="209.4375"/>
      <point x="834.5625" y="149.58333333333334"/>
      <point x="721.5833333333334" y="149.58333333333334" type="curve" smooth="yes"/>
      <point x="671.6875" y="149.58333333333334"/>
      <point x="616.0" y="165.85416666666669"/>
      <point x="570.25" y="191.125" type="curve"/>
      <point x="489.8541666666667" y="39.02083333333333" type="line"/>
      <point x="559.8541666666666" y="-3.291666666666667"/>
      <point x="641.8541666666666" y="-27.291666666666668"/>
      <point x="746.25" y="-27.291666666666668" type="curve" smooth="yes"/>
      <point x="958.5625" y="-27.291666666666668"/>
      <point x="1130.5625" y="101.4375"/>
      <point x="1130.5625" y="334.5625" type="curve" smooth="yes"/>
      <point x="1130.5625" y="675.8541666666666"/>
      <point x="748.9791666666666" y="693.75"/>
      <point x="748.9791666666666" y="859.6875" type="curve" smooth="yes"/>
      <point x="748.9791666666666" y="983.125"/>
      <point x="958.25" y="1018.25"/>
      <point x="958.25" y="1208.875" type="curve" smooth="yes"/>
      <point x="958.25" y="1380.0"/>
      <point x="815.125" y="1505.0208333333333"/>
    </contour>
  </outline>
</glyph>
<glyph name="ae" format="2">
  <advance width="1200.0"/>
  <unicode hex="00E6"/>
  <anchor x="612.1458333333334" y="1056.25" name="top"/>
  <outline>
    <contour>
      <point x="864.1458333333334" y="1083.5833333333333" type="curve" smooth="yes"/>
      <point x="736.9583333333334" y="1083.5833333333333"/>
      <point x="649.6041666666666" y="1020.875"/>
      <point x="605.9166666666666" y="921.0208333333334" type="curve"/>
      <point x="563.1458333333334" y="1019.4375"/>
      <point x="487.4583333333333" y="1083.5833333333333"/>
      <point x="336.1458333333333" y="1083.5833333333333" type="curve" smooth="yes"/>
      <point x="243.125" y="1083.5833333333333"/>
      <point x="153.02083333333334" y="1057.5833333333333"/>
      <point x="59.125" y="1014.9791666666666" type="curve"/>
      <point x="114.3125" y="870.25" type="line"/>
      <point x="198.14583333333334" y="908.25"/>
      <point x="246.41666666666666" y="923.125"/>
      <point x="314.25" y="923.125" type="curve" smooth="yes"/>
      <point x="429.6875" y="923.125"/>
      <point x="495.125" y="860.0"/>
      <point x="495.125" y="717.2916666666666" type="curve" smooth="yes"/>
      <point x="495.125" y="645.8541666666666" type="line"/>
      <point x="407.8541666666667" y="645.8541666666666" type="line" smooth="yes"/>
      <point x="129.02083333333334" y="645.8541666666666"/>
      <point x="-12.0" y="524.25"/>
      <point x="-12.0" y="302.5625" type="curve" smooth="yes"/>
      <point x="-12.0" y="106.0"/>
      <point x="104.3125" y="-27.291666666666668"/>
      <point x="290.3125" y="-27.291666666666668" type="curve" smooth="yes"/>
      <point x="424.875" y="-27.291666666666668"/>
      <point x="499.1875" y="25.75"/>
      <point x="580.0208333333334" y="156.08333333333334" type="curve"/>
      <point x="651.8541666666666" y="34.708333333333336"/>
      <point x="748.1458333333334" y="-27.291666666666668"/>
      <point x="892.3125" y="-27.291666666666668" type="curve" smooth="yes"/>
      <point x="1013.8541666666666" y="-27.291666666666668"/>
      <point x="1103.75" y="16.875"/>
      <point x="1182.7083333333333" y="81.4375" type="curve"/>
      <point x="1089.5833333333333" y="213.125" type="line"/>
      <point x="1026.3125" y="165.85416666666669"/>
      <point x="972.875" y="139.02083333333334"/>
      <point x="900.25" y="139.02083333333334" type="curve" smooth="yes"/>
      <point x="770.0" y="139.02083333333334"/>
      <point x="705.125" y="240.0"/>
      <point x="687.125" y="460.1458333333333" type="curve"/>
      <point x="1203.5833333333333" y="460.1458333333333" type="line"/>
      <point x="1206.625" y="488.3125"/>
      <point x="1208.1458333333333" y="520.3125"/>
      <point x="1208.1458333333333" y="556.3125" type="curve" smooth="yes"/>
      <point x="1208.1458333333333" y="888.1458333333334"/>
      <point x="1107.4375" y="1083.5833333333333"/>
    </contour>
    <contour>
      <point x="495.125" y="508.875" type="line"/>
      <point x="495.125" y="434.9791666666667"/>
      <point x="501.4375" y="361.75"/>
      <point x="513.1875" y="294.5625" type="curve"/>
      <point x="457.8541666666667" y="187.6875"/>
      <point x="404.3125" y="131.75"/>
      <point x="326.7083333333333" y="131.75" type="curve" smooth="yes"/>
      <point x="249.02083333333334" y="131.75"/>
      <point x="200.25" y="195.85416666666669"/>
      <point x="200.25" y="313.6875" type="curve" smooth="yes"/>
      <point x="200.25" y="433.0208333333333"/>
      <point x="256.875" y="508.875"/>
      <point x="426.25" y="508.875" type="curve" smooth="yes"/>
    </contour>
    <contour>
      <point x="856.9791666666666" y="922.0" type="curve" smooth="yes"/>
      <point x="977.2916666666666" y="922.0"/>
      <point x="1012.7083333333334" y="816.3125"/>
      <point x="1016.1458333333334" y="606.7083333333334" type="curve"/>
      <point x="687.125" y="606.7083333333334" type="line"/>
      <point x="700.875" y="841.5833333333334"/>
      <point x="750.9791666666666" y="922.0"/>
    </contour>
  </outline>
</glyph>
<glyph name="eth" format="2">
  <advance width="1200.0"/>
  <unicode hex="00F0"/>
  <outline>
    <contour>
      <point x="306.1458333333333" y="1130.9791666666667" type="line"/>
      <point x="456.3125" y="1058.1458333333333" type="line"/>
      <point x="595.5833333333334" y="1201.8541666666667" type="line"/>
      <point x="710.7083333333334" y="1118.0"/>
      <point x="797.125" y="995.6875"/>
      <point x="837.8541666666666" y="838.5625" type="curve"/>
      <point x="762.9791666666666" y="918.9791666666666"/>
      <point x="669.6875" y="962.5625"/>
      <point x="540.1458333333334" y="962.5625" type="curve" smooth="yes"/>
      <point x="311.5833333333333" y="962.5625"/>
      <point x="113.02083333333333" y="765.4375"/>
      <point x="113.02083333333333" y="469.4375" type="curve" smooth="yes"/>
      <point x="113.02083333333333" y="152.875"/>
      <point x="324.0" y="-27.291666666666668"/>
      <point x="589.4375" y="-27.291666666666668" type="curve" smooth="yes"/>
      <point x="895.8541666666666" y="-27.291666666666668"/>
      <point x="1083.2916666666667" y="203.4375"/>
      <point x="1083.2916666666667" y="536.7083333333334" type="curve" smooth="yes"/>
      <point x="1083.2916666666667" y="910.5625"/>
      <point x="973.6875" y="1171.8541666666667"/>
      <point x="727.5833333333334" y="1336.4166666666667" type="curve"/>
      <point x="845.125" y="1456.875" type="line"/>
      <point x="720.9791666666666" y="1565.2916666666667" type="line"/>
      <point x="579.2916666666666" y="1415.6875" type="line"/>
      <point x="496.25" y="1454.875"/>
      <point x="397.2916666666667" y="1482.7083333333333"/>
      <point x="282.9791666666667" y="1504.9791666666667" type="curve"/>
      <point x="236.3125" y="1344.9791666666667" type="line"/>
      <point x="319.125" y="1328.1458333333333"/>
      <point x="388.7083333333333" y="1308.3125"/>
      <point x="450.41666666666663" y="1281.6875" type="curve"/>
    </contour>
    <contour>
      <point x="856.25" y="526.4166666666666" type="curve" smooth="yes"/>
      <point x="856.25" y="273.125"/>
      <point x="758.3125" y="144.25"/>
      <point x="589.6875" y="144.25" type="curve" smooth="yes"/>
      <point x="442.9791666666667" y="144.25"/>
      <point x="341.58333333333337" y="254.0"/>
      <point x="341.58333333333337" y="476.3125" type="curve" smooth="yes"/>
      <point x="341.58333333333337" y="696.25"/>
      <point x="451.125" y="794.7083333333334"/>
      <point x="585.2916666666666" y="794.7083333333334" type="curve" smooth="yes"/>
      <point x="695.4375" y="794.7083333333334"/>
      <point x="790.3125" y="748.4166666666666"/>
      <point x="851.8541666666666" y="661.75" type="curve"/>
      <point x="855.2916666666666" y="618.1458333333334"/>
      <point x="856.25" y="574.9791666666666"/>
    </contour>
  </outline>
</glyph>
<glyph name="divide" format="2">
  <advance width="1200.0"/>
  <unicode hex="00F7"/>
  <outline>
    <contour>
      <point x="993.75" y="718.7083333333334" type="line"/>
      <point x="206.25" y="718.7083333333334" type="line"/>
      <point x="206.25" y="538.0" type="line"/>
      <point x="993.75" y="538.0" type="line"/>
    </contour>
    <contour>
      <point x="600.0" y="374.1458333333333" type="curve" smooth="yes"/>
      <point x="515.2916666666666" y="374.1458333333333"/>
      <point x="447.75" y="306.5625"/>
      <point x="447.75" y="223.85416666666666" type="curve" smooth="yes"/>
      <point x="447.75" y="138.70833333333331"/>
      <point x="515.2916666666666" y="71.125"/>
      <point x="600.0" y="71.125" type="curve" smooth="yes"/>
      <point x="684.7083333333334" y="71.125"/>
      <point x="752.25" y="138.70833333333331"/>
      <point x="752.25" y="223.85416666666666" type="curve" smooth="yes"/>
      <point x="752.25" y="306.5625"/>
      <point x="684.7083333333334" y="374.1458333333333"/>
    </contour>
    <contour>
      <point x="600.0" y="1185.5833333333333" type="curve" smooth="yes"/>
      <point x="515.2916666666666" y="1185.5833333333333"/>
      <point x="447.75" y="1118.0"/>
      <point x="447.75" y="1035.2916666666667" type="curve" smooth="yes"/>
      <point x="447.75" y="950.7083333333334"/>
      <point x="515.2916666666666" y="884.5625"/>
      <point x="600.0" y="884.5625" type="curve" smooth="yes"/>
      <point x="684.7083333333334" y="884.5625"/>
      <point x="752.25" y="950.7083333333334"/>
      <point x="752.25" y="1035.2916666666667" type="curve" smooth="yes"/>
      <point x="752.25" y="1118.0"/>
      <point x="684.7083333333334" y="1185.5833333333333"/>
    </contour>
  </outline>
</glyph>
<glyph name="oslash" format="2">
  <advance width="1200.0"/>
  <unicode hex="00F8"/>
  <anchor x="600.0" y="1056.25" name="top"/>
  <outline>
    <contour>
      <point x="601.4375" y="1083.5833333333333" type="curve" smooth="yes"/>
      <point x="293.6875" y="1083.5833333333333"/>
      <point x="123.29166666666666" y="857.0208333333334"/>
      <point x="123.29166666666666" y="527.6875" type="curve" smooth="yes"/>
      <point x="123.29166666666666" y="186.97916666666666"/>
      <point x="299.4375" y="-27.291666666666668"/>
      <point x="600.0" y="-27.291666666666668" type="curve" smooth="yes"/>
      <point x="906.3125" y="-27.291666666666668"/>
      <point x="1076.7083333333333" y="195.29166666666666"/>
      <point x="1076.7083333333333" y="529.6875" type="curve" smooth="yes"/>
      <point x="1076.7083333333333" y="865.8541666666666"/>
      <point x="902.5625" y="1083.5833333333333"/>
    </contour>
    <contour>
      <point x="762.0" y="1314.9791666666667" type="line"/>
      <point x="681.4375" y="1063.5833333333333" type="line"/>
      <point x="666.0" y="945.6875" type="line"/>
      <point x="429.125" y="188.41666666666669" type="line"/>
      <point x="356.9791666666667" y="63.125" type="line"/>
      <point x="265.0208333333333" y="-214.14583333333334" type="line"/>
      <point x="440.0" y="-265.8541666666667" type="line"/>
      <point x="518.5625" y="-4.416666666666668" type="line"/>
      <point x="542.3125" y="128.25" type="line"/>
      <point x="777.5833333333334" y="880.7083333333334" type="line"/>
      <point x="848.9791666666666" y="999.4375" type="line"/>
      <point x="936.4166666666666" y="1263.75" type="line"/>
    </contour>
    <contour>
      <point x="601.4375" y="911.6875" type="curve" smooth="yes"/>
      <point x="769.8541666666666" y="911.6875"/>
      <point x="843.4375" y="812.0"/>
      <point x="843.4375" y="529.6875" type="curve" smooth="yes"/>
      <point x="843.4375" y="263.6875"/>
      <point x="763.75" y="144.5625"/>
      <point x="600.0" y="144.5625" type="curve" smooth="yes"/>
      <point x="430.1458333333333" y="144.5625"/>
      <point x="356.5625" y="243.6875"/>
      <point x="356.5625" y="527.6875" type="curve" smooth="yes"/>
      <point x="356.5625" y="792.0"/>
      <point x="437.6875" y="911.6875"/>
    </contour>
  </outline>
</glyph>
<glyph name="dcroat" format="2">
  <advance width="1200.0"/>
  <unicode hex="0111"/>
  <anchor x="588.875" y="0.0" name="bottom"/>
  <anchor x="588.875" y="529.125" name="center"/>
  <anchor x="588.875" y="1479.6875" name="top"/>
  <anchor x="1065.4375" y="1479.6875" name="topright"/>
  <outline>
    <contour>
      <point x="1011.0208333333334" y="1345.125" type="line"/>
      <point x="481.6875" y="1345.125" type="line"/>
      <point x="481.6875" y="1191.75" type="line"/>
      <point x="787.0208333333334" y="1191.75" type="line"/>
      <point x="1169.5833333333333" y="1191.75" type="line"/>
      <point x="1169.5833333333333" y="1345.125" type="line"/>
    </contour>
    <component base="d" xOffset="-11.125000000000004"/>
  </outline>
</glyph>
<glyph name="Hbar" format="2">
  <advance width="1200.0"/>
  <unicode hex="0126"/>
  <outline>
    <contour>
      <point x="1054.4166666666667" y="1380.25" type="line"/>
      <point x="822.25" y="1380.25" type="line"/>
      <point x="822.25" y="816.4166666666666" type="line"/>
      <point x="377.75" y="816.4166666666666" type="line"/>
      <point x="377.75" y="1380.25" type="line"/>
      <point x="145.58333333333331" y="1380.25" type="line"/>
      <point x="145.58333333333331" y="0.0" type="line"/>
      <point x="377.75" y="0.0" type="line"/>
      <point x="377.75" y="630.4166666666666" type="line"/>
      <point x="822.25" y="630.4166666666666" type="line"/>
      <point x="822.25" y="0.0" type="line"/>
      <point x="1054.4166666666667" y="0.0" type="line"/>
    </contour>
    <contour>
      <point x="1196.0" y="1162.875" type="line"/>
      <point x="4.0" y="1162.875" type="line"/>
      <point x="4.0" y="1011.0208333333334" type="line"/>
      <point x="1196.0" y="1011.0208333333334" type="line"/>
    </contour>
  </outline>
</glyph>
<glyph name="hbar" format="2">
  <advance width="1200.0"/>
  <unicode hex="0127"/>
  <anchor x="600.0" y="0.0" name="bottom"/>
  <anchor x="600.0" y="529.125" name="center"/>
  <anchor x="600.0" y="1479.6875" name="top"/>
  <outline>
    <contour>
      <point x="718.3125" y="1345.125" type="line"/>
      <point x="177.85416666666666" y="1345.125" type="line"/>
      <point x="30.416666666666664" y="1345.125" type="line"/>
      <point x="30.416666666666664" y="1191.75" type="line"/>
      <point x="401.8541666666667" y="1191.75" type="line"/>
      <point x="718.3125" y="1191.75" type="line"/>
    </contour>
    <component base="h"/>
  </outline>
</glyph>
<glyph name="dotlessi" format="2">
  <advance width="1200.0"/>
  <unicode hex="0131"/>
  <anchor x="774.9791666666666" y="0.0" name="ogonek"/>
  <anchor x="600.875" y="1056.25" name="top"/>
  <outline>
    <contour>
      <point x="754.9791666666666" y="1056.25" type="line"/>
      <point x="225.125" y="1056.25" type="line"/>
      <point x="225.125" y="892.0" type="line"/>
      <point x="530.9791666666666" y="892.0" type="line"/>
      <point x="530.9791666666666" y="164.25" type="line"/>
      <point x="215.125" y="164.25" type="line"/>
      <point x="215.125" y="0.0" type="line"/>
      <point x="1041.75" y="0.0" type="line"/>
      <point x="1041.75" y="164.25" type="line"/>
      <point x="754.9791666666666" y="164.25" type="line"/>
    </contour>
  </outline>
</glyph>
<glyph name="IJ" format="2">
  <advance width="1200.0"/>
  <unicode hex="0132"/>
  <outline>
    <contour>
      <point x="379.2916666666667" y="-142.5625" type="curve"/>
      <point x="405.75" y="-307.0208333333333" type="line"/>
      <point x="935.5833333333334" y="-245.02083333333334"/>
      <point x="1083.2916666666667" y="27.291666666666657"/>
      <point x="1083.2916666666667" y="362.5625" type="curve" smooth="yes"/>
      <point x="1083.2916666666667" y="1380.25" type="line"/>
      <point x="20.3125" y="1380.25" type="line"/>
      <point x="20.3125" y="1214.1458333333333" type="line"/>
      <point x="199.85416666666666" y="1214.1458333333333" type="line"/>
      <point x="199.85416666666666" y="166.14583333333334" type="line"/>
      <point x="20.3125" y="166.14583333333334" type="line"/>
      <point x="20.3125" y="0.0" type="line"/>
      <point x="564.25" y="0.0" type="line"/>
      <point x="564.25" y="166.14583333333334" type="line"/>
      <point x="424.7083333333333" y="166.14583333333334" type="line"/>
      <point x="424.7083333333333" y="1214.1458333333333" type="line"/>
      <point x="854.9791666666666" y="1214.1458333333333" type="line"/>
      <point x="854.9791666666666" y="364.4166666666667" type="line" smooth="yes"/>
      <point x="854.9791666666666" y="77.6875"/>
      <point x="770.25" y="-94.41666666666667"/>
    </contour>
  </outline>
</glyph>
<glyph name="ij" format="2">
  <advance width="1200.0"/>
  <unicode hex="0133"/>
  <outline>
    <contour>
      <point x="1034.4166666666667" y="1056.25" type="line"/>
      <point x="97.29166666666666" y="1056.25" type="line"/>
      <point x="97.29166666666666" y="895.4375" type="line"/>
      <point x="255.4375" y="895.4375" type="line"/>
      <point x="255.4375" y="164.25" type="line"/>
      <point x="87.29166666666666" y="164.25" type="line"/>
      <point x="87.29166666666666" y="0.0" type="line"/>
      <point x="632.1458333333334" y="0.0" type="line"/>
      <point x="632.1458333333334" y="164.25" type="line"/>
      <point x="474.0" y="164.25" type="line"/>
      <point x="474.0" y="895.4375" type="line"/>
      <point x="813.8541666666666" y="895.4375" type="line"/>
      <point x="813.8541666666666" y="143.6875" type="line" smooth="yes"/>
      <point x="813.8541666666666" y="-94.0"/>
      <point x="636.4166666666666" y="-185.58333333333331"/>
      <point x="419.0208333333333" y="-261.75" type="curve"/>
      <point x="490.0" y="-431.0208333333333" type="line"/>
      <point x="808.7083333333334" y="-330.875"/>
      <point x="1034.4166666666667" y="-177.75"/>
      <point x="1034.4166666666667" y="160.14583333333334" type="curve" smooth="yes"/>
    </contour>
    <contour>
      <point x="366.875" y="1573.4375" type="curve" smooth="yes"/>
      <point x="280.875" y="1573.4375"/>
      <point x="221.125" y="1512.25"/>
      <point x="221.125" y="1433.2916666666667" type="curve" smooth="yes"/>
      <point x="221.125" y="1352.4166666666667"/>
      <point x="280.875" y="1290.7083333333333"/>
      <point x="366.875" y="1290.7083333333333" type="curve" smooth="yes"/>
      <point x="453.4375" y="1290.7083333333333"/>
      <point x="514.7083333333334" y="1352.4166666666667"/>
      <point x="514.7083333333334" y="1433.2916666666667" type="curve" smooth="yes"/>
      <point x="514.7083333333334" y="1512.25"/>
      <point x="453.4375" y="1573.4375"/>
    </contour>
    <contour>
      <point x="902.4166666666666" y="1573.4375" type="curve" smooth="yes"/>
      <point x="816.4166666666666" y="1573.4375"/>
      <point x="755.5833333333334" y="1512.25"/>
      <point x="755.5833333333334" y="1433.2916666666667" type="curve" smooth="yes"/>
      <point x="755.5833333333334" y="1352.4166666666667"/>
      <point x="816.4166666666666" y="1290.7083333333333"/>
      <point x="902.4166666666666" y="1290.7083333333333" type="curve" smooth="yes"/>
      <point x="988.4166666666666" y="1290.7083333333333"/>
      <point x="1049.6875" y="1352.4166666666667"/>
      <point x="1049.6875" y="1433.2916666666667" type="curve" smooth="yes"/>
      <point x="1049.6875" y="1512.25"/>
      <point x="988.4166666666666" y="1573.4375"/>
    </contour>
  </outline>
</glyph>
<glyph name="kgreenlandic" format="2">
  <advance width="1200.0"/>
  <unicode hex="0138"/>
  <anchor x="600.0" y="0.0" name="bottom"/>
  <anchor x="600.0" y="1056.25" name="top"/>
  <outline>
    <contour>
      <point x="1100.5625" y="1056.25" type="line"/>
      <point x="840.0" y="1056.25" type="line"/>
      <point x="417.6875" y="560.1458333333334" type="line"/>
      <point x="871.5833333333334" y="0.0" type="line"/>
      <point x="1145.8541666666667" y="0.0" type="line"/>
      <point x="670.9791666666667" y="575.4375" type="line"/>
    </contour>
    <contour>
      <point x="401.8541666666667" y="1056.25" type="line"/>
      <point x="177.85416666666666" y="1056.25" type="line"/>
      <point x="177.85416666666666" y="0.0" type="line"/>
      <point x="401.8541666666667" y="0.0" type="line"/>
    </contour>
  </outline>
</glyph>
<glyph name="Lslash" format="2">
  <advance width="1200.0"/>
  <unicode hex="0141"/>
  <anchor x="661.125" y="0.0" name="bottom"/>
  <anchor x="947.5833333333334" y="763.2916666666666" name="center"/>
  <anchor x="364.625" y="1380.25" name="top"/>
  <anchor x="579.75" y="1380.25" name="topright"/>
  <outline>
    <contour>
      <point x="142.25" y="441.2916666666667" type="line"/>
      <point x="865.0208333333334" y="889.75" type="line"/>
      <point x="777.5833333333334" y="1023.8541666666666" type="line"/>
      <point x="57.291666666666664" y="577.4375" type="line"/>
    </contour>
    <component base="L" xOffset="8.875"/>
  </outline>
</glyph>
<glyph name="lslash" format="2">
  <advance width="1200.0"/>
  <unicode hex="0142"/>
  <anchor x="716.7083333333334" y="0.0" name="bottom"/>
  <anchor x="1126.4166666666667" y="766.0" name="center"/>
  <anchor x="523.0208333333334" y="1479.6875" name="top"/>
  <anchor x="716.1458333333334" y="1479.6875" name="topright"/>
  <outline>
    <contour>
      <point x="418.25" y="761.4375" type="line"/>
      <point x="214.41666666666666" y="638.0" type="line"/>
      <point x="300.9791666666667" y="503.6875" type="line"/>
      <point x="642.25" y="712.3125" type="line"/>
      <point x="890.0" y="864.1458333333334" type="line"/>
      <point x="802.875" y="999.0208333333334" type="line"/>
    </contour>
    <component base="l"/>
  </outline>
</glyph>
<glyph name="napostrophe" format="2">
  <advance width="1200.0"/>
  <unicode hex="0149"/>
  <anchor x="627.5833333333334" y="0.0" name="bottom"/>
  <anchor x="626.1458333333334" y="1056.25" name="top"/>
  <outline>
    <contour>
      <point x="123.75" y="1512.1458333333333" type="curve" smooth="yes"/>
      <point x="52.5625" y="1512.1458333333333"/>
      <point x="-3.8541666666666714" y="1458.0"/>
      <point x="-3.8541666666666714" y="1389.0208333333333" type="curve" smooth="yes"/>
      <point x="-3.8541666666666714" y="1345.4375"/>
      <point x="18.874999999999996" y="1310.7083333333333"/>
      <point x="49.125" y="1285.5833333333333" type="curve"/>
      <point x="-4.416666666666668" y="1068.5625" type="line"/>
      <point x="117.125" y="1068.5625" type="line"/>
      <point x="199.125" y="1236.7083333333333" type="line" smooth="yes"/>
      <point x="237.75" y="1316.3125"/>
      <point x="249.4375" y="1350.0"/>
      <point x="249.4375" y="1389.0208333333333" type="curve" smooth="yes"/>
      <point x="249.4375" y="1459.6875"/>
      <point x="194.97916666666666" y="1512.1458333333333"/>
    </contour>
    <component base="n" xOffset="25.583333333333336"/>
  </outline>
</glyph>
<glyph name="eng" format="2">
  <advance width="1200.0"/>
  <unicode hex="014B"/>
  <outline>
    <contour>
      <point x="1023.5833333333334" y="80.70833333333334" type="curve" smooth="yes"/>
      <point x="1023.5833333333334" y="770.4166666666666" type="line" smooth="yes"/>
      <point x="1023.5833333333334" y="967.5833333333334"/>
      <point x="928.25" y="1083.5833333333333"/>
      <point x="728.7083333333334" y="1083.5833333333333" type="curve" smooth="yes"/>
      <point x="604.1458333333334" y="1083.5833333333333"/>
      <point x="476.4166666666667" y="1026.3125"/>
      <point x="387.6875" y="918.875" type="curve"/>
      <point x="371.4375" y="1056.25" type="line"/>
      <point x="177.85416666666666" y="1056.25" type="line"/>
      <point x="177.85416666666666" y="0.0" type="line"/>
      <point x="401.8541666666667" y="0.0" type="line"/>
      <point x="401.8541666666667" y="755.125" type="line"/>
      <point x="458.9791666666667" y="836.5625"/>
      <point x="547.6875" y="912.875"/>
      <point x="647.75" y="912.875" type="curve" smooth="yes"/>
      <point x="779.0208333333334" y="912.875"/>
      <point x="799.5833333333334" y="842.0"/>
      <point x="799.5833333333334" y="659.2916666666666" type="curve" smooth="yes"/>
      <point x="799.5833333333334" y="66.97916666666667" type="line" smooth="yes"/>
      <point x="799.5833333333334" y="-149.02083333333331"/>
      <point x="728.25" y="-203.75"/>
      <point x="590.25" y="-266.1458333333333" type="curve"/>
      <point x="671.0208333333334" y="-429.5833333333333" type="line"/>
      <point x="896.3125" y="-333.2916666666667"/>
      <point x="1023.5833333333334" y="-236.14583333333334"/>
    </contour>
  </outline>
</glyph>
<glyph name="OE" format="2">
  <advance width="1200.0"/>
  <unicode hex="0152"/>
  <anchor x="600.0" y="0.0" name="bottom"/>
  <anchor x="600.0" y="1380.25" name="top"/>
  <outline>
    <contour>
      <point x="432.7083333333333" y="1407.5833333333333" type="curve" smooth="yes"/>
      <point x="141.125" y="1407.5833333333333"/>
      <point x="5.583333333333334" y="1146.5625"/>
      <point x="5.583333333333334" y="688.25" type="curve" smooth="yes"/>
      <point x="5.583333333333334" y="221.85416666666666"/>
      <point x="139.6875" y="-27.291666666666668"/>
      <point x="432.7083333333333" y="-27.291666666666668" type="curve" smooth="yes"/>
      <point x="491.8541666666667" y="-27.291666666666668"/>
      <point x="537.5833333333334" y="-15.125"/>
      <point x="587.4375" y="0.0" type="curve"/>
      <point x="1218.875" y="0.0" type="line"/>
      <point x="1218.875" y="171.6875" type="line"/>
      <point x="733.2916666666666" y="171.6875" type="line"/>
      <point x="802.4166666666666" y="264.5625"/>
      <point x="845.4375" y="407.6875"/>
      <point x="852.0" y="614.0" type="curve"/>
      <point x="1134.25" y="614.0" type="line"/>
      <point x="1134.25" y="785.6875" type="line"/>
      <point x="851.4375" y="785.6875" type="line"/>
      <point x="842.0" y="984.5625"/>
      <point x="803.0208333333334" y="1121.6875"/>
      <point x="741.8541666666666" y="1208.5625" type="curve"/>
      <point x="1182.0" y="1208.5625" type="line"/>
      <point x="1207.8541666666667" y="1380.25" type="line"/>
      <point x="594.0" y="1380.25" type="line"/>
      <point x="539.0208333333334" y="1398.4166666666667"/>
      <point x="491.8541666666667" y="1407.5833333333333"/>
    </contour>
    <contour>
      <point x="433.75" y="1234.4166666666667" type="curve" smooth="yes"/>
      <point x="586.4166666666666" y="1234.4166666666667"/>
      <point x="644.4166666666666" y="1085.2916666666667"/>
      <point x="644.4166666666666" y="689.6875" type="curve" smooth="yes"/>
      <point x="644.4166666666666" y="297.8541666666667"/>
      <point x="581.8541666666666" y="144.875"/>
      <point x="433.75" y="144.875" type="curve" smooth="yes"/>
      <point x="294.0" y="144.875"/>
      <point x="227.125" y="296.4166666666667"/>
      <point x="227.125" y="688.25" type="curve" smooth="yes"/>
      <point x="227.125" y="1080.5625"/>
      <point x="287.4375" y="1234.4166666666667"/>
    </contour>
  </outline>
</glyph>
